/* XPM */
static char *a6c2693997be4341b49f7faad00b98faO1tu7ejZ6MA4CRQQ[] = {
/* columns rows colors chars-per-pixel */
"32 32 102 2 ",
"   c #786443",
".  c #7D6849",
"X  c #836D4E",
"o  c #877152",
"O  c #8B7555",
"+  c #8C795B",
"@  c #917B5C",
"#  c #947F60",
"$  c #968262",
"%  c #9A8465",
"&  c #9D8967",
"*  c #9B8769",
"=  c #9E896A",
"-  c #9A8771",
";  c #9B8A71",
":  c #A28C6D",
">  c #A48F70",
",  c #A69172",
"<  c #AA9475",
"1  c #A7967C",
"2  c #AC977A",
"3  c #AE9A7B",
"4  c #B29D76",
"5  c #B29C7D",
"6  c #B6A07F",
"7  c #AE9B83",
"8  c #B49F80",
"9  c #B89F83",
"0  c #B6A282",
"q  c #BAA485",
"w  c #BCA884",
"e  c #BCA789",
"r  c #BEA98A",
"t  c #BFA890",
"y  c #C2AC8D",
"u  c #C5B18F",
"i  c #C5AF90",
"p  c #C6B292",
"a  c #CAB495",
"s  c #C7B896",
"d  c #CCB897",
"f  c #C5B49A",
"g  c #CCB699",
"h  c #CDBA9A",
"j  c #D2BC9C",
"k  c #D3BE9F",
"l  c #D4BD9E",
"z  c #D5BE9F",
"x  c #CEBDA1",
"c  c #D3BEA0",
"v  c #D6BFA0",
"b  c #D4C09F",
"n  c #D7C09F",
"m  c #D3C0A0",
"M  c #D7C0A1",
"N  c #D5C2A3",
"B  c #D6C5A7",
"V  c #D8C1A2",
"C  c #DAC3A3",
"Z  c #DCC6A2",
"A  c #DAC3A4",
"S  c #DBC4A5",
"D  c #DCC5A6",
"F  c #DDC6A7",
"G  c #DBC8A7",
"H  c #DBC6A9",
"J  c #DDC7A8",
"K  c #DECBA9",
"L  c #DDCAAA",
"P  c #DFCBAA",
"I  c #DFCAAB",
"U  c #E0C8A9",
"Y  c #E1CAAB",
"T  c #E0CBAC",
"R  c #E2CBAC",
"E  c #E1CCAD",
"W  c #E3CCAD",
"Q  c #E5CEAF",
"!  c #E6D0AD",
"~  c #E0CEB1",
"^  c #E4CFB0",
"/  c #E7CFB1",
"(  c #E7D0B1",
")  c #E5D3B1",
"_  c #E4D1B2",
"`  c #EBD5B0",
"'  c #E9D4B5",
"]  c #EBD4B5",
"[  c #EAD5B5",
"{  c #EDD6B7",
"}  c #ECD8B7",
"|  c #EAD5B8",
" . c #EDDBBB",
".. c #EFDABB",
"X. c #F1DDBC",
"o. c #F2DEBE",
"O. c #EFE0BE",
"+. c #F4DFC0",
"@. c #F6E2C2",
"#. c #FBE4C5",
"$. c #FDE8C9",
"%. c #FFFBDA",
/* pixels */
"Y j q 5 5 < y F / F a : y Y y j y < y y y 5 5 9 y l y 9 F a @ 5 ",
"F j q : 9 y 5 5 j e : > 5 Q y , 5 < 5 : i R , : z g 5 , < l X X ",
"e q y y g l y j a y 3 a y a d < 5 y y < 5 y 5 y C V 9 : @ < < q ",
"< : 5 0 2 v F y e Z u Z V e Y l l Z y l y j W 5 < Q y y < 5 g a ",
"< q 5 : q a v g h Y X.a s u w h < i l U y j v l j < z y 5 : q j ",
"i i 9 y l y e y < y a y S u < ) < q l a y 9 < < < @ y 5 g y y { ",
"q 5 : a R Y y j 5 : e m #.h m E a j , , y 5 : , @ 3 : i ] j y v ",
"l a : R y y y a v y a r S y m 3 a j 5 v l 5 y / z 5 y a < a 9 S ",
"] { F y * , y a H r . . > r r 3 6 a n ` n n o.U U g i z y y j z ",
"Y 2 i i $ i h q a 0 e 8 7 0 , 3 6 $ 6 u 6 o.U @ y W z 9 a a U U ",
"0 5 : J 8 0 q 5 h p c g  .L 0 7 y < 4 a a ` i U a 5 < 4 4 9 Q 9 ",
"3 V ~ X.i y p p p c r 1 s m 1 ; 5 ` a a 6 @ @ i # : 9 y 2 @ # @ ",
"8 8 N ~ y a r 0 h ) 0 B ~ 0 + 7 4 y v i 4 i y 9 9 i z y < 9 @ 4 ",
": : = i j i r _ r m m m ~ f 7 ; y g i < @ U n 9 9 @ y a i z i g ",
"3 j 8 > H 0 , N s h r 1 B t 7 ; 9 9 e 9 y a z 4 9 a < a y y 9 z ",
"R I q < 0 < # y @.+.0 $ - ; 7 t a < 4 j U a g z a 9 < z 9 < y C ",
"L t 7 r r ! m w _ x f h . 0 ~ , i v g y 3 y 9 U Z 4 z g C z y S ",
"m I I _ 0 l 1 O 1 q m r ; g ; 3 a +.y : l 4 X 9 Z a 4 i U a v z ",
"~ ~ r r 0 & $ : 0 r N 2 r f : 3 9 C v g U 4 : 5 y ` a a j i y a ",
"e O.d + 4 6 q 3 2 r j I h m ] 5 q C v 9 a i 4 U i a ` g : y j 5 ",
"7 7 L r 6 m  .} , , a K U a R / j 5 9 i y a z y w & r 5 i j v e ",
"B t B _ r j 5 h r e h S ] y 5 X.9 : z ` a : C ! 4 $ b b g 9 f N ",
"~ s B r 3 @ $ V < 5 E ) q y a y : y a i a @ 4 i s G H b _ h m N ",
"* + 1 ~ 4 : h #.y y p r 2 j ) p 9 5 z z 4 9 n a u O.p 1 e B h m ",
"w s 6 w m O.B m @.{ q : r R I _ K r s B m u 0 } 0 6 y b 3 * * 0 ",
")  .1 . w O.s 0 | g m E ' r p h I I 5 m K s ; 5 = O 6 0 , % o y ",
"$.w $ ; y r & & c d d h m h y q  .m r 3 3 b m r 0 o e s 5 3 y } ",
"m B  .m h b 0 3 m i c p , 2 q e p 1 s 0 $ , s $ > e , e e q d p ",
", _ %.,   , r r d y S 3 r 6 o $ $ N r s h r t 3 p @.y 5 5 > + > ",
"$ 5 c q & , _ s r p I y 0 $ + : 3 K O.N ) ] )  .y y ~ y , o * y ",
"h p y ] j J p m E d p  .r . r 1 s b G G h I q L 3 + _ E h , * 5 ",
"I E 0 j , r p ] I q a s , 3 b r 0 N O.3 3 , > I v % h I S p < r "
};
