/* XPM */
static char *_1443_403e561d14756043a7e59e626953a2edd17676cb7ec20fab81fe7a35766d1c66[] = {
/* columns rows colors chars-per-pixel */
"64 64 97 2 ",
"   c #645135",
".  c #6B5536",
"X  c #6F5839",
"o  c #725D3E",
"O  c #766242",
"+  c #7B6545",
"@  c #7C674A",
"#  c #7D694A",
"$  c #7F6B52",
"%  c #826C4D",
"&  c #836F51",
"*  c #867152",
"=  c #8A7555",
"-  c #877658",
";  c #8C7759",
":  c #8D795A",
">  c #927D5D",
",  c #897761",
"<  c #8F7D65",
"1  c #947F60",
"2  c #968162",
"3  c #9A8465",
"4  c #9D8867",
"5  c #978368",
"6  c #9C8768",
"7  c #9E8A6B",
"8  c #9D8B71",
"9  c #A28C6D",
"0  c #A4906E",
"q  c #A58F71",
"w  c #A69172",
"e  c #AA9475",
"r  c #AC9976",
"t  c #A6937A",
"y  c #AC9779",
"u  c #AE997A",
"i  c #B29C7D",
"p  c #B4A07F",
"a  c #AE9D82",
"s  c #B59F81",
"d  c #B6A182",
"f  c #BAA485",
"g  c #BCA887",
"h  c #B5A38A",
"j  c #BCA788",
"k  c #BEA98A",
"l  c #BFAD93",
"z  c #C0A987",
"x  c #C0A788",
"c  c #C2AC8D",
"v  c #C3B08E",
"b  c #CAB48F",
"n  c #C5AF90",
"m  c #C6B292",
"M  c #CAB495",
"N  c #CCB896",
"B  c #C7B499",
"V  c #CCB798",
"C  c #CEBA9A",
"Z  c #D1BA96",
"A  c #D2BC9D",
"S  c #CEBCA1",
"D  c #D4BFA0",
"F  c #D4C09F",
"G  c #D9C29E",
"H  c #D5C2A2",
"J  c #DAC4A5",
"K  c #DCC8A7",
"L  c #D7C6A8",
"P  c #DCC7A8",
"I  c #DDC9AA",
"U  c #DECDB2",
"Y  c #E1CBA6",
"T  c #E2CCAD",
"R  c #E6D0AE",
"E  c #E9D1AF",
"W  c #E3CFB0",
"Q  c #E6D2B2",
"!  c #EAD4B5",
"~  c #EAD8B6",
"^  c #E6D3B9",
"/  c #ECD7B8",
"(  c #EDD9BA",
")  c #F0DAB5",
"_  c #F2DCBC",
"`  c #F6E0BF",
"'  c #EDD9C0",
"]  c #F3DFC0",
"[  c #F5E2C2",
"{  c #FAE4C5",
"}  c #FCE8C7",
"|  c #FCE7C8",
" . c #FEEBCC",
".. c #FFF1CF",
"X. c #FFEED1",
"o. c #FFF1D2",
"O. c #FFFCDD",
/* pixels */
"A Z A P Y Z x Z M s q f x A ] Z D R _ E W D i = i i x n c 9 Z A c y x x f Z y x n & s n x s Z n x x D Z Z q n V / _ M 1 x x 1 J ",
"! V T f 9 n y > 9 M x x n x A E X.! x j A x 9 e G D E _ E n D Z M i f 1 f f x x x D x y 1 s q A s x V n x x x 1 x x M x 1 1 1 n ",
"Y T / x 9 i e 1 i y q 1 i s s y x D A i q e y f 1 Z _ A i i x x x y y > n s M f x E E J e s 1 e i P E A s A n 1 x Z J P 1 % > 1 ",
"D A c D G n c q c G n s n M i x n M D A e y s 1 e q A A x q * > x x i i x f 9 9 y s P / x e s s x D D x e Z s 1 1 x M n 1 . % 1 ",
"c i c T x e A s s D J A s Z x x Z x x s 9 f Z s i e V A D A e i i y s n x n 1 y s 1 x x M 1 y P P D J x q 1 1 a 1 > > e x s > x ",
"M y s e e V n s n n A P e D ! x V Y A u q i c D G P Q x n D c i f e n n f M y M B x s x V e y V D x n P E Z x s 1 % e x e i e M ",
"s s n 6 q n s n y M V M n n D M x v V D T M m ] P x x x ! T n f A M P V s n n Z x x n J D A V q i n ! ] A 1 q x s 1 x D s Z A n ",
"i 9 e i i s i q q e n J E V T y 9 c T Y V M A Z M x x s T Y D A Z A P J s A P D x c A D J Z M = q s f x x e x x s x s n s n V i ",
"y ; y M x i y 1 i x M J D x x c ! x G P A A D V m ! n d f A C R y x D ! x D E J x n c ' P A J A P P x x M A T n n e e e s n J s ",
"V s x Z n i > x V M n x x V P D P P T P G ] E q H _ J f c x D Y 1 > c D s Z P A 1 T D s x Z M x E A 1 x V D x 1 A x y e s x V J ",
"Z s n x i f s n M n n n x D P c e x M J P E _ s e T D q 3 s D c y 1 s f x T V P A x s e Z s 1 n P s % 1 x M x y & D J 1 i D E ' ",
"n x n x e x n x J D M n s y x x > 1 i f i 9 Z M c _ P 9 % Z R R Z y M J M D M n 1 1 s s x x 1 1 x e ; e s s i s x T Z 1 M D G ' ",
"y n s n n e n A Z J Z M f s n J x s f y 1 q M V J T _ Z A  .T _ x D A n x 1 1 Z n E T y > s i % 1 ; 1 s x 1 M E E A D J E M x P ",
"y x i f 1 ; G E n T E T J D J P M x i s n ! T M { ! ! 3 P ] A A s n A x e 1 x x n A s 1 q n n x n e i s s > x P D A E x i x J E ",
"A n Z x % > E P D A J J x x A n s x s s Z T E e Y | ! % Y P p > y A G x Z n f M y y f s e f i x M s s x n x x V x s A x x M V M ",
"T M E T x n P ' e ; q n 1 1 c x G ] ] 1 x 1 P = 9 ) M * T I c i A J E e s M A E | x E A n T T G A M x 1 x J D V 1 1 J x x M A J ",
"M M ] P n s x T s d > J d H V H C L a j 1 @ w u * m F 7 H m m 7 i A P Z x Y G Y E Y b Z J ] ' E _ ] x n x Z D V i 1 A M D x A T ",
"] ' J E D D a s y 1 m y m j j m V n s q 5 % 1 e * F J w k v 3 6 y x e G b Y Y G G b Z Z _ | Z n P P D E x n A J D ) x s ! T M M ",
"! / 1 D P / D P = = i W d D m d W j V s q 9 3 ; 6 2 0 g 0 u g j s f 9 x u x Y Z > Z G _ ] f 1 1 x s D E x x x x M M s x A x ! P ",
"Z D q 1 q y n A 9 i d Q m V e 7 m D n t T / m C C F w k p : 0 p n s i : * u G Z 3 z E ) E i 1 1 Z x V D D Z x i s x x x _ n T P ",
"s n M e 1 q V M m = k V u j j s L I k d M H V M F } F F l t u h i s y 1 > z G p b Z ) Y A n J D E x s M P y e n i x Z G ! E D s ",
"1 y M s 1 D ! P m s i c i w e n p I p k D j y V L ~ ~ Q 0 F r t s A y x 9 p E A z G E G e s _ E x J x 1 y e s x x 1 1 b s J x 1 ",
"u V D D s ( / T k d u C V e Q C j V F K B j n a l L F k 8 L 8 h < D J ] Z i Z b r r Z 3 & A x x 1 > > > 1 1 1 x M 1 % = x Z = 1 ",
"= j D A V W Q D P D j V C V H H k m F l i j V 1 l F Q k $ k B 5 a M W M Z i Z b 3 p i + % n s 1 1 1 x i G _ A x e 1 1 = 1 1 1 x ",
"n u T n V ! ( d D V j C C y w j V d ` ~ g r B L B B F B $ @ 8 8 ; t D n n P D D 9 i x y y x n x i x n s A Z x n 1 x E s > > x > ",
"q s y 9 d H T c c j C c j k d k m C K K U N v ..[ h 8 p l $ $ ' t 1 h l n D M s i s Z Y G x s x x s e x M s x x s e x x x y x n ",
"5 x y 9 6 m C L A u k c j u H / F l U Q B a p L ....t U h a a l n s n x M x x 1 1 9 G E E x s x x x % x x y A J s e e i x s x n ",
"& 9 B f 2 j 9 9 / H c i w w o.( d w l F ~ L p 8 B U U B < a a , a D D s M s s x q q P x A Z x x x T = e x s A n Z Y E P n n Z P ",
"q i k e 7 i 6 1 T I L P A d _ j F r C B v v S S l a h h S h , $ t V n x P x x n 1 y P x M J x s 1 x x s x x P x M x M E s y x Y ",
"9 J V A W d d q W d i 9 1 > j m Q L F Q h v < r S U h h l l 8 8 n q , q V s x x x x J x D D x y 1 A E 1 T 1 x E x e 1 x q i n G ",
"f / V J J 9 n c n k j 1 : e k D ~ F ~ [ 8 7 2 8 h a U < $ h h S ^ x > s M 1 M A E D P J D M x x G s E x q > A J M y q x x M G A ",
"J L n D s 2 j s 7 d j c f 9 u m L ~ [ L U v 7 r -   - h a h , a D T s M M 1 x P P M n n x n A E J x 1 1 1 x x M M x s x M M Z T ",
"U } U 8 B p 8 d p k C N L b 0 K ^ U H F B g k L $ $ 8 S L H a t B D x x D M M E n 1 x x A A c ] E M x x E _ x n E n ' M 1 n M ! ",
"8 L L t g g L K v L ~ L T K p b I F V m k C I I j 3 k / l V w 7 D M D T D n M x % Z Z y 9 y Z b G G c s n P x M T G M J D n M E ",
"g F F U U F ~ L i 7 C H u 7 2 * h l k h C S h d : 5 s ^ t u d q n x D ' n y x y 9 D M b e 9 Z x G G x x x b e A T Z 1 A ^ V n ' ",
"F ~ ^ ( F l F F 0 u k b p 4 * 3 d 7 y l B H H h 7 2 B C * 7 s C V D ' ' A 1 s M G ) y % : 9 9 G E Z x G M s 1 P Z V J D D T n P ",
"L ^ S k l U F B k h k r 2 4 3 2 u d p k I C 8 : w U g u k ; 1 L 1 i D ! M y x Z A A p > = 1 > i x x Z E A i x ' { f D C s V s D ",
"h U ~ L l l r g r g 2 * p d r k B k h h k J I k h g H l n j a q s e x J M P ' Z c T Y J c Z Y x q b P E T D Z Z / q u V x s s S ",
"l S L [ U u - 2 l d 0 w p r w r d v v k C A m m C K B C D V D q Z Z A D M D D x w ` i % q x T R b Z Z P Y T x 1 - f P V D M n h ",
"B L S U F r p i 2 g j d v k p u e u k F A A L Q H C d I | D j A i G D J D s 1 x M d j V i > V T Z x 1 Z Z P G T 5 s f q ] D < q ",
"h 8 < U ~ S p p p v J J ~ ~ p ( 6 ; : m m M H I T D c n ^ A B A M x n M c G c Z x A Y n Z x f x F F r p v F N ~ e d L 0 K F L 7 ",
"L h 8 h B S N p v u V K v Q ` Q K 7 2 m A m Y W T D n s Y W / Q J x e 1 9 M x M M y 9 D A A M f r v 2 2 L g - r A H H B U u L ^ ",
"N v v v S S ~ ~ l 2 K Q e J Q K c B g i M i n / D E / s s m ] ] E i q M Z A M _ M n 9 Y E J M ! r 4 2 - Y N r p L J y F ( u B [ ",
"F U L l g L U U u C P K 0 7 k p u m p i T L C W T P Y e y s A x Z 1 1 J ) J M ] E n 1 1 G J M J F 2 r p N U ` L A V * 3 F g l H ",
"O.~ B L L [ N g : C B * o i i x b q e A P E Y A Z i x f M V Z f f 1 q x x G x n Y n 9 1 9 e G J ) p G ~ N L ` L C U L g ^ ~ L B ",
"' L B S S L g 4 7 V : # 2 A | ! f e i M d A D Y n i A Y J V x V y x Z x x A x i n A 1 f e 9 Z x r F F Y F g r p L ~ ..g B L F F ",
"O - r $ - B ~ B d w > 9 p A E E y i f s M T D T e 1 f P T Y M A i i x Z b Z x M x i ; 9 G G b > 0 Y F ~ Q v g g v v ` B v F B B ",
"a - p 5 r p U N p m i F J N E _ G x A D Y Z x s M x V Y Y Y i s Y y 1 e n J A E 9 1 ] c i Z ) ) v L Y ~ v r L p 2 2 v h t k B S ",
"h v h p 2 u F B C R F I C w ( _ W _ W J c & : 1 j A c A J H W A I U v L g Y } F p F F k I Y T ~ F 0 p W 2 j H m i d V k c d V I ",
"S g U ` l r g w e P  .A / ( j V ] P ! T n M ! s 9 m / Q J I ! ! ` ~ F L l k l K L F l u r r L F g 0 2 F k j C Q k j 1 > : * y y ",
"N F ~ L d r r 2 v P U T / c > J / ! ! D V m I T k I H y D J W c v F B F p p r F L F F p 4 2 4 l r w # r j w g v 6 9 = 2 * * k J ",
"` ~ Y U i 4 w 0 j V k Q V d k m I T c u W I M Q H ( n * c _ d 7 _ ~ F v g F k F W g k L l u 2 F 0 4 # 2 u 9 c d : j A y % u m H ",
"..Q l k 0 + 2 O p u V H > w 9 i V L J j A L H J W / P c w Q > j Q O.I L F g h l I r F ~ F u l F k 4 * 2 p u k l ; 2 d j y V V C ",
"~ } k 2 F 4 r p L u k F 6 = + d H C V n C m M d c j V { L d c m r ~ k r B p 4 8 r u g l K 0 F l L l 0 2 F F V H Q i 1 u u j T _ ",
"Q W p p ..B p ` T v u Y A g u u m C c V J s j V M e @ s D : ( T L I 0 2 l L g 2 0 u 2 7 L F u 2 7 p 7 2 i i m m k c V c k J / B ",
"L k F O.` ` p F C k k _ m e c C _ W f c / W P f j j > u V 7 > w F 0 l L F F F g p r 0 l 0 L * - 4 0 p m u * g g e 2 A m d c d p ",
"C w v .. .} m 6 7 9 0 C p + c N j n d c c D c 1 F J # d 0 . w f p 2 F F 0 4 N L g p B p p w g 2 i L Q | M & e d 7 w e : y 7 7 u ",
": p J V J _ m = * 2 O 2 v p m r e H m d W I e 7 l V u w r   u r O $ F ~ F t l N B F H F l L F l A M L I ( ( A d m j j % * * i c ",
"2 r k c ` T u ; = : w w J ( J c n ! V w / J 9 9 J p y 6 r X p l 2 p k L ` F L F L ~ ~ N F ..F F D A A k c k A m j 7 9 q 9 u d k ",
": w u 6 c V m c G v i F J V ` g A V q u ! ( L c g 0 2 * 2 u r 4 l R F F ..~ ~ N H Q [ H F U L Y j w 9 c W m f = > w : # @ A c q ",
"k k k k m M I / A d j W V w H c V I A Q M s T ( V 9 @ : 4 F 7 2 F L F v L L W F B F ~ ~ C g H ( A 3 e f I ( T / j m i 7 6 d e k ",
"C I Y V c A T n d 6 W J B v j [ Q T s D V c L T ( u * e B b 0 g g g F k l F L F g F F L u d V H A 9 = 7 V / ( / D Q D : > 7 u m ",
"P P / I m q L [ A s m C C n L / | I k k c k k j j e w e I B g u p p v L ~ L F 7 d l f 0 8 l m n Q A ; u c D / A D V C c m i u c ",
"c L ! j f 3 V D 7 % n Y c j F A P u m k m A V i 7 7 2 7 W g l l F F F L ~ L g 2 d p g 2 p u d / / n 1 j k H V n V C n c 7 k f j "
};
