/* XPM */
static char *_2132_3a3b96983acf8014d1c240015d86eb9817e4f7c4e7e2e3edcd427b1dd0e29658[] = {
/* columns rows colors chars-per-pixel */
"64 64 249 2 ",
"   c #000100",
".  c #0B0202",
"X  c #000B02",
"o  c #02010A",
"O  c #0B010B",
"+  c #060A0A",
"@  c #150506",
"#  c #020413",
"$  c #0D0113",
"%  c #0A0518",
"&  c #170417",
"*  c #0E1513",
"=  c #270504",
"-  c #380608",
";  c #260517",
":  c #2B1510",
">  c #182818",
",  c #25271D",
"<  c #2F341A",
"1  c #090726",
"2  c #180426",
"3  c #180B35",
"4  c #27052A",
"5  c #290838",
"6  c #370A3B",
"7  c #2E1235",
"8  c #172A2B",
"9  c #2A2829",
"0  c #2C352C",
"q  c #2F2D33",
"w  c #332E31",
"e  c #313135",
"r  c #343837",
"t  c #4B070A",
"y  c #690809",
"u  c #740B0F",
"i  c #52092D",
"p  c #71142D",
"a  c #543E3C",
"s  c #36463A",
"d  c #6D5738",
"f  c #2D0B4A",
"g  c #380945",
"h  c #3B3140",
"j  c #470949",
"k  c #540747",
"l  c #4B144C",
"z  c #480854",
"x  c #590B58",
"c  c #4B1454",
"v  c #55165A",
"b  c #6C0F57",
"n  c #630959",
"m  c #740558",
"M  c #50324E",
"N  c #723B59",
"B  c #5A0766",
"V  c #500D65",
"C  c #5A047A",
"Z  c #66086A",
"A  c #770669",
"S  c #6B0A74",
"D  c #680877",
"F  c #6E047B",
"G  c #740475",
"H  c #7C0375",
"J  c #74037C",
"K  c #7B037C",
"L  c #730A7A",
"P  c #6C1370",
"I  c #691474",
"U  c #364642",
"Y  c #4A4B4C",
"T  c #7B6647",
"R  c #756B4D",
"E  c #585E63",
"W  c #6F6E6F",
"Q  c #8B090A",
"!  c #970705",
"~  c #890914",
"^  c #930E14",
"/  c #A80807",
"(  c #B70608",
")  c #A70B11",
"_  c #B90B18",
"`  c #90052F",
"'  c #A80A28",
"]  c #BA0729",
"[  c #A8073A",
"{  c #BB0336",
"}  c #C90609",
"|  c #D40403",
" . c #DC0302",
".. c #D50A06",
"X. c #D4040B",
"o. c #DC020C",
"O. c #D91101",
"+. c #C80517",
"@. c #D70616",
"#. c #E30202",
"$. c #EB0102",
"%. c #E20B01",
"&. c #E4010B",
"*. c #EB0708",
"=. c #F30301",
"-. c #FC0302",
";. c #F5020C",
":. c #FB070B",
">. c #F4120B",
",. c #E50315",
"<. c #FA0716",
"1. c #C80427",
"2. c #D50524",
"3. c #C50238",
"4. c #F20726",
"5. c #8E084F",
"6. c #9C075A",
"7. c #A40549",
"8. c #B70445",
"9. c #AB0753",
"0. c #87056A",
"q. c #970365",
"w. c #860378",
"e. c #960178",
"r. c #A40069",
"t. c #A50078",
"y. c #8D3074",
"u. c #C60147",
"i. c #816C4D",
"p. c #876D50",
"a. c #867252",
"s. c #8A7555",
"d. c #8B7758",
"f. c #8D7959",
"g. c #927C5D",
"h. c #947F60",
"j. c #AB6D6E",
"k. c #D07D6E",
"l. c #B1914F",
"z. c #968162",
"x. c #9A8464",
"c. c #9C8768",
"v. c #9E896A",
"b. c #998E74",
"n. c #A28C6D",
"m. c #A58F70",
"M. c #B18978",
"N. c #A69172",
"B. c #AA9475",
"V. c #AC9875",
"C. c #AD9778",
"Z. c #AE997A",
"A. c #B29C7D",
"S. c #B7A37A",
"D. c #D1A973",
"F. c #ECAD75",
"G. c #FBD457",
"H. c #FBD56A",
"J. c #F9CB75",
"K. c #F5D978",
"L. c #FDEB70",
"P. c #4E008A",
"I. c #5A0684",
"U. c #690686",
"Y. c #6E028A",
"T. c #750284",
"R. c #7B0284",
"E. c #74038C",
"W. c #7C028A",
"Q. c #790A88",
"!. c #6F138A",
"~. c #6A0395",
"^. c #7C0293",
"/. c #790696",
"(. c #5A00AE",
"). c #6503A8",
"_. c #7A06A5",
"`. c #6D7682",
"'. c #840284",
"]. c #83028C",
"[. c #88058B",
"{. c #920489",
"}. c #87138C",
"|. c #840392",
" X c #880597",
".X c #950698",
"XX c #89348B",
"oX c #8306A2",
"OX c #9904A3",
"+X c #A70AA4",
"@X c #C50CBC",
"#X c #AC7188",
"$X c #B80FCA",
"%X c #898386",
"&X c #A0978F",
"*X c #B59F80",
"=X c #B6A182",
"-X c #BAA485",
";X c #BCA887",
":X c #BDA788",
">X c #BEA98A",
",X c #BEAB92",
"<X c #C2AC8D",
"1X c #D4AE8A",
"2X c #C5AF90",
"3X c #C6B192",
"4X c #CAB495",
"5X c #C9B797",
"6X c #CCB798",
"7X c #CEB99A",
"8X c #D1BB96",
"9X c #D2BC9D",
"0X c #EAB38A",
"qX c #CBBAA1",
"wX c #D4BFA0",
"eX c #E2A4A3",
"rX c #D6C29E",
"tX c #FFD988",
"yX c #FFCE91",
"uX c #FFEE8C",
"iX c #D5C1A2",
"pX c #DAC4A5",
"aX c #DAC7A7",
"sX c #DDC7A8",
"dX c #DDC9AA",
"fX c #C3C3BE",
"gX c #E2CCAD",
"hX c #ECD3AD",
"jX c #E9C7B3",
"kX c #E3CFB0",
"lX c #E6D2B3",
"zX c #EAD4B5",
"xX c #E9D7B7",
"cX c #ECD7B8",
"vX c #EDD9BA",
"bX c #F0DAB5",
"nX c #F2DCBC",
"mX c #FCE7BD",
"MX c #FEF7B7",
"NX c #BFBEC0",
"BX c #CFABD0",
"VX c #CDC7D5",
"CX c #F2DFC0",
"ZX c #FAE6C7",
"AX c #FFF0D1",
"SX c #FEF8D9",
"DX c #FDFAE8",
"FX c #FFFFF1",
"GX c #FFFFFF",
/* pixels */
"9X8X9XsXgX4X<X8X4XA.n.A.-X9XCX8X9XhXcXzXgXsXA.f.A.A.<X2X<Xn.8X9X<XZ.:X:X-X8XM.<X<Xp.Z.2X-XA.8X2X<X<X8X8X9XN.4X2XzXbX4Xm.*X*Xg.wX",
"zX6XgX-Xn.2XM.g.n.4X<XS.4X<X8XjXAXlX<X-X8X*Xn.N.9X9XjXnXlX2X9X8X2XA.-Xh.-X-X<X<X<X9X<XV.n.<XM.8XZ.<X4X2X*X<X-Xn.*X<X<X<Xn.h.n.<X",
"gXgXcX<Xn.*XB.x.A.M.N.n.A.A.-XC.:XpX9XA.m.M.A.=Xn.4XnX9XA.A.<X:X<XZ.Z.g.1XS.<X-X<XzXjXsXn.A.g.C.A.gXjX9XA.wX-Xx.2X6XpXsXh.i.s.g.",
"9X9X<X9XwX<X<Xn.<XpX2XS.2X4XA.-X<X4XpX7XC.C.A.x.n.V.9X9X:Xn.p.g.<X-XA.A.<X-Xn.n.C.C.gXzX<Xn.A.A.<X9X9X<Xm.8XA.n.h.<X1X4Xh.d d n.",
"<XA.<XjX<XB.8X*XA.wXsX8X*X8X2X<X8X;X>XS.n.-X7X=XZ.M.4X9XiX9XC.A.A.C.*X2X*X4Xh.M.*Xn.*X<X4Xh.B.sXgX8XwX2Xn.n.x.C.x.g.g.B.-XA.g.<X",
"4XC.*XB.N.4X4X=X2X<X9XpXB.9XjX<X5XdX9XA.m.A.<X7XrXgXhX;X<XpX<XS.*XB.2X<X*X6XZ.4X4X>XA.-X6XM.Z.8XwXA.2XgXgX4X-X-Xg.p.C.>XM.A.M.8X",
"A.*X2Xc.m.4XA.<XZ.4X6X4X3X<X9X4X;X3X4XpXgX6X4XmXgX;X<X;XzXkX3X-XwX4XgX6X*X2X2X6X>X>X2XpXwX7X4XN.A.4XcXCX8Xh.M.;XA.v.-XwX=X6X8X4X",
"A.n.B.A.A.A.A.N.B.B.3XpXlX6XgXC.N.3XY * e e e e w q e e e e q q q & %XpX*X9XgX9X;X2X9XwXiX9X4Xa.B.A.*X<X*XB.;X;X*XA.*X<X*X4X6XC.",
"Z.d.Z.3X-X*Xm.n.Z.<X3XsXwX<X:X<XhX<Xw                               W kX2XwXlXaX>X2X>XvXgX4XsX8XpXsX*X-X4X9XsX<X3XB.m.B.*X2XiX=X",
"6XZ.<X4X3XC.g.:X8X4X<X<X:X4XdX7XE E p Q Q ~ ~ ^ Q ~ ^ ~ Q Q ~ ^ ^ u a E W 6XpX7Xm.iXiX*X<X9X4X<XkX4Xn.<X7X9X:Xn.7X-Xm.c.-X-X7XaX",
"6X*X2X<XA.*X*X4X4X2X2X4X2X9XgX<Xo   ) :.-.*.;.-.-.<.<.;.%.%.;.;.-.:.~   , gX4XsX9X=XA.B.8X*Xh.<XsX*XT m.-X6X:XZ.a.pXwXx.*X9XkXnX",
"<X<X2X<XA.-X4X*XwXwX4X2XA.B.<X*Xt y ( $. .| |  . .( ( } | %.&.o.| &.} y p 9X4X<Xn.x.=X*XS.M.n.n.-Xm.f.B.*XA.A.A.<XgX8Xm.4XwXwXnX",
"A.<XA.4X1XC.2X9X8XpX9X2X<XA.  @ Q ( }  . . . . .O./ ! ( ..$.$.&. . .%.>.+.    4X<XhXgXC.g.*XZ.i.h.f.h.A.*XM.<XhXzX9XwX9XjX4X<XpX",
"M.<XA.A.h.g.wXhX2XgXjXgXwXwX  = / ( |  . .#.#.#.| / ! ( #.=.$.#.#.=.$.=.X.=   <X2X7XA.n.n.2X<X<X4XB.A.A.<Xh.A.gX9X8XjX<XA.<XwXzX",
"9X<X9X<Xd h.gXgX9X9XpXpX:X:X  = ` / X.#. . .&.#.o.) Q ( &.$. .| #.&. .-.X..   4XB.B.:XA.Z.A.A.2X4XA.-X-X1X*X<X2X<XA.9X<X<X4X8X4X",
"jX2XhXgX<X<XgXnXC.f.m.<Xx.h.  ; p ~ } &.| |  .| } ^ u ' 1.+._ 1.@.*.#. ._ - @ zXZX<XjX8X2XgXgXwX8X2XS.M.-X9X8X<Xn.m.wX2X-X4X9XwX",
"4X4XZXsX2X*X-XkX=X=Xg.pX*XiX  ; I.W.~ ! } &.| ! ~ m Z H '.G F H 1.=.-.#.} ,.@.-   aX4X8XpXZXbXgXnXCX-X2X-X4XpX8XM.m.9X4X9X2X4XgX",
"mXnXwXkXwXwXB.=XB.z.3XC.5X;X. ; I R.` Q } ,.+.) ~ A U.G w.F T.m ] @.@.$...=.,.-   1X8X8XnXAX1X<XgXgXwXjX<X<X8XpX9XjX2XA.bXgX8X4X",
"lXxXv.6XaXvXiXdXs.s.A.kX*XwX  7 0X0Xy.A [ ! ! 0.0.BXGXjXF.F.0X1Xy.m { #. .$.,.-   8XrXnXmXA.n.g.<XA.pXjX<X<X<X<X2X4XA.*X8X<XjXgX",
"6XwXn.c.m.B.4X7Xm.Z.*XkX3X6X  q L.L.XX).0.Q ~ K T.VXGXmXG.G.H.tXXXC 7.&.#.$.@.t   <XhXbXhXA.g.n.8X-X9XrX9X2X<XA.S.<X<X<XnX2XgXpX",
"=X2X4Xm.z.n.6X2X4Xa.<X6XC.;X  < SXDXM   i 0.A 4 2 r 8 &XDXCXtXH.N P.9.&.#.#.@.-   8XnXgX9X4XpX9XhX<XA.1XgXM.C.2XZ.-X8XrXzXjX9XA.",
"x.B.6X-Xc.wXlXaX3X*X*X<XA.B.  0 GXGXr   5 ).B .     o %XGXDXJ.J.XXI.8.=.&. .@.t   rXhX8XC.=XcXhX<XwX<Xh.B.B.-XS.*Xg.m.1XA.pX<Xm.",
"B.5XaX9X-XcXvXgX>X=XC.9X6XB.  < GXGXr o a eXj.    . . %XGXAXJ.F.XXU.[  .&.&...-   V.rXx.a.7X;XA.h.f.f.n.N.z.g.-X4Xm.T p.A.<Xp.N.",
"s.-X9X6X4XkXkXaXaXwX-X7X6X6X  w GXGX9   T MXS.        `.GXDXuXL.y.P.6.$.*.:.*.- X @ *       *Xc.x.g.A.A.4XnX8X<Xn.n.g.i.m.n.x.A.",
"3XZ.gX2X4XzXvX=XwX7X-X7X7XC.  9 ZXmXb.E *XH.F.W W W E ,XAXjXj.j.9.7.] %.o.8.5.:   2 x i j g 4X<XA.2X2XA.8X8X-X2Xg.S.hXA.f.f.S.g.",
"m.*XB.b.-XiXgX2X>X-X7X2X;X;X  < tXtXDXGXSXG.MXGXGXGXGXMXG.0XI.P.' =.$.-.@.0.~.2 X f .X.X/.~.2   <XA.N.<X8XA.2X<XA.M.<X<X<XC.1X4X",
"z.>XC.n.x.3X9XpXwXZ.>X2X:XZ.  9 S.D.kXFXrXl.,XqXNXqXVXqXD.k.0.q.@.%.+.3.[ x V i t i v B U.K k + <X<Xp.-X<XM.9XwXA.N.N.A.<XA.*X4X",
"a.m.4X-Xx.:Xv.b.xXiX>X*XN.N.  .     <XMXR   o   o   o 3 D 5.&.$.=.-.' Q.E.1 X ( >.~   2 {.{.w.Q.6   , A.*XA.8X4X8XgXhXgX2X2X4XgX",
"m.Z.>XB.v.Z.c.z.dXdXiXaXqX=X@ = @ - M.hXp.% > : > > : l ).0.1.@.+.} [ F C @ - _ <.^ @ : m D Q.OXz   9 A.<XA.gX<X2X<X8XjXA.C.<XsX",
"m.aX6XwXkX=X*XN.kX=X*XY   p 4.O.%.@.-   R uXH.yXK.K.yX#XC K H  Xw.e.j X : @.%.X.&.o.>./ X o S  XZ L G O   n.*XhX<Xn.m.2XM.A.2X9X",
"-XvX6XiXaXn.2X2X2X>X>XU   u <.$.;.4.t   R AXyXtXyXtXuX#XB S G |.^.oXz   - 4.:.O.o.@.:.+.X   c I F  XG     f.8X9X2XB.N.*X*X4X9X9X",
"iXaX2XwX*Xz.-X*Xv., , ^ X.| &...| $.} } p 8 8 < , > < > 2 2 & & & + 6 D S +.=.&.&. .=...( } - % B .XZ o   <X<X4X4X<XA.2X8X4X8XgX",
"lXZXgXb.5X=Xn.=X=X  . ' <.:.o...@.&.:.>.Q o           o # o     X   g !.w.2.>.@.o.,. ...<.<.t   j }.b &   cX<X<XzX<XnX4Xm.2X2XzX",
"b.iXiX&X;X>XpXr Y l z b 5.q.r.r.t.6.i - y _ ^ B D n x x x x Z B C B ` @._ y - 5.q.e.6.q.0.0.x x j 2 3 c x a 0 4XgXgX7XwX7X<X3XlX",
"=XiXiXdXdXiXxX  & Q.oX/.Y.I.I._. XI 2   u :.2.|._.oX/.^.[.W.T.Q.W.W.u.-.} @ # V  X_.E./.I.I.^..Xz   % /.}.&   8XgX8Xc.4XlX5X2XCX",
"iXxXlXCXiX,XiX  $ S [.q.u.b f z k l %   u :.+.{ 7.q.7.q./.0.5.9.[ [ 1.;.} @ # g l k j l [ 8.e.|.g   & K Q.2   gX4X8XwX9XqXjX2XaX",
"aXxXqX,X>XkXiX  2 |.t.2.>.u     X o o o u <.&.#.O.%.%.6.(.A %.-.,.+.o.=.} @ X +       - >.-.7.E.g   & L Q.4   nXZX;XiX7X-X5X=XqX",
"=XkXxXaX5X,XN.  % Q.'.7.{ ` j 4 X X o   y *. .,.&.,.*.] q.[  .$.@.X.*.-.} @ X   o 4 f k 8.8.0.Q.j   & L Q.c 4 3XxXN.Z.5X>X*X;XqX",
",X5XfXnXkXZ.f.  & S U.~./.^.oXL $   .   y ;. .o.X.X.&.=.-.$.X.X.#.#.| *.+.@ X     z }.L Z R. X|.j   $ U.'.S Q.6   9 aX5XiX5X2X=X",
"5XiXrXxXiXB.=X  2 K R.H w.I.!.m .   o X ~ :.&.&. . . .X.X.X.o. . .| | #.+.= o o   6 R.H G Y.E./.j   $ L |.R.Q.l   0 -XN.vXqXz.N.",
";Xb.z.dXxXqX;XX &  X}.L '.E..Xm X X o   u -.#.#. .&.$.&...&.$.$. .o.#.$.} @       f oX{.'.E.W. Xj   + D  X[./.z   0 aXm.aXiXaXc.",
"aX;Xb.=X5XqXrXX 7 B D C D S /.S & % % X i 4.@.X._ @.X.o.,.+.+.o.@.2.2.@._ = o 1 + g U.J A S G D j + & B [. X Xj   0 iX5XgXZ.aXxX",
"5X,X,X5XiXiXgXxX<Xo o 2 2 @ o 5 0.L 3 X g [.K A F E.S H e.G H e.w.A S R.A + + P +Xx &   + o #   6 I R.K G U.[.i   0 V.iXvXZ.,XCX",
"qXkXaX,X=XiXgXgXC.    X X +   & }.}.6   k T.I.Y.'.W.U.E.J G T.^.Y.U.R..XD + X L $XZ X X X   X   g }.OX.XG D W.k   e a.z.rX,X,XaX",
"DXvX5XaXdXCXqX=Xz.5X3Xe   7 !.V 1 : ^ / +.@.[ R.|.'.A R.R.G S D U.~.6.2.] / ^ i 1 6 P Z B n m B P Z S J W.|.W.D x M h 9 lXxXiX5X",
"CXaX,XiXqXaX;Xb.c.5Xf.Y   6 @XG   X ' <.| =.2.A ~.~.K '.E.E.J F R.~.7.$.$.-.>.-   6 OX.Xw.T.|. XW.J F J G J ].W.[.n     5XaXiXqX",
"R z.V.R R 5XxX5X=XB.f.m.A.7X2 i ^ ^ o.;.} #.,.] 1.r./.V 4 j ~./.9.3.1. .$.=. ./ ^ p 4 g L W.E.G T.W.W.T.T.G J E.[.n X   5XqX5X5X",
"=XR =Xb.Z.=XdX5XS.3XA.rXpX7XX - <.>. .#. .#.$.&.O.6._.g   & oX.X+.=.$.o.#. .| ;.<.^   1 /.OXR.S G J J T.].W.J Y.[.Z X X b.,X5XqX",
";X;X;X=Xg.=XiX5X7XkXwXdX7XN.  - ,.O. . .#.| %.-.@.k g g f 6 c x _ =.#. . .#.#.#.-.Q     g j L |.R.W.R.J J T.W.J W.B     <X=X6XdX",
"rX;XlXxX>XC.;XN.B.aXZXY   o   - ,.#.$.=.*.}  .-.>.- . 7 +XA X X _ :.%. .$.&.#.$.-.u     X   n OX|.|.'.T.J F J F |.Z     f.p.C.C.",
"5XiXxXaX=XC.V.z.2XsXgXM 4 6 4 i 8.1.] 3.3.{ ' / Q i 5 B [.S f 4 u ^ ) { 3.{ { { u.5.f f 7 5 g l j z B G W.W.G F  XD o   a.a.>XpX",
"ZXxXaXdXS.c.N.        c OX.X^./.[.J U.U.E.[.x o X V .X'.U.D /.}.; X g U.T.F F U.Y.H 0.!.oX}.3       4 S [.].R.Q. XZ     R Z.3XiX",
"ZXxX3X<Xm.T z.  & & 2 B Q.K R.T.T.J T.Y.E..Xx   X m {.W. XE.^.].4   7 Q.].J F E.~.J 0.T.].{.6 $ & & 5 v P F K Z Z v > , A.6X4X9X",
"xXZX<Xz.r   j Q.Q.|.W.W.E.R.|.^.E.w.'.W.E.|.v $ o x /./.{.'.|.|.4   g }.{.'.R.|. XQ.'./.Q.w.J Q.Q.P v 2 & v .Xz o q h.B.Z.:XgXnX",
"lXgXZ.>X0   j Q.S L J S G S S S S S S D Z I c . . x L D F L S v 4 % g I S K U.D S D D D D S I L w.0.c % o l Q.z   s 4X2X<XpXxX3X",
"dX>X7XSXe   o o O + @ O O O O O O O O O & 4 $     & & # $ $ O     X   X O & $ O + O O O O O $ $ & ; # + o &   Y B.z.9X3X=X>X-X*X",
"7XB.3XAXe                       o                                               X                             Y v.N.Z.f.Z.v.v.B.",
"f.A.iX6XpXnX3Xs.a.z.T z.<XA.5XB.B.wX3X=XkXsXB.v.<X6XZ.N.B.d Z.B.T f.5XxX7XZ.3X4X,XrXiXrX<XaX5X,XwX4XaXdXcXxX9X*X3X-X-XT a.s.Z.3X",
"z.B.>X>XmXdXZ.f.d.f.N.N.iXvXpX<X2XlX6XB.cXpXn.v.aX*XZ.v.B.d S.3Xf.;X;XaXCXiXpX6XiXxXkXrX6XAXpXrX9XwX7X>X<X>XwX3X-Xn.m.N.n.Z.=X>X",
"f.N.Z.c.2X5X3X>XiX<XA.wXpX4XZX;XwX5Xm.C.zXvXsX<X-Xm.z.a.z.A.V.x.5XlX5XiXAXvXxX7XiXxXnXiXiXlXaXdX-XN.m.<XkX4X-Xs.h.N.f.T T qX2XN.",
">X;X;X<X3X6XdXvX9X=X-XkX7XN.iX<X6XdX7XzX3X*XgXvX6Xm.T f.z.rXb.z.rXdXrX3XpXaXkXiX5XiXxXvX7X=XiXvX9Xz.B.-XdXvXgXvX-X5X*Xv.x.=XB.;X",
"7XdXdX7X>XwXgX<X=Xc.lXpX4X<X=XZXkXkX*XwX6X>XaXlXnXB.a.C.5X3XN.;X;X;X5X>X<XiXaXrX;XiXiXiXZ.;X6XpXwXv.a.m.5XzXvXzXwXlX7Xf.z.v.Z.3X",
"pXdXvXdX3XN.pXZX7X=X3X6X6X2XpXvXZXdX>X>X2X>X;X-X-XC.N.B.gX3X;XZ.=XA.5XiXxXgX5Xb.=X,X;Xm.b.>X3X,XlX7Xs.*X2XwXxXwXwX6X7X2X3X*XZ.<X",
"3XpXlX:X-Xz.6XwXv.i.2XdX2X;XwXwXaXC.5X>X2XwX6X=Xv.c.z.v.kX;X,X,XiXiXrXiXxXiX>Xz.=X*X;Xf.=XS.-XxXxX2Xh.;X>XiX6X2X6X7X2X<Xv.>X-X;X"
};
