/* XPM */
static char *_3acad6c71994b51b93f84f8ca356d6bIfOEMLRVqgtOepqp[] = {
/* columns rows colors chars-per-pixel */
"32 32 209 2 ",
"   c #000302",
".  c #080606",
"X  c #03050A",
"o  c #130309",
"O  c #09170B",
"+  c #020514",
"@  c #0C0818",
"#  c #160619",
"$  c #161510",
"%  c #330B0C",
"&  c #230A1B",
"*  c #221D14",
"=  c #1C2516",
"-  c #29251C",
";  c #3E371F",
":  c #0A0526",
">  c #1B0726",
",  c #050737",
"<  c #170435",
"1  c #270629",
"2  c #370926",
"3  c #2B0837",
"4  c #38073B",
"5  c #2E1536",
"6  c #331534",
"7  c #2E2A22",
"8  c #2C2728",
"9  c #332E25",
"0  c #373329",
"q  c #363036",
"w  c #490C08",
"e  c #580607",
"r  c #53080B",
"t  c #4E161B",
"y  c #650503",
"u  c #790609",
"i  c #6F0C16",
"p  c #4E0736",
"a  c #7B0021",
"s  c #453C2C",
"d  c #423738",
"f  c #35433D",
"g  c #4C512F",
"h  c #46443B",
"j  c #554B3A",
"k  c #55513C",
"l  c #000547",
"z  c #140A42",
"x  c #28004D",
"c  c #3C0542",
"v  c #380B4B",
"b  c #2B0859",
"n  c #3E0656",
"m  c #363444",
"M  c #32067A",
"N  c #480449",
"B  c #4E194E",
"V  c #490856",
"C  c #56075B",
"Z  c #790C52",
"A  c #4E0667",
"S  c #5C0767",
"D  c #480A74",
"F  c #660769",
"G  c #601360",
"H  c #6D0476",
"J  c #680976",
"K  c #77057B",
"L  c #43504A",
"P  c #5B5243",
"I  c #5E5849",
"U  c #614848",
"Y  c #68564D",
"T  c #645B4C",
"R  c #705E44",
"E  c #586058",
"W  c #6E6A4E",
"Q  c #776A56",
"!  c #764D61",
"~  c #64746C",
"^  c #656979",
"/  c #860809",
"(  c #990508",
")  c #870418",
"_  c #A80706",
"`  c #B90703",
"'  c #B10A19",
"]  c #89042D",
"[  c #9F0225",
"{  c #AF0025",
"}  c #B40427",
"|  c #AC093B",
" . c #C90604",
".. c #DC0202",
"X. c #D9040A",
"o. c #CA0016",
"O. c #D60517",
"+. c #E40000",
"@. c #EC0201",
"#. c #E50907",
"$. c #F30401",
"%. c #FE0201",
"&. c #FF0900",
"*. c #FE0108",
"=. c #F60908",
"-. c #E5081E",
";. c #FA0316",
":. c #CE0438",
">. c #E2073E",
",. c #880B5B",
"<. c #9C025A",
"1. c #B70453",
"2. c #8D0464",
"3. c #8F0470",
"4. c #A60166",
"5. c #A3037A",
"6. c #CA064D",
"7. c #D4024E",
"8. c #EA0648",
"9. c #D5056C",
"0. c #816C4D",
"q. c #877152",
"w. c #8C785A",
"e. c #917B5C",
"r. c #AA4061",
"t. c #997E68",
"y. c #7C8254",
"u. c #8A872E",
"i. c #AEB54D",
"p. c #968262",
"a. c #9A8465",
"s. c #9C8768",
"d. c #9F8969",
"f. c #9C8F74",
"g. c #958F7A",
"h. c #A28C6D",
"j. c #A58F70",
"k. c #A79172",
"l. c #AA9475",
"z. c #AE9778",
"x. c #AE9A7B",
"c. c #B29C7D",
"v. c #98AF6E",
"b. c #EBBF6E",
"n. c #FFE87A",
"m. c #5E0886",
"M. c #6C0487",
"N. c #740282",
"B. c #7A0284",
"V. c #770B83",
"C. c #7B0389",
"Z. c #7C0698",
"A. c #5E248D",
"S. c #6B208E",
"D. c #5803A4",
"F. c #7503A9",
"G. c #79468B",
"H. c #800686",
"J. c #94048E",
"K. c #880595",
"L. c #8B039A",
"P. c #93049E",
"I. c #AB049A",
"U. c #8B298D",
"Y. c #8A05A6",
"T. c #9D04AA",
"R. c #9608BA",
"E. c #A106AD",
"W. c #A605B2",
"Q. c #B608BF",
"!. c #9A61C1",
"~. c #B49F81",
"^. c #B6A082",
"/. c #BAA485",
"(. c #BEA788",
"). c #BDA98A",
"_. c #BAAE98",
"`. c #C2AC8D",
"'. c #C5AF90",
"]. c #C6B193",
"[. c #CAB495",
"{. c #C7B896",
"}. c #CCB798",
"|. c #CEB99B",
" X c #D2BC9D",
".X c #E3BE85",
"XX c #D3BEA0",
"oX c #D5C09F",
"OX c #EEC98A",
"+X c #FFEC8C",
"@X c #D5C2A2",
"#X c #DAC4A5",
"$X c #DCC7A8",
"%X c #DDCAAB",
"&X c #E2CCAD",
"*X c #E6CFB1",
"=X c #E4D2B3",
"-X c #EAD5B6",
";X c #ECD7B6",
":X c #ECD7B8",
">X c #EDDABB",
",X c #FAEBA6",
"<X c #FFF8B8",
"1X c #BCBFC3",
"2X c #BFC3D0",
"3X c #E5E6C1",
"4X c #FCE6C4",
"5X c #FCFBE7",
"6X c #FBFEFF",
/* pixels */
"&X X/.c.c.l.`.&X=X#X}.h.`.&X`.}.`.l.c.[.`.c.c.~.`. X`./.#X[.t.c.",
"#X X/.h.~.`.c.c. X(.j.j.c.&X`.j.c.l.c.l.'.&Xk.j.XX}.c.k.z. Xq.R ",
"(./.`.`.|. X`.}.[.(.z.'.`.[.}.l.z.`.`.z.c.`.~./.&X X`.k.e.z.l.c.",
"l.h.c.^.z. X#X'./.E f L L f L L L `.[. X`. X&X~.z.&X`.c.z.c. X[.",
"k.`.c.h./.[.XX}.g.t r r e r w e e E _.%X'.|.XX X}.k..X'.c.h.`.}.",
"'.`./.`.XX`.`.~.% ..*.$.=.#.$.*.*.) T '.(.^.z.l.l.t.'.z.[.`.`.;X",
"/.c.h.[.*X&X~.$ _ $.+.@.` _ $.%.+.*.y j '.c.h.j.t.z.j.'.;X X`. X",
" X[.h.&X`.`.~.o ) ..+.@._ ) o.o.@.%./ Y  Xc.`.*X Xz.`.'.z.'.`.XX",
"-X;X&X`.s.k.^.# M.[ .. .Z V.K H O.$.=.) Q  X>X&X&X}.}. X`.'.|.XX",
"&Xl.`.`.p.].{.7 OXU.) a !.5Xb..XS.} %.( j <X#Xp.`.&X Xc.[..X&X&X",
"~.c.h.&Xc./.c.0 5Xm V N @ ~ 5Xn.A.} %./ Q &X(.oX[.z.z.z.z./.&X/.",
"c.XX*X:X{.).).q 6XO t.Y   q 6X+XS.{ %.( 9 s j [.t.h.c.`.k.q.e.h.",
"~.c.XX*X`.].^.7 <X1X+X,X2X3X,XG.| $.>.v + V.S P c.(. X`.z.c.h.z.",
"h.j.h.`. X'.).$ g 5Xa.f ^ ^ r.} %.8.M 2 / b E.J U e.`.[.`. X`.[.",
"z. X~.j.$Xf.U / e k y.y.u.! M.7.9.n &  .=.e < T.H d 0.}.`.`.c. X",
"&X&X/.z.f.; ` &.%.u W v.i.y.< x b l } %.%.&.y & E.N j  X(.l.`.#X",
"@X{.~.f.h p 7.6.6.' y # l : 1 < , ,.| ' 6.6.6.2 v c U ~.XX|.).%X",
"|.%X%XI A I.Z D D +  .8.J.K.Z.5.5.;.y , m.A 2.I.X V S P %X[.XXXX",
"%X=X'.P V 9.' :   . _ %.$.:.3.+.@.*.u   X 2 -.5.: N J Y '._.).|.",
"_.3X[.d V Y.L.K     ` %.+.@.$.+.+.&.u   > L.Z.Y.o 3 T.C = ).|.~.",
"~.~.@XT V B.M.H # X [ ;. .O.O.X.O.-.y X 3 C.H H # 1 W.F O |.oX).",
"$X_.XX%XT X @ 1 K @ V C.V.K 3.K N.J.1 5 K.X . . C K.K.C = ~._.@X",
"=X_.%X).x.g 8 J > _ #.2.F.Z.M.m.D.1.#.i z K F F B.C.N.C.G 9 @X@X",
"p.w.~.%Xx.f.oXp ` =.%.@.1.D : Y.:.@.%.$./ 3 Y.K.K N.V.L.K   _.@X",
").{.c./.oX&XQ o &.%.+.&._ , V > #.=...%. .. # K Y.H.K H.H . s.~.",
"-X-Xl.R P d F S <.<.4.i % H L.v w ] 4.<.,.C V > # F P.K.C.  q.'.",
"4X).P B S H W.T.F.F.R.: 1 Q.T.T.+ D R.F.Y.T.W.S N 6 J H.5 T '.-X",
"@X@X$ x S N c c c 4 V # # n N 4 . > N N c c 4 V G o X 4 W /.}.'.",
"j.*XE 7 * 7 9 7 9 9 0 7 9 9 = - - 0 0 0 0 9 9 7 0 s 9 h ~.k.w.k.",
"t.c. X/.s.k.=X|.`.[.&X`.^.e.w.f.^.%X>XoX=X;X&X;X`.`.&X`.f.q.d.).",
"}.].`.-X|.$X].@X&X{.[.:X(.0.).x.{.oX%X#X|.%X).$Xx.e.=X=X|.k.s.x.",
"%X&X/.|.l.(.'.-X%X/.[.[.k.l.oX)./.@X>Xx.x.l.f.$XXXa.|.$X$X'.x.)."
};
