/* XPM */
static char *_589_b8e9d78008a5947f1e8592d59711c67b4bed8c58af0e8c9891c75e52b272813a[] = {
/* columns rows colors chars-per-pixel */
"64 64 251 2 ",
"   c #006C03",
".  c #026B08",
"X  c #007303",
"o  c #017B05",
"O  c #01750A",
"+  c #017B0A",
"@  c #0A7C08",
"#  c #0B7D0A",
"$  c #0C7D0D",
"%  c #6E5738",
"&  c #7B6647",
"*  c #836D4E",
"=  c #8A7556",
"-  c #927C5D",
";  c #947F60",
":  c #028403",
">  c #058905",
",  c #04820B",
"<  c #0B840B",
"1  c #0D8A0C",
"2  c #13840C",
"3  c #118B0C",
"4  c #188B0B",
"5  c #069607",
"6  c #0D9B0C",
"7  c #13930C",
"8  c #1B940E",
"9  c #179B0D",
"0  c #0B8612",
"q  c #158914",
"w  c #0B9315",
"e  c #189511",
"r  c #1C9B12",
"t  c #26980C",
"y  c #278D15",
"u  c #259813",
"i  c #369C15",
"p  c #07A709",
"a  c #15A80B",
"s  c #00B500",
"d  c #02BB02",
"f  c #0CBC02",
"g  c #08B40C",
"h  c #03BC0A",
"j  c #0CBD0B",
"k  c #18BB07",
"l  c #14B30C",
"z  c #15BD0C",
"x  c #1AA811",
"c  c #09B613",
"v  c #1ABC13",
"b  c #24A80D",
"n  c #25BA04",
"m  c #37BA09",
"M  c #27A613",
"N  c #2CAB13",
"B  c #38A816",
"V  c #29B915",
"C  c #38B615",
"Z  c #34BB14",
"A  c #2D962E",
"S  c #3BB12A",
"D  c #479C15",
"F  c #46AB17",
"G  c #4FAE11",
"H  c #46B817",
"J  c #57B81A",
"K  c #66B919",
"L  c #73B91A",
"P  c #4DB52C",
"I  c #69BC28",
"U  c #09C308",
"Y  c #17C709",
"T  c #14C20C",
"R  c #1AC30D",
"E  c #12CD0B",
"W  c #1AD40C",
"Q  c #1BC612",
"!  c #2BC301",
"~  c #26C508",
"^  c #37C707",
"/  c #3CC402",
"(  c #27C713",
")  c #2CC412",
"_  c #34C513",
"`  c #3CC414",
"'  c #36C917",
"]  c #3CCA13",
"[  c #28D411",
"{  c #3BD214",
"}  c #2FC62D",
"|  c #43CA02",
" . c #48C907",
".. c #56CB05",
"X. c #4CD304",
"o. c #57D203",
"O. c #42C415",
"+. c #43CB14",
"@. c #4BCB14",
"#. c #45C718",
"$. c #4CCB1A",
"%. c #54CD14",
"&. c #57C918",
"*. c #5BCE1B",
"=. c #48D416",
"-. c #57D618",
";. c #66CD05",
":. c #78CA07",
">. c #65D300",
",. c #6BD307",
"<. c #72D502",
"1. c #78D706",
"2. c #67CB1A",
"3. c #77C61A",
"4. c #68D518",
"5. c #73D413",
"6. c #79D815",
"7. c #73D41B",
"8. c #7CD51C",
"9. c #7BDA1B",
"0. c #5AE21A",
"q. c #6FE21A",
"w. c #4AC92A",
"e. c #57CA26",
"r. c #5AC935",
"t. c #6BCB2E",
"y. c #77C923",
"u. c #6BD722",
"i. c #76D525",
"p. c #7BD523",
"a. c #66D434",
"s. c #77E222",
"d. c #3B9B44",
"f. c #519E57",
"g. c #50AC44",
"h. c #69B653",
"j. c #6EB268",
"k. c #2FC540",
"l. c #56CB4D",
"z. c #6BD645",
"x. c #6ECB54",
"c. c #78D658",
"v. c #73D270",
"b. c #86BD31",
"n. c #85DA06",
"m. c #8DD312",
"M. c #87DA17",
"N. c #84DA1C",
"B. c #95DB17",
"V. c #A5DE18",
"C. c #8BE308",
"Z. c #98E303",
"A. c #8AE51C",
"S. c #99E216",
"D. c #A7E704",
"F. c #B6ED09",
"G. c #BCF40E",
"H. c #A8E716",
"J. c #B4EB15",
"K. c #81CC20",
"L. c #83D623",
"P. c #83D923",
"I. c #8BDB24",
"U. c #89D928",
"Y. c #92DD24",
"T. c #98DD27",
"R. c #8ADA36",
"E. c #98DB3A",
"W. c #A6DB2A",
"Q. c #97E327",
"!. c #94E632",
"~. c #A6E626",
"^. c #B9EB28",
"/. c #ADE833",
"(. c #C9F718",
"). c #D1F912",
"_. c #E4FA16",
"`. c #CDF22E",
"'. c #EDF130",
"]. c #988364",
"[. c #9A8465",
"{. c #9E896A",
"}. c #9F8E70",
"|. c #A28C6D",
" X c #A58F70",
".X c #A69172",
"XX c #AA9475",
"oX c #AC9778",
"OX c #AE997A",
"+X c #B29C7D",
"@X c #8EDB4D",
"#X c #A2DA48",
"$X c #8DE352",
"%X c #B1E64C",
"&X c #A7E258",
"*X c #8ADA65",
"=X c #8FD36D",
"-X c #88CA7A",
";X c #AEDB6C",
":X c #92E76D",
">X c #A8E365",
",X c #B8E565",
"<X c #B9E675",
"1X c #CAEE56",
"2X c #C9EB69",
"3X c #D0F071",
"4X c #F2F668",
"5X c #B59F80",
"6X c #8DBF83",
"7X c #B6A182",
"8X c #BAA485",
"9X c #BCA887",
"0X c #BDA788",
"qX c #BEA98A",
"wX c #C2AC8D",
"eX c #C5AF90",
"rX c #C6B192",
"tX c #CAB495",
"yX c #C7B897",
"uX c #CCB798",
"iX c #CEB99A",
"pX c #D2BC9D",
"aX c #D5BFA0",
"sX c #94D48F",
"dX c #A7D29C",
"fX c #96E288",
"gX c #B2E790",
"hX c #B6E7AE",
"jX c #D0C09F",
"kX c #C6EB86",
"lX c #D0EF91",
"zX c #E9F595",
"xX c #D5C1A2",
"cX c #DAC3A4",
"vX c #DDC8A9",
"bX c #D2C7B4",
"nX c #E2CCAD",
"mX c #E4CFB0",
"MX c #EAD4B5",
"NX c #EBD6B7",
"BX c #F2DCBD",
"VX c #D0EEB0",
"CX c #F2F9B2",
"ZX c #EFDCC4",
"AX c #D5E9CD",
"SX c #D9EBDF",
"DX c #FBE7C7",
"FX c #F2F8CF",
"GX c #F3F6E9",
"HX c #FAF9F9",
"JX c #FFFDFE",
/* pixels */
"pXiXpXcXnXtX8XpXtX5X X5X8XpXBXpXaXmXBXMXnXcX7X= +XAXhXhXhXhXhXhXhXbXAXSXSXHXXXwXwX* +XtX8X+XuXtXwXwXiXiXpX XtXeXMXBXeX X8X5X- pX",
"MXuXnXwX|.wXOX- |.tX0X5XtX0XpXnXDXMXwX8XtXwXdXc.r. .| m / / | / ! ^ Z J I l.P h.wXpX8XOX|.wX XpXOXwXtXeX8XwX8X|.5XwXeXwX|.; |.wX",
"nXnXMXwX|.5XXX; +XXX X|.+X5X8XXX0XcXpX+Xx.H | >.,.7.:.>.>.1.p.9.6.9.6.5.<.8.s.../ m r.=X|.+X- oX+XcXmXpX+XpXwX; wXtXcXcX; * = - ",
"pXpXwXpXcXeXwX XwXcXeX5XeXtX+X8XtXtXh.r.4.,.L.L.N.5.<XFX<X9.>.6.U.p. .~ +.a.$XB.M.6.,...;.<X+X+XwXpXcXwX XtX+X|.; wXtXtX; % % ; ",
"wX+XwXnXwXXXpX+X+XaXaXuX5XpXwXtXZXS ~ VX1X1.8.R.>X5.CXJXJXFX#Xe.+.| w.dX) ~ k _ @XE.<.5.9.>.#XcXcXpXcXwX|.|.|.XX; - - XXwX+X- 0X",
"tXoX5X X.XtXtX+XeXwXaXnXXXpXBXaXP X.N.N.u.I.I.R.R.,.E.VXSXSXCX:X! Y e.:X$.@.^ ' fX} c.3X9.p.>.B.cX8XrXcXnXtX8X8X; * XXwX+X+XXXpX",
"+X8XwX|. XtX+XeX+XtXuXtXeXeXaXh.^ 2.a.R g ^ p.7.2.7.5.5.4.1.>.1.*X:Xe./ +.#.&.*.+.f -XlX1.<.i.n.D.>XMXBXiX[. X8X+X; 0XpX5XtXpXeX",
"+X|.XX+X+X+X+X.XXXXXtXaXmXuX=X .R } l.s R ( ( ^ ,.+.^ o.<.!.FX%XE.3XE.8.7.$.) ` =.4.! n >X1Xn.p.m.:.| J =XXX0X8X8X8X5XeX5XtXiXoX",
"+X= oXtX8X5X.X{.oXwXtXcXaXx.k s s d w.sX#.) U 4.Q.&.#.) ~ } v.} d | 6.Y.I.4.[ ~ ) ) %.o.*X3XJ.3.,.P.7.| n %.cXwXeXXXXXXX5XeXaX5X",
"uXOX0XtXtXOX- 8XuXtXwX-XC | v.l.x.} ' w.T d ) P.2.e.4.6.4.,.[ R Q Q V ( Q x l k v V @.8.8.,.n./.&Xp.5.L.N.| ,.{.iX0XoX; 8X0XpXcX",
"iX5XeXwX+X5X5XtXtXeXr.w.! e.JXJXJXz.s d j T $.@.( +.4.&.G G F y 8 B J H p + # < + r [ [ @.i.*X2XGX&X/ h @.,X%XZ.* cXcX; +XaXnXBX",
"eX8XeXeXOX8XtX5XaXn a.;X#.^ VXFX) d j j ( =.( z ] =.v , O + + + , F 3.G + 0 2 < < < 5 a h Q HXCX'.`.8. .s k R.<.#XnXiX XtXpXaXBX",
"+XeX+XeXeXXXeXaX!  .w.] @.O.k f d U ) =.R 9 b R W p , 2 < + + + + r F e.H q O < 2 < < < 1 s Q !.Z.H.I.B.,Xl.Q p.n.;XaXaXMXtX0XcX",
"oXwX+X5X; - aX/ | $.+.@.$.( U d s Y -.V i K ' E 6 # 1 + + M K 3.G D L J.(.S.F , < < < 1 $ $ 5 ) Q.N.8.,.lXCXN.4.:.n.nX8XoXwXcXMX",
"pXwXpXwX& ; e.! ! $.&.&.( j f _ fXl.7 w P +.W Y v > O t S._._.(.B.3.N.A.S.J.9.v p p 2 @ 2 2 + + K.).N.p.@.n._.B.y.1.1X0X8XeXpXtX",
"nXtXmXnX8Xz.! c.v.$.@.~ j T f ( lXh.5 Q U Y ~ T a 0 t K.m.G i N Z x V ' ] ' B ` { [ f w < a 7 O + E._.N.2._ Z.).L.5.V.eX0XtXpXcX",
"tXtXDXaXeX ...<XJXz.f R _ j R j | 4.=.` R T p t O F i.1 . . 5 $.y.&.V C $.$.#.H 4.7.=.T a v Y 7 . u `.J.i.` 4.S.H.N.;.I.aXwXtXnX",
"BXBXaXmXg.o.m.N.!.p.T ) _ @.R ) #.^ _ R Y a . y q i i . u &.0.0.s.9.-.=.$.$.=.=.] @.4.( U p c l , + &.~.7.+.~.N.4.H.i.<.VXnXtXtX",
"NXNX|.W...&X>X6.m.7.U ) 7.Y.( %.^ h U T Y p D F O : M B 2.2.C M M M M M V +.#.$.$.` -.i.` +.l N q X u !.p.U L./.v 9.L.>.1X0XMXnX",
"iXpX|...D.3XkXM.i.j z 7.I.$.' 6.z v Q R g + `.L 0 $.2.F r , , > o + 4 F F @.-.$.$.6 + '.~.7.' -.L X o e.4.h z B.6.5.i.,X%XeXnXcX",
"5XeX-Xn V.m.:.P.T h &.&.4.' %.+.h Q Q T p 2.3.i K 7 + + o < a a 1 + G ).(.Q.A.#.=.Z . D `.4.-.~ H.u . i -.d _ B.S.S.N.@Xm.mXaX5X",
"[.OX..:XCXZ.8._ d f R ! 4.] 5.U z R T R 4.S.$ 0 4 , < , + < 3 < 1 1 0 u G K 7.A.-.=.r . J 7.+.&.J.K O $ V E $.2.%.H.M.7.>.%X8X|.",
"oXtX4.i.>X8.P.T U c.x.` ~ ' @.h R T j Z U.u w < , , < r V N 0 0 1 q 1 + O O 0 G M.q.Z + < *.=.p.).:.0 2.w g _ 4.4.1.I.p.:.%X= .X",
"= 8X2...1.L.I.^ d hXJX6X: ) T R R Y 5 i B.V e @ < u ` 0.4.M , 3 1 1 1 1 3 1 < O 4 H =.e O Z A.*.3.V.u 7.4 6 E 8.&.%.Y.p.C.b.; +X",
"tXOX| 7.Y.L.Y.*.d V HXHXS g j R R g r I.M.3.8 + 6 ' 0.@.7 + 3 0 3 1 1 3 1 1 3 3 o < -.Z O 6 ~.~.$ K.H U 6 0 d +.p.5.B.i.C.E.5X- ",
"}.5X .o.N.L.N.L.[ > -XJXlXf j R U V y.H r 2 $ 7 U =.I.3 + 1 3 3 1 3 1 1 < # , 0 X F A.7.u X 4.~.6 $ M E a 1 T ~ Y.7.8.8...N.wXtX",
"; wXm / 7.6.<.m.$.s m 7.H.@.h T a 8.F x 1 5 p Q U -.F O 1 1 3 3 1 1 1 1 3 e r , O M Q.-.` O B u.( 0 5 W 6 7 E T 9.@.o.kXFXT.uXtX",
"*  X .4.6.#XHXVX .d j k ;.( E p J I x _ e v Q T E C 2 , 1 1 0 3 q 1 , u -.-.-._ p 3 9.=.Q 1 t 4.[ u + k l a Q p ..i.i.#XgXm.2XnX",
"XXOX<.7.,.>XJXCXn.T ' ) v z Y 6 y 1 8 C ' T Q T p t.J + , 1 4 3 > , + x { _ $.-.Q 6 M =.-.r 2 &.' N . a W l o d.3X^.R.>.<.,.E.vX",
" XcXo.*.Y.%.( M.1Xa. .V V T l < + , x u ' T T T C y.8 o 8 L 8 + 2 M e 6 5 , z b e T , H 9.M 4 B M M O l W a   f.CXZ.i.3XJ...3.pX",
"8XMX .e.R.&.o.F.<Xc...G N.c 7 # 1 3 7 p E Q j T p.F + O L K.O 3 Z [ 6 O # + a 5 + W 6 K s.V t.F C B + v Q Q p b H.5.i.>XM.#X%XiX",
"cXn.^ 2.B.H.F.F.Z.6.m.m.2.5 < 3 1 1 2 x Q R j 4.P.3 + q B.t O N W =.K + , < w x + 1 1 &.9.6.~.C #.H   7 U v U =.V.7.%.>.7.%X1XnX",
"mXX.' S.J.F.J.^.J. .Z.H.q O 0 3 3 o 2 N.{ h T s.8.o O J m.. 7 { ) p.`.6.] B : v *.q O ..).H.n._ ] B . 7 Q 6 c p.Q.X.x.>X5.1.Q.NX",
"}.| @.G.G.J.H.zX%X$XzXD O 3 3 3 < r r K.=.h j -.J o O 3.(.F ] ] ^ L.J 4.H 7 ( 7.`.N o @XzXB.&X' *.F C l E 5 ` Y.2.^ c.>X6.C.m.MX",
"7X*.^ Z.F.J.F.^.S.3XdXO > 3 3 3 + Z C J { U k +.u + + 3.A.(.-.@.) ] 2 6 5 O 2.A.-.> t FXlXzXhXf %.*.Q.=.U x y.7.o.H.<.C.'.W.>.3X",
"aXt.^ kX`.D.H.F.F.6.4 X 3 < 1 3 @ b C k T T T { r o < C #.*.&.@.+.Y x + l l a g 5 r ,.%XzXGXS Y n ' Q.$.j J L.] 4.H.S.'.'.T.>.<X",
"bX8.^ sX,XD.F.D.F...q A 1 , 1 3 < 7 R U z Q T _ r o < V +.#.$.8 M =.Y 6 + w 5 + 6 ! ^ lXFX} f $.U 4.P.[ M K [ #.M.2.3X4X'.5.<.2X",
"7XF X.| n.G.D.^.FXc.> h.< < 1 3 < 1 R R R R T ' y , O J q.j =.C o M =.=.N u t a ^ c.VXlXB s _ j V Q.B 1 e l d n.`.Y.`._.zXgX..;X",
"qXx.>.A.A.Z.2XHXFXzXAXA . o 3 3 < 3 R R R R R ' 8 < + F (.Q j -._ 7 N -.-.=.+.$XAXCX1X@ 5 Y W p G !.7 . 6 U Q N.<Xx.X.Z.>X>X/ =X",
"bXzX/ ,.S.C.1XFXzXHXJXd.g.P : 1 < 3 z Y T T R ] 3 O 2 O m.G.) ~ s.6.%.@.$.@.` c.c.C.n.p T v g 1 Q.H o @ p Q T.6.c h ;.2X8.,.>.,X",
"aXVX .%.(.H.D.Z.E.>Xw.: h.d.: 1 1 @ g v 1 a Q ] +.7 , o 3 (.).%.%.7.5.,.4.4.4.o.^ @.V g 1 < O J p.+ o 9 ' 7.(.+.h ..CXFXB.n.F.[.",
"vXSXK.4.T.m.2X`.n...U p X   o 3 < 3 V 6 . a E ] -.+.< < O M ).).6.| ! Y  .D.3.B 7 , o < + O F i.q o # Z -.S.6.! Z.CXFXN.5.<.2XMX",
"rXtXh.| 7.B.^.^.n.!.l.o o j.h.o , 8 -.7 O 7 T _ %.-.u + 2 O B H._.1X&XR.%X^.m x N M 3 O , J i.8 o o x +.4.U./ E.FXCX5.<.5.i.yXDX",
"aXbXy.^ M.F.F.S.5.&XsX: X VXVXX > < #.` o < p { 9.+.] 7 + @ O 9 -.lXJXJXJXSXe.X.@.r < u I 2.V , < e ] =.2.6.#XHXFXn.,.U.<./.rXiX",
"GXZXtX..N.S.F.S.L.i.U T 1 2 3 < 1 + M 0.b . > u.T.7.-.' p 6 # O 5 a a.gXhXVXz.^ @.Z Z u.*.V b 8 e 7 O.-.H H 2X3XS.P.P.7.1.NXcXyX",
"BXjXrXD.4.M.G.M.i.U.@.U 6 X , 3 1 + M u.=.7 x 4.p.T.8.7.-.( x N 8 1 : 5 ~ ^ $.$.$.-.0.=.-.=.N r + r $.=.[ 2.+.n ;.2XE.;.E.vXjXjX",
"& - XX;.] n.F.Z.,.7.U.l A y > 2 3 , u J Z =.+.+.%.L.I.I.Y.7.' M Z ' Z N Z ] #.#.#.` Z M M e < o O M q.&.5 m R *.U.U.7.,.qXxXyXyX",
"+X= 7X2.R &XFXCXzX/.B.$.w e l 3 @ w + 2.B V u.@.] @.p.U.I.P.L.&.B B b x 1 0 1 t N H J F 1 + , o 3 ( 4.i   l -.T.P.8.o.7X5XqXyXpX",
"7XqX9X7X^ r.1XCXHX1XZ.6.d > a z 3 2 o N ;.d.-X| $.' @.4.N.2.1 F 2.y.i.;.@X-XZ P.P.P.i.J 4 O < V O.) V   -Xz.X.Y.R.1.B.wXwX+XiXmX",
"jX9XmXBXt.U | 1.Z.F.).H.7.~ 5 U s @ < X 2.i.O C 0.#.@.] ^ s.&.. O 4 B J J C M t u q < , r Z @.H 3 5 > @ HXhX! 6.R.>.,X- - * oXoX",
"yXjXNXvX7Xm ~ ^ ] | n.S.!.VXl.:XsX  > o 0 Q.F + ' -.O.H =.^ *.O.x 3 X O X X : > x C ` ` O.C r w > < o X -X*X!  .k *X= ].* = qXcX",
"DXNXvXvXOX].e.! ] *X@X5.p.<XE.1X;Xp s 5 $ y N o q #.=.r A r o M Z O.O.O.C ` a.u.] M 8 4 < < 6 x 3 o 3 B | %.u.^ -X7XpXXX* OXrXjX",
"DXmXrXwX X& ].x.! AXCX:.P.<.9.5...gXFXhX#X>   X j.A a =.B 5 5 > O # t V ^ w.dXt.G 8 : a R k 9 j.A G U.!.Q.M. .sX= ].7X9XoXuXyXpX",
"NXDXwX[.yX[.oX+X-X] } &.Q.P.L.9.5.kXCXlX/.U A A q # o > Z =.} } z a o   p a > 9 #.{ W d 5 q @ $ , 7.~.R.5.| j.aXMX+X; OXOX9XnXBX",
"MXnXOXwXDXyX+XDXvX=Xs k %.p.U.p.P.N.<.1.%.d fXGXZ , O $ o h.FXj.5 p S 6X) E E T p p a fXj.O 7 B J p.A.M./ sXrXrX9XqXyXwXqXcXNXrX",
"vXwXiXFXDXDX+XpXiX8X*XY f %.I.~.V.2.*.*.%.R ! z.:Xr.sXHXq X q O y $ dXAX> 5 7 > o X X j.f.+ 4 i.^.^.p.X.x.= 0X8XXX].pXrX8XwX8X+X",
"iXXXtXDXDXDXrX[.{.}.dXn k k 2.7.2.#.' ( k T f ! SXSX:X*X! p 5 o y y q < : > : : < 4 : . I c.V.I.$.M. .S tX= .X7X{..XOX- oX{.{.oX",
"].+XcXyXvXBXrX= * ].& =X<.k g ~ +.e.^ h Q ) U k -.a.! k z.gX&.n > o b n ' =.n | ;.E.C / 6.o.6.u.1.B.-XvXNXNXaX5XtX8X8X& * = OXrX",
"]. XqXwXBXmXoX= = - .XXXaXD.^ d j Q _ s v.fXd T / X.@. .fXgX/ $X:XV ! a.SXkXlXzXlXVXkXE.U.R.t.N.D.2XaXqXqXqXaXtX8X{.}..X}.OX8X9X",
"=  XOX{.rXyXtXeXcXwXOXjXcXpX1XS.o.! ,.*.c c T d T @.@.e.gXe.k gXGXh f gXFX<XJXJXJXJXJXHXJXJXgX1.^..X}.qXmXtX8X= ; .X- & & pXeX}.",
"qX9X9XqXtXtXvXNXpX7X9XnXuX.XaXeXuXvXH.Z.C.! s k.} d #._ f ` ) d Q $.p.i.@X-.kXJXJXJXJXJXHXVX1.~.iX].oX8XvXBXvXNX8XyX5X{.[.7XXXqX",
"jXvXvXiXwXpXvXeX7X{.mXcXtXeX0XZXmXmX7X;X:.Z...&X*Xd ~ ) f h j +.4.Y.U.o.sXl.k 2.@X&X>X%XZ.C.%XvXpX}.= {.yXNXBXNXxXmXpX- ; {.OXeX",
"vXvXNXvXtX}.xXDXiX7XtXiXuXrXcXNXDXvX9XqXqXqX2XH.D.n.1.n.1.>.1.D.Z.Z.Z.Z.C.C.<.>.1.C.n.Z./.wXqXqXMXiX= OXeXpXNXaXaXuXiXqXtX5XOXwX",
"wXcXMXqX8X[.uXaX{.* wXnXwX8XaXxXvXOXtXqXrXaXuX+X{.{.1X^.`.`.`.1X1X1X1X3X1X3X4X3X3XkXzX- 5X5X9XNXNXrX].8XqXxXuXeXuXuXeXqX{.qX8XqX"
};
