/* XPM */
static char *_417e73b6eb044d2c073a40aff54a736ebWjlv18VONhKMJs[] = {
/* columns rows colors chars-per-pixel */
"32 32 229 2 ",
"   c #005705",
".  c #006907",
"X  c #017304",
"o  c #01740A",
"O  c #047708",
"+  c #017B0A",
"@  c #0B7D0B",
"#  c #0E7C16",
"$  c #137F1B",
"%  c #786242",
"&  c #897354",
"*  c #917B5C",
"=  c #018402",
"-  c #088706",
";  c #02820B",
":  c #0A840B",
">  c #028B0A",
",  c #0D8A0D",
"<  c #128C0D",
"1  c #1A880B",
"2  c #029302",
"3  c #039B02",
"4  c #03940B",
"5  c #0A990C",
"6  c #18970A",
"7  c #139B0D",
"8  c #1C8617",
"9  c #0A9212",
"0  c #1C9415",
"q  c #27880C",
"w  c #26960A",
"e  c #3B9C0C",
"r  c #278A15",
"t  c #279812",
"y  c #3B9A12",
"u  c #09A809",
"i  c #18A607",
"p  c #02BB02",
"a  c #09BA07",
"s  c #15B607",
"d  c #0FB816",
"f  c #14B817",
"g  c #25A70D",
"h  c #32AB0E",
"j  c #27BA0D",
"k  c #39B10F",
"l  c #25A714",
"z  c #37A515",
"x  c #29B814",
"c  c #3AB717",
"v  c #35BD14",
"b  c #1A8327",
"n  c #329231",
"m  c #38A926",
"M  c #33B233",
"N  c #439D09",
"B  c #46A916",
"V  c #57A614",
"C  c #47B919",
"Z  c #55B71A",
"A  c #6CA71D",
"S  c #43973E",
"D  c #729C32",
"F  c #46AC28",
"G  c #67BE35",
"H  c #07C609",
"J  c #18C50A",
"K  c #1AD409",
"L  c #17C312",
"P  c #25C403",
"I  c #28C609",
"U  c #39C80A",
"Y  c #37D10D",
"T  c #2CC612",
"R  c #25C814",
"E  c #34C514",
"W  c #3BC817",
"Q  c #36D613",
"!  c #39C824",
"~  c #2FC93B",
"^  c #44C901",
"/  c #44C90B",
"(  c #53CA08",
")  c #4BD309",
"_  c #5CD200",
"`  c #45C912",
"'  c #48C718",
"]  c #57C818",
"[  c #47D517",
"{  c #5AD517",
"}  c #69CD07",
"|  c #67D408",
" . c #78D80A",
".. c #64CC16",
"X. c #76C318",
"o. c #66D718",
"O. c #6AD41A",
"+. c #76D718",
"@. c #7CD61A",
"#. c #7AE002",
"$. c #6CE71D",
"%. c #77E81B",
"&. c #49CB2C",
"*. c #53C92A",
"=. c #5BD821",
"-. c #47CA3B",
";. c #56C837",
":. c #57D63B",
">. c #6ECE2E",
",. c #66D623",
"<. c #76D426",
"1. c #68CA35",
"2. c #78D43E",
"3. c #7AE426",
"4. c #3D8A50",
"5. c #4FB247",
"6. c #7BBC59",
"7. c #5B9963",
"8. c #75B068",
"9. c #43C842",
"0. c #4ECF4B",
"q. c #6EC94B",
"w. c #6CD34A",
"e. c #76D348",
"r. c #7CCA55",
"t. c #6ECC68",
"y. c #71E066",
"u. c #82DA0A",
"i. c #8BC716",
"p. c #91CC18",
"a. c #87D81A",
"s. c #95D71A",
"d. c #8EE101",
"f. c #9DE800",
"g. c #87E318",
"h. c #95E516",
"j. c #90F11F",
"k. c #B2EA10",
"l. c #91CD2C",
"z. c #87D825",
"x. c #92DA26",
"c. c #83DE36",
"v. c #9ADD3A",
"b. c #A5D62F",
"n. c #89E723",
"m. c #98E627",
"M. c #96E23A",
"N. c #A4E528",
"B. c #B6ED26",
"V. c #A6E53A",
"C. c #B8EA39",
"Z. c #D0FA0B",
"A. c #D4F92D",
"S. c #CBEE31",
"D. c #E7F43B",
"F. c #869A55",
"G. c #9DA852",
"H. c #8FB154",
"J. c #9B8767",
"K. c #929260",
"L. c #A18B6C",
"P. c #A48F70",
"I. c #A69171",
"U. c #AA9575",
"Y. c #AD9A78",
"T. c #B29D7E",
"R. c #89AD60",
"E. c #92B76B",
"W. c #A7B776",
"Q. c #8BDB48",
"!. c #95DB47",
"~. c #8ECC57",
"^. c #83D458",
"/. c #A8D94A",
"(. c #B4DA50",
"). c #95E751",
"_. c #B6EA46",
"`. c #B1E84B",
"'. c #92CD6F",
"]. c #B6CB66",
"[. c #A9C874",
"{. c #85E462",
"}. c #B0E76B",
"|. c #A7EA78",
" X c #CBEE54",
".X c #E7FF4B",
"XX c #C6D16A",
"oX c #C0CD7B",
"OX c #C9D778",
"+X c #E9F26D",
"@X c #B59F80",
"#X c #B8A583",
"$X c #BAA485",
"%X c #BEA889",
"&X c #C2AC8D",
"*X c #C4B68F",
"=X c #C6B292",
"-X c #CBB495",
";X c #CDB798",
":X c #CEB99A",
">X c #D2BC9C",
",X c #D4BFA2",
"<X c #88C48A",
"1X c #AECF91",
"2X c #C9CD83",
"3X c #D4C39D",
"4X c #D9F588",
"5X c #D4EF97",
"6X c #E8F988",
"7X c #C3CDA9",
"8X c #D4C2A3",
"9X c #DAC4A5",
"0X c #DBC9A6",
"qX c #DDC9AA",
"wX c #D9CFB6",
"eX c #E2CCAD",
"rX c #E4CFB0",
"tX c #E6D5B5",
"yX c #EAD5B6",
"uX c #C6EEA7",
"iX c #CAF4A8",
"pX c #DEFBA6",
"aX c #F4FBAD",
"sX c #E8FBB7",
"dX c #DDF4D0",
"fX c #F1F4C9",
"gX c #FFFDD6",
"hX c #FFF1ED",
"jX c #FEFEF8",
/* pixels */
"eX>X$XT.T.U.&XeXtX9X*XR.~.e.e.^.^.[.1X~.#XT.T.&X&X>X&X$X9X-XL.Y.",
"9X>X$XL.T.&XT.T.>XE.>... .!.<._ _ U ^ ,.....H.I.>X;XT.I.U.>X& % ",
"%X$X&X&X:X>X&X,Xr.o.x.x.z.fXhXQ.E 0.W *.e.M. .l.3X3X#XI.* U.I.$X",
"U.L.T.@XY.3X0XR.s &.I { ..^ 3.}.Q.z.{ [ ! w.`.u.u.[.W.@XU.T.>X&X",
"U.$X$XJ.#X#X1.-.-.-.d Y <.) o.:.U o.' s P ) V.b.e.( ( W.T.L.&X;X",
"=X=X$X$X[.*.=.dXt.p J E [ C 1 X 6 c + . , s T pX+X/ ' z.*X&X&XyX",
"#X@XJ.[.P ,.W s p x B R p . 1 V y p.p.1 o . ; &.Z.a.)...a.>X&X>X",
":X-XK.;.w.U p L ^.g T K > y i.p.] ..j.' j 4 : X X.B.<.k.u.].$X9X",
"yXyX1.v.}.H R R ] Y p + t B q W ,.x x ' 3.Q p 2 + B.o.%.u.+.3X>X",
"qXH.x._.^ E <.] J H i A t z c g 6 C ,.{ i X.n.E + z { ]  .c.OXeX",
"@Xe._.O.p P o.U H J ] Z 0 O + > + B p.%.W r z.%.A o L [ h.a.(.%X",
"Y.<.C.j 0.1Xs J p c z.o o E k : < + + q o.4 5 n.h.B 5 ` @. .z.J.",
"Y.( u._ x hXq.H f Z V + Q o., : < , ; . 1 o.< @.z v 4 j +.@.x.U.",
"J./ v.4Xs x ,.a Z C 4 H Q r o , @ , W h t 3.7 c x 4 a d ..Q./.qX",
"T...e.uX2.a J u @ l R H C 1 t 8 ; 4 x W u v v w z 5 p n `.m.+.[.",
"oX{ +.d.N.u.k ; O 6 H [ Z : V : [ z X ; 4 h u.] t > d c m.<.M.XX",
"q. .Z.A.`.!.@ @ : Z R [ t e i.s $.s.7 ] B y .X<.k 0 u ] +.1.u.OX",
"H.<.A.k.C.n o : 6 ' J R : t j.{ I 4 > ' 3 ~.jX-.^ $.x ..{ A.k.Q.",
"[.&.V.A.!., : : < J H R @ t [ g i j 7 > 9.4Xq.p { Z 7 ) V.D.S.q.",
"7X^ d.6XjX<X8 : : J K T @ q h.Q c { ` :.4X1.3 s <.o u $.E v.V.<.",
"wX..h.S.M.M 8 : 5 i 4 Q c . V Z.g.^ | ..i 2 o Z t > %._ w.5X .].",
"wX;.u.k.c.9 S 5.- k X x %.u   N _.iXsX' - O Z c X E #.2XaX} a.9X",
"rX~.d.f.+.R 0 r + ' i z m.+.j + 9 t.|.=.U [ =., , [ ` Q.v.+.].3X",
"J.D +.6X X' > = + z *.[ ] N.n.' c i 3 v O.] , X x ] 3 ) a.c.%X8X",
"&X&XW |. Xf.c f > X G *./ [ +.C y Z F t Z B q l i b <Xo. .G.J.T.",
"yXyXK.p { C./.|.5.8 e - C [ g < < g y F i , j x o 8 Q.U 6.J.& &X",
"fX&X* F.y.e.a.u.).sXF b $ 2 m M u 6 W :.E f 3 # m m.| '.@XY.&XyX",
">X,XyX9X%Xa E N.m.@.Y y.8.7.m 5.5 8.5 2 O M 4.w h. .6.%X%X#X;X*X",
"I.rXgXI.% E.H I ] s L P |.{.;.6 $ m l w y w Z %.n.^.%X@XT.I.* P.",
"* T.,X#XL.Y.2X..j U ~ p s ` {.{.-.W pXgXjXfX5X@.(.%XrX%XL.& J.%X",
">X=X&XtX>X9X;X3X0X/.} *.! P p j { @.1.{.uXsX5X(.@X* rXrX:XI.J.@X",
"qXrX#X>XU.%X*XyXeX%X=XXXl.x.x.h.S.C./.z.v.b.G.eX,X* >XqX9X=XU.%X"
};
