/* XPM */
static char *ca7db30d002d4b19cf40af01a6d2b2a8lpMcWzH0AYiC3DGA[] = {
/* columns rows colors chars-per-pixel */
"64 64 237 2 ",
"   c #1A0C10",
".  c #250D1A",
"X  c #2B1119",
"o  c #2B1918",
"O  c #351A1B",
"+  c #382915",
"@  c #3A1725",
"#  c #3E2121",
"$  c #44181B",
"%  c #463509",
"&  c #451B2B",
"*  c #472626",
"=  c #53272A",
"-  c #56302D",
";  c #65352C",
":  c #682B38",
">  c #673433",
",  c #76373B",
"<  c #514B08",
"1  c #6C530F",
"2  c #5F6000",
"3  c #736E00",
"4  c #6A4B34",
"5  c #7A4732",
"6  c #6F1E44",
"7  c #742645",
"8  c #7D3641",
"9  c #7A3A41",
"0  c #6C544B",
"q  c #7C6747",
"w  c #7F6B52",
"e  c #883C3E",
"r  c #8F7010",
"t  c #8A463E",
"y  c #884D38",
"u  c #954A3D",
"i  c #915231",
"p  c #A85A3D",
"a  c #AC613E",
"s  c #B6673B",
"d  c #B77234",
"f  c #C85B3D",
"g  c #C8702F",
"h  c #DD7C2B",
"j  c #C7663D",
"k  c #D66B3D",
"l  c #D97A37",
"z  c #D5703C",
"x  c #DC733E",
"c  c #E07C2D",
"v  c #E4793A",
"b  c #843B42",
"n  c #893B46",
"m  c #8F354E",
"M  c #943B47",
"N  c #A23D4A",
"B  c #8C4343",
"V  c #894546",
"C  c #934B43",
"Z  c #96484A",
"A  c #974B4B",
"S  c #995447",
"D  c #A44849",
"F  c #A85945",
"G  c #B65D49",
"H  c #A75154",
"J  c #826C4D",
"K  c #9F6047",
"L  c #836F52",
"P  c #867152",
"I  c #8A7555",
"U  c #877658",
"Y  c #8C7759",
"T  c #8D795A",
"R  c #927C5D",
"E  c #AC6548",
"W  c #B26344",
"Q  c #B86845",
"!  c #BB694C",
"~  c #8D7B63",
"^  c #947F60",
"/  c #CC5F49",
"(  c #C86943",
")  c #D66C42",
"_  c #DA6C43",
"`  c #D66648",
"'  c #C77341",
"]  c #DB7242",
"[  c #DB7647",
"{  c #CE6F54",
"}  c #E27444",
"|  c #EC754F",
" . c #E7794B",
".. c #8D8D02",
"X. c #B18C10",
"o. c #B5A70F",
"O. c #B7B700",
"+. c #BC9225",
"@. c #D39910",
"#. c #E8960C",
"$. c #CDAB0C",
"%. c #F4AB01",
"&. c #E4B206",
"*. c #F7BA05",
"=. c #F6A91C",
"-. c #FAB817",
";. c #D8892C",
":. c #EB952A",
">. c #F59A2A",
",. c #E88438",
"<. c #F3893B",
"1. c #F89839",
"2. c #FA9A3C",
"3. c #D7B126",
"4. c #F8A528",
"5. c #FBB327",
"6. c #FDA536",
"7. c #D3CB0B",
"8. c #F5C503",
"9. c #F9C706",
"0. c #FBCB01",
"q. c #ECD205",
"w. c #F4D302",
"e. c #FBD401",
"r. c #FBDB00",
"t. c #FBD608",
"y. c #F3CC13",
"u. c #FBE401",
"i. c #FBEB01",
"p. c #F9E906",
"a. c #F7F402",
"s. c #FBF401",
"d. c #F6FC01",
"f. c #FBFD01",
"g. c #FDFE0B",
"h. c #F4E510",
"j. c #FCFE14",
"k. c #FCFF1A",
"l. c #D9C220",
"z. c #FEC528",
"x. c #F9D228",
"c. c #FFFF24",
"v. c #F8F929",
"b. c #F8E934",
"n. c #FDFD34",
"m. c #F8F939",
"M. c #929158",
"N. c #968163",
"B. c #9B8465",
"V. c #9C8767",
"C. c #9C8769",
"Z. c #9E8A6B",
"A. c #9D8B71",
"S. c #A28C6D",
"D. c #A4906F",
"F. c #A58F71",
"G. c #A69172",
"H. c #AA9475",
"J. c #A89578",
"K. c #AC9779",
"L. c #AE997A",
"P. c #B29C7D",
"I. c #B3A07F",
"U. c #EB8643",
"Y. c #F78847",
"T. c #FA9444",
"R. c #FC9847",
"E. c #FC8855",
"W. c #FFAA4A",
"Q. c #FFAB53",
"!. c #FFDF48",
"~. c #F5EA4B",
"^. c #FBF946",
"/. c #FEFF4C",
"(. c #FAFD58",
"). c #FBFD67",
"_. c #F3E675",
"`. c #FCFE79",
"'. c #AE9D82",
"]. c #B59E81",
"[. c #B6A182",
"{. c #BAA485",
"}. c #B7A589",
"|. c #BCA788",
" X c #BEA98A",
".X c #BFAD93",
"XX c #C2AC8D",
"oX c #C4B18E",
"OX c #C5AF90",
"+X c #C6B292",
"@X c #CAB495",
"#X c #C8B698",
"$X c #CCB798",
"%X c #CDB99A",
"&X c #D2BC9D",
"*X c #CDBBA1",
"=X c #D4BEA1",
"-X c #D4C19E",
";X c #F6E785",
":X c #FCFD85",
">X c #FDFE8B",
",X c #FCFC94",
"<X c #F7F89A",
"1X c #FAFA9C",
"2X c #D5C2A2",
"3X c #DAC4A5",
"4X c #DAC7A8",
"5X c #DCC7A8",
"6X c #DDC9AA",
"7X c #DECDB2",
"8X c #E2CCAC",
"9X c #E7D0AE",
"0X c #E3CFB0",
"qX c #E5D2B2",
"wX c #EAD4B5",
"eX c #E6D5B8",
"rX c #ECD7B8",
"tX c #EED9BA",
"yX c #F2DCBC",
"uX c #F7EBAC",
"iX c #F9FAA3",
"pX c #F8F9A7",
"aX c #F9FAB9",
"sX c #EDD9C0",
"dX c #F3DFC0",
"fX c #F5E2C2",
"gX c #FAE4C5",
"hX c #FCE7C8",
"jX c #FDEBCC",
"kX c #FAFDC7",
"lX c #FAF6D7",
"zX c #FEFDDD",
"xX c #FAFBE8",
"cX c #F9FAF5",
"vX c #F9F7FD",
"bX c #F7FAFF",
"nX c #F9FAFE",
/* pixels */
"&X%X&X3X8X@X{.$X@XP.S.P.{.&XyX&X&X9XyX9X8X=XP.I P.P.XXOXXXS.&X@XOXP.XX{.P.&XH.XXOXJ P.OXI.P.@X@XXXXX@X&X&XH.@X@X9XyXOXF.].].R =X",
"wX$X8XXXS.XXP.R S.@XXXP.@XXX&X9XjX9XXXXX$XXXS.H.3X=X9XyX9XOX&X&XOXP.{.^ XXI.|.XXXX&X{.P.S.XXF.=XP.XX@XXX{.{.P.F.P.XXXXXXS.^ S.XX",
"8X8XwXXXS.P.H.R P.H.H.S.P.P.P.H.XX&X&XP.F.H.K.{.^ @XyX&XK.P.{.XXXXP.H.R @XP.OX{.XXwX8X8XF.P.^ H.P.3X9X&XP.&X{.^ OX$X=X8XS.J I R ",
"&X&XXX&X3XOXOXF.OX3XOXP.OX@XP.|.XXoX8X&XH.K.P.^ H.H.&X&XXXF.P R XXI.P.P.XX{.S.S.K.H.8XrXXXS.P.P.{.&X3XXXH.&XP.F.! XX$X@XR 4 4 S.",
"XXP.XX8XXXH.&XP.P.=X3X&XP.&XXXXX%XXXXXP.S.{.#X[.P.H.@X-X-X&XK.P.P.H.P.XXI.OXE L.[.S.P.XX@XR K.3X8X&X3XOXF.S.^ P.S.R R H.XXP.R XX",
"@XK.].F.H.@X@XP.OXXX=X5XH.3X9X{.@X8X@XL.F.P.XX=X3X3X9XI.XX&XXX].I.H.oXXX{.&XP.$X+XXXP.{.$XH.K.$X3XP.OX3X8X@X{.{.R J H.XXH.P.H.@X",
"P.].OXS.F.@XP.OXP.@X@X@XOXOX3X@X{.oX@X3X8X@X X8X3Xr @.o.$.O.O.O.$.O.X.o.1 XXXXOXXXXXOX8X-X&X#XF.P.@XwXyX@X^ H.|.L.S.XX&XP.%X%X@X",
"P.S.H.P.P.P.P.F.H.H.OX3X9X@X9XH.S.XX8X&X% ......N.^.).>X:X:X>X:X>X>X`.j.q.....r r XX&X&X&X&X$XI H.P.P.@X{.H.{.{.P.L.].OXP.OX%XK.",
"P.I P.@XXXP.H.^ H.|.@X3X=X|.|.XXeX X< 2 l.(.).>XzXzXnXnXvXvXvXvXnXnXxX(.m./.^.f.f.X..XtX3X&X4X%X3X3X{.].@X$X6XOXOXH.F.H.P.XX&X{.",
"@XK.XX@XOXK.R XX&X@XXXXXXX@X5X&X6X% v.j.).vXnXnXnXnXnXbXvXvXxXcXcXcXaX<XpXuXiXv.g.p.f.$. X%X#XXXqX$XV.XX$X=XOX! $XXXF.^ {.XX%X3X",
"@XP.OXXXP.I.P.@X@XOXOXOXOX&X8XXX+ n.,XzXnXvXvXnXnXbXbXvXvXxX<X<X<XiX1XiX<X<X<X,X1Xm.f.g.+.[.V.XX8XP.q F.|.$XXXP.P &X=XS.].&X9XyX",
"OXXXXXXXP.{.@XI.3X=X@XOXP.P.1 t.m.zXcXbXnXnXvXvXnXnXaX1XuXiX,X1X<X<X1XiX<X<XiXiXpX>X,X(.p.y.3.V.].F.T K.P.].P.P.XX8X&XF.$X&X&XyX",
"P.OXP.OXOXH.OX&X&X3X&XoXXX3 b.:XkXnXvXvXnXnXcXaXaX/.k.j.g.k.c.v.c.c.c.k.(.aXpX<X<XiXpXpX(.f.f.l.S.I ^ P.{.H.OX9X9X&X=X3X9X@XXX3X",
"H.XXP.P.R T 3X9XXX8X8X2X3 (.kXvXvXvXnXnXvX1Xm.k.v.s.0.;.X.d X.X.X.@.@.e.g.m.n.1XaX<X<XpX1X(.f.f.7.S.P.].{.R P.8X=X&X8X|.P.XX3X9X",
"&XOX&X|.J R 8X3X&X&X-X< v.xXvXvXvXvXcXaX>Xg.i.&.@.@.f M 7 6 7 6 6 n N g #.&.q.(.).,XaX<XpXiXm.a.g.$.].{.@XP.{.@X|.P.&XXX{.@X&X@X",
"9X@X9X9XXXOX8XyXK.T + c.xXvXvXvXvXkX).f.s.w.;.N : 7 b B Z B B B V n n 7 7 F f #.r.(.:X,XpXiX<Xv.g.j.@.F.{.3X&XOX^ H.=X@X|.@X&X=X",
"@X@XdX8XXX].|.8XL.< k.zXnXcXcXnXkXf.s.e.:.u e m M M V B V t V t V n t B n n e p f y.f.v.iXiX1XpXm.d.g.+.[.%X2X$XK.S.&X@X&XXX@X8X",
"yXyX3X9X=X=XK.].< v.>XbXbXvXnXaXg.0.;.! D e b B Z S 2XJ.|. XB.V.H. XJ.; { E E p S j -.u.n.iXiXaX^.d.s.-.' .X-X3X&X9XXXP.rX8X$X@X",
"wXyXS.$X5XrX=X< b.,XvXvXcXnXbX).e.c M b Z H , I B.N.D.|.Z.P.|.|.].{.G.XX+ o + Q { F / =.s.m.aXpX<Xm.f.p.-.z XXXXoX+XP.{.&XXXwX8X",
"$X&X^ S.F.H.XXr /.cXbXnXbXaX).x.:.D , N : - +X$X%X&XG.|.[.T D.I.OX].P.T P L.-X- 4 p / ( *.f.(.pXlX(.f.s.0.W.XXL.[.XXXXXXyXOX8X3X",
"[.oX#XG.^ S.@Xo.>XvXvXvXkXj.r.;.D e N 0 $X3X#X+X#XhX4X2X XJ.J.'.].P.K.^ N.XX-XI.XX* Q ! ` -.a.(.:Xv.f.s.t.5.4 XXP.I.$X&XwX9X=XP.",
"N.K.#X[.S.&X$.(.xXbXvXnXv.f.:.N 8 C ,  X=X XJ.%X4XeXrXqXJ.*XJ.'.].=XH.OXB.I.9X-XI.-X- E G ] -.s.d.a.d.f.d.0.W.> I.R D.@XP.3X{.S.",
"K.@X3X-X X$.d.`.bXnXbXpXg.#.M 8 Z : %X6X@X X+XP.+X4X2X XZ.4X'.'.^ =X=XdX-XI.-XoXH.L.-Xo ! } T.*.p.d.d.d.a.w.4.E.= F.J J P.XXK K.",
"I {.-X%XXX7./.lXnXnXbXc.p.;.m Z V +X2XXXP. X#XN..X*XqX Xw  X.XN.'.@X0X$X@XK.%X%XM.I.L.q + { } <.-.i.d.f.a.8.0.2.$ B.R J H.B.B.P.",
"+XL.8XXXr a.(.lXbXbXkXg.=.p n , #X[.fXeX}.J.#X4X#X-X-X.Xw 0 '.A.Y J.=X@X.X5X=X3XS.P.I.H.P.; _ R.2.y.f.d.f.p.e.;.f = wXP.R E |.N.",
"D.[.H.F.t.f.`.cXbXlXv.f.;.m A > +X%X6X6X7X#X.XkXfX XA.'..X0 w tXF.~ ].OXOX=X$XK.P.P.-X8X3XI.E.<.E.5.a.a.d.f.e.l | s XXXXI.P.XX@X",
"B. XK.G.&.d.iXnXcX:Xa.=.E n , O -X.X0X0X#XI.}.4XjXlX'.4X'.'.'.*X#X]..X|.@X@XXXF.S.B.&X9X9XoXi k  .=.u.a.d.f.r.h | i H.P.XXP.I.@X",
"P S.#X|.8.f.iXnXxX(.a.l m A O tXI.G.#X#XtX2X'.A.*X7X7X.X'.'.'.w '.*X=X].@XK.H.].S.S.8XoX&X@XI.f E.5.w.a.d.f.e.h | i 9X8XoXoX@X8X",
"G.L..XJ.h.d.1XvXxX).s.,.M Z @  X#XI.-X.X.XoX.X2X.X'.}.}.*X'.w w '.=X$X].5X{.|.@XF.H.3XP.@X=XOXj T.R.>.w.d.f.e.h | i @X9XP.K.XX8X",
"S.2X#X&.d.d.1XnXcX).w.d n H * OXqX3X-X7X X.XN.J.*X7X}.}..X.X~ '..X^ ~ F.@XP.OXXXXXP.3XXX&X&XXX' T.R.4.r.d.f.r.h | _ ; oXH.P.OX&X",
"{.tX#Xp.f.s.1XnXpXh.>.E Z * XX=XtX2XeXfXM.D.M.A.'.'.7XN.w '.'.*XeX|.~ ].OXJ.OX&X9X&X8X&X=X$X{. Xs Q.4.r.f.f.e.c ` | i P.P.@X&X&X",
"4X4XoXt.f.f.iXnX:Xq.} G Z   L.@X4XeXaX4X7X.XA.J.N.4 w }.'..Xw .X*X8X].OXOX! ].5X8X@XOXOXOXOX%X6Xi Q.4.w.u.f.t.c _ } e OX=X@X$X8X",
"qXjX0Xt.d.d.:XcX`.q.f W S X H.6XeX7X2X2X%X}. X4Xw w A.%X2X2X'.J.*X=X{.|.=X@X@X9XoXN.{.XX&X&XoXyXp Q.4.8.8.g.r.;.`  .5 #XS.oX+XwX",
"A.2X=Xt.f.d.).jX(.8.k G Z o I.@X6X&X#X+X|.#X7X6X|.C. XeXOX#XG.Z.=X@X&X8X=X@X$X{.K @X&XH.V.H.&X@Xr Q.5.0.0.f.w.l ` } 5 3X&X X+XqX",
"}.*X=Xt.f.d.(.aX/.w.( G D o R P [..X X}.%X%X}.[.T C.'.tXJ.'.[.A.OX{.=XsXXX'.{.P.S.-X$XoXH.D.@XI.i z.u.p.w.s.5._ ] [ 5 %XwX$XOXrX",
"2XeXqX6.9.s.j.j.f.y.` W S X P B.{.A.J..X#X2X2X}.Z.N.#X%XL Z.].%X$X&XsXgX$X{ P.@X3XtXH.J R V.S.3Xi 5.i.a.8.w.2.} _  .5 &X&X0XOX7X",
"4XeX%XW.9.a.f.f.f.y.` E A X Z.R L.[.I.}.5X%XZ.T A.7X|.I.|.Y ^ 5XF.K.&XwX@X].XX@X-X&XI.N.J B.R L.C x.f.i.0.8.,.` [ [ 5 %X[.#X[.=X",
"}.7XeXU.9.f.f.a.f.q.f W S X K.XX#X X X}..X4X6X}.[.}.2X.XOX|.'.G.H.H.oX3X@X=XdX$XoX9X9X&XoX%X8XXXr /.`.~.0.e.l ` } U.5 #X X].}.%X",
".X*X4Xj *.i.a.f.f.y._ W S   G.K.[.oX.X X%X&X@XoX&X4X#X%X=X$X=XF.@X@X&X&X@X%X=X{.H.yXI.J D.XX8X9Xr ^.xX;X8.-.l ` ] ' , +X3X#X.X[.",
"#X2X%Xs 0.0.h.f.f.h.2.W Z # I.L.J.K. X-X&X%X3XqX2X%X[.6XgX3X|.&XP.-X3X3X&XL.S.XX@XI.I.@XL.R &X8Xr /.aX/.8.1.} x ! F > G.tX%XN.G.",
" XA.M.E y.9.p.f.f.a.8.s n A # wXC.U T +X+X#X3X3X3X3XXXOXwX&X@X&X@XXXXXoXoX-XXX&XoX&X8XoX@XXXI.&.f.pXkXi.8.2.} _ j F > A.5X2X4XC.",
"3X XA.[.g 9.a.f.f.d.a.[ m A * qX3XS.N.+X&X+X8XqX8X3XXXP.8X9XwX9X8XXXH.B.S.oXI.@X@XH.B.-X&X&X@X8.n.nXuX0.*.l ) } [ 4 2X#X6XL.4XeX",
".X.X.X#X` y.r.p.d.f.f.2.G A X 6XXX#X|.P.@XP.XXrX&X9XyXP.{.@XyXdX9XH.D.oX&X&X@XyX@XXXF.8X9X3X@X&.:XnXuX*.4.k ] ( E = K.=XeXI.#XsX",
"2X7X2X.XG :.*.p.f.d.g.5.] S > P.L.oXI.P.8X4X&X8X8X3X8XH.H.P.&XXX$XR S.-XyX3XoXyX9XoXR B.&X8X1 q.iXxXm.*.| _ ] s H = P B.-X X.X2X",
"zXsX#X2Xp ` 1.p.f.d.f.p.v / G = @XS.H.&X3XwX8X&X&XH.XXP.@X$X$XXXI.D.H.I.oX3XoX@X9XXXS.R S.F.f.n.xX,Xu.4.` ) } p H > 2X}.eXeX4X#X",
"fX2X.X-X5 ( | 4.r.f.d.f.<.` / ; I.H.P.@X[.&X&X8XoXP.-X9X8XoXXX@XP.I.@XXXI.&XI.P.oX&XS.P.H.< n.nXnX~.%. .k _ ] u 0 # kX}..X4X2X2X",
"q U L.w U y ` >.0.w.d.f.5. .} ` e P.P.I.@X8X&X8XH.^ I.3X8X8X+X&XP.P.XX@X@X@XI.@XI.P.E F.< c.iXnX`.u.:.` _ x G D O XXaX.XoX-X#X#X",
"'.U '.A.J.S } Y.5.u.f.d.w.6.} k } i &X3X8X#XXXI.@XXX@X8X3X8XP.].8XH.R H.XX9X3X9XH.B.yX+ h.g.nXnX(.*.U.k v [ u H O R #X}.J.}.#X*X",
"}. X X[.N.L.K E.Y.z.u.f.s.6.Y.,.[ ( ; 5XOXL T N. X%XXX&X3X2X0X=X6X6X+X3X{.8XhX=X{.%X% $.f.kXcX_.z.<._ x [ ' H = P.[.#XXXXX[.#X6X",
"-X X7XtXXXK. Xy } T.-.r.f.y.T.Y.,.U.[ 4 OXOXwXP.S.+XwXwX3X6XwXwXyXrX-X6XXXXXOX8X6X+ q.f.aXnX_.*.:.` k } j u - qXXX{.N.R T L K.L.",
"#X-XtX4XI.K.H.# { _  .=.p.u.-.6.R.R.U.U.5 = 6X6X|.6X2XH.&X3X0XXX@X-XoX&XP.I.H.% 2 l./.pXnX_.%.<.` k } Q C A {.OXV.S.Y N.P I  X3X",
"fXrX4X6XP.V.G.0 0 G k U.4.q.r.8.1.R.R.,.E.E.y + + # +XP XXyX].S.yXqX-XoX< + < ~./.,XnXnX;X%.,.` _ } s u n > XX[.T {.&XJ.J L.+X-X",
"hXwXoXXXD.q N.q ].F a ` Y.y.0.e.9.T.T.R.W.,.x  .| E.@ .XJ.qXI  XqXkX6Xr g.u.g.cXcXnXnXpX*.<.k _ } ( C B , [. XXXY N.[.{.K.#X@X&X",
"wXhX XN.@XB.K.I.4X@ F F z 1.6.5.t.9.T.T.2.T.1.T.T.Y.@.$.$.$.$.$.$.7.O.~.,X).`.nXnX`.v.z.1.] k ] ' u Z , -X&X%X2XwXP.N.L.L. X8XyX",
"qX8X[.|.jX%XI.hX6X+X0 C W ] | U.5.5.9.6.T.T.R.6.9.p.g.f.g.f.c.>X:X:X`.iXkXlXaX(.b.5.#.h _ _ [ ' S H , T [.P.+X+X|.XX#XXX X4XrX+X",
"8X X%XzXhXyXI.%X%X|.XX0 C ( s ( | U.-.6.R.R.R.1.-.y.u.f.f.f.j.).).(.).^.b.~.m.e.#.h ` / ] ] ( y D , I.+XP.P  X{.H.N.&X+X[. X{.I.",
"%XH.oXjXjXjX+XB.Z.S.D.#XI.u K F s j U.Y.,.U.1.R.R.Y.4.y.p.s.i.i.a.s.u.9.%.#.#.v ` k _ z ' Q u C 9 5XqXhX+XL H.[.Z.G.K.Y K.Z.Z.H.",
"R [.2X#X3XyX+XI P N.q N.XXI.V B E F ` k z ) v R.T.T.Y.Y.4.8.*.*.*.*.>.E. .` ` x x x ] ( F p e A =X+X4X6XtXtX&X[.@X{.{.w P I P.oX",
"N.H. XXXyX9XL.I U Y G.G.2XyX4X: V t p p Q _ ) z ) x z x k z z z z z z z _ _ _ x _ W F S e b & %X&X=X&X XXX X=X+X{.S.S.G.S.L.{. X",
"Y G.P.B.oX#X+XXX3XXXP.-X3X%XyX X%X: B n e p s p a a a a F F G p F F a a F a a s u B u b @ qX4X3X XG.S.XX8X@X{.I R G.T q q %XoXS.",
" X|.|. X+X#X6XtX&X]. X8X#XG.2XXX$X6X: : 9 A C C C B t t t t t t t t t V C C C C V 7 > * %X{.2XtX&XB.H.{.8XtX8XtX{.#XP.Z.B.[.H. X",
"&X6X8X#XXX&X8XXX].S.qX4X@XXX{.fX0X0X].=X= 8 : 7 : n B V n n M t B B n Z e : : : 9 O &X3XL.[.$X2X&XZ.I Z.#XwXtXwX2XqX&XT N.Z.L.OX",
"3X6XtX6X+XG.3XfX&X].+X%X&X+X4XtXhX6X|.|..XX X . X , n e b 8 8 b , b b n : . X X o #X|.D.D..XoX.XqX%XY L.XX&XrX&X=X#X&XXX+XP.L. X",
"oX3XwX{.{.B.#X&XZ.J XX6XXX{.&X2X5XK.@XOXOX=X#X].V.@ @ @ @ @ @ @ @ @ @ &   =X+XC.[.P.{.N.I.L.|.wXtX+XN.{. X3X$X+X$X%XOX XZ.XX{. X"
};
