/* XPM */
static char *_99d7e2167a144d9d1126be720dcc577Oi2mqDgXTvErtnQz[] = {
/* columns rows colors chars-per-pixel */
"64 64 236 2 ",
"   c #1A0C10",
".  c #250D1A",
"X  c #2B1119",
"o  c #2B1918",
"O  c #351A1B",
"+  c #382915",
"@  c #3A1725",
"#  c #44181B",
"$  c #463509",
"%  c #451B2B",
"&  c #472626",
"*  c #53272A",
"=  c #56302D",
"-  c #65352C",
";  c #682B38",
":  c #673433",
">  c #76373B",
",  c #514B08",
"<  c #6C530F",
"1  c #5F6000",
"2  c #736E00",
"3  c #6B4E35",
"4  c #7A4732",
"5  c #6F1E44",
"6  c #742645",
"7  c #7D3641",
"8  c #7A3A41",
"9  c #6C544B",
"0  c #7C6748",
"q  c #7F6B52",
"w  c #883C3E",
"e  c #8F7010",
"r  c #8A463E",
"t  c #884D38",
"y  c #954A3D",
"u  c #915231",
"i  c #A85A3D",
"p  c #AC613E",
"a  c #B6673B",
"s  c #B77234",
"d  c #C85B3D",
"f  c #C8702F",
"g  c #DD7C2B",
"h  c #C7663D",
"j  c #D66B3D",
"k  c #D97A37",
"l  c #D5703C",
"z  c #DC733E",
"x  c #E07C2D",
"c  c #E4793A",
"v  c #873B44",
"b  c #8F354E",
"n  c #943B47",
"m  c #A23D4A",
"M  c #8C4343",
"N  c #894546",
"B  c #934B43",
"V  c #96484A",
"C  c #974B4B",
"Z  c #995447",
"A  c #A44849",
"S  c #A85945",
"D  c #B65D49",
"F  c #A75154",
"G  c #826C4D",
"H  c #9F6047",
"J  c #836E52",
"K  c #867152",
"L  c #8A7555",
"P  c #8B7759",
"I  c #8D795A",
"U  c #927C5D",
"Y  c #AC6548",
"T  c #B26344",
"R  c #B86845",
"E  c #BB694C",
"W  c #8D7B63",
"Q  c #947F60",
"!  c #CC5F49",
"~  c #C86943",
"^  c #D66C42",
"/  c #DA6C43",
"(  c #D66648",
")  c #C77341",
"_  c #DB7242",
"`  c #DB7647",
"'  c #CE6F54",
"]  c #E27444",
"[  c #EC754F",
"{  c #E7794B",
"}  c #8D8D02",
"|  c #B18C10",
" . c #B5A70F",
".. c #B7B700",
"X. c #BC9225",
"o. c #D39910",
"O. c #E8960C",
"+. c #CDAB0C",
"@. c #F4AB01",
"#. c #E4B206",
"$. c #F7BA05",
"%. c #F6A91C",
"&. c #FAB817",
"*. c #D8892C",
"=. c #EB952A",
"-. c #F59A2A",
";. c #E88438",
":. c #F3893B",
">. c #F9993A",
",. c #D7B126",
"<. c #F8A528",
"1. c #FBB327",
"2. c #FDA536",
"3. c #D3CB0B",
"4. c #F5C503",
"5. c #F9C706",
"6. c #FBCB01",
"7. c #ECD205",
"8. c #FBD401",
"9. c #F8D505",
"0. c #FBDB00",
"q. c #F3CC13",
"w. c #FBE401",
"e. c #FBEB01",
"r. c #F9E906",
"t. c #F7F402",
"y. c #FBF401",
"u. c #F6FC01",
"i. c #FBFD01",
"p. c #FDFE0B",
"a. c #F4E510",
"s. c #FCFE14",
"d. c #FCFF1A",
"f. c #D9C220",
"g. c #FEC528",
"h. c #F9D228",
"j. c #FFFF24",
"k. c #F8F929",
"l. c #F8E934",
"z. c #FDFD34",
"x. c #F8F939",
"c. c #929158",
"v. c #968263",
"b. c #9A8465",
"n. c #9B8667",
"m. c #9B8769",
"M. c #9E8A6B",
"N. c #9D8B71",
"B. c #A28D6D",
"V. c #A4906F",
"C. c #A58F71",
"Z. c #A69172",
"A. c #AA9475",
"S. c #A89578",
"D. c #AC9779",
"F. c #AE997A",
"G. c #B29C7D",
"H. c #B4A07F",
"J. c #EB8643",
"K. c #F78847",
"L. c #FA9444",
"P. c #FC9847",
"I. c #FC8855",
"U. c #FFAA4A",
"Y. c #FFAB53",
"T. c #FFDF48",
"R. c #F5EA4B",
"E. c #FBF946",
"W. c #FEFF4C",
"Q. c #FAFD58",
"!. c #FBFD67",
"~. c #F3E675",
"^. c #FCFE79",
"/. c #AE9D82",
"(. c #B59E81",
"). c #B6A283",
"_. c #BAA485",
"`. c #B6A48A",
"'. c #BCA789",
"]. c #BDA98A",
"[. c #BFAD93",
"{. c #C2AC8D",
"}. c #C6B28E",
"|. c #C4AE91",
" X c #C6B292",
".X c #CAB495",
"XX c #C9B697",
"oX c #CBB799",
"OX c #CDBA9A",
"+X c #D1BB96",
"@X c #D2BC9D",
"#X c #CEBCA1",
"$X c #D4BEA1",
"%X c #D6C19E",
"&X c #F6E785",
"*X c #FCFD85",
"=X c #FDFE8B",
"-X c #FCFC94",
";X c #F7F89A",
":X c #FAFA9C",
">X c #D5C2A2",
",X c #DAC4A5",
"<X c #DBC7A7",
"1X c #DCC7A8",
"2X c #DDC9AA",
"3X c #DECDB2",
"4X c #E1CBA6",
"5X c #E2CCAD",
"6X c #E7D0AE",
"7X c #E3CFB0",
"8X c #E5D2B3",
"9X c #EAD4B5",
"0X c #E8D5B7",
"qX c #ECD7B8",
"wX c #EDDABA",
"eX c #F0DAB5",
"rX c #F2DCBC",
"tX c #F9FAA3",
"yX c #F8F9A7",
"uX c #F7E8B0",
"iX c #F9FAB9",
"pX c #EDD9C0",
"aX c #F3DFC0",
"sX c #F5E2C2",
"dX c #FAE4C5",
"fX c #FCE7C8",
"gX c #FEECCC",
"hX c #FAFDC7",
"jX c #FFEED1",
"kX c #F9F8D9",
"lX c #FEFDDD",
"zX c #FAFBE8",
"xX c #F9FAF5",
"cX c #F9F7FD",
"vX c #F7FAFF",
"bX c #F9FAFE",
/* pixels */
"@X+X@X,X5X.X_.+X.X(.' `.'.$XaX+X@X6XrX9X6X$X].I F.H.e o. ............. .+., A.(.|.P /.|.(.(..X|.{.{.+X+X@XA..X+X9XeX|.' `.(.W $X",
"9XoX5X'.B.{.G.U Q .X{._.oX'.@X7XjX9X{.(.|.$ } } } c.E.!.-X=X=X*X=X=X-X^.p.7.} } e } (./.C.'.C.@XG.|.oX{._._._.Q _.{.{.{.C.Q B.{.",
"4X5XqX{.B.G.A.Q _.A.A.Q G.G.(.D.'.$XoX< < ,.Q.!.=XlXlXvXcXcXcXcXbXcXcXzXQ.z.E.E.i.i.| ,XC.(.Q D.G.1X6X@XG.@X'.Q {.+X$X1Xb.G L Q ",
"@X@X{.@X,X{.{.C.|.,X|.G.|..XF.{.|.|.$ d.s.^.xXvXbXbXbXvXcXcXcXzXzXxXxXiX;XtXiXtXk.s.r.i.+.C.G.(.'.@X$X{.A.+XH.C.Q {..X.Xv.3 3 B.",
"{.G.{.5X{.A.+X(.(.$X$XOX(.+X{.{.#X+ x.-XkXbXcXcXbXbXbXbXcXcXzX;X;XtXtX;XtX;X;X;X;X;Xk.i.p.| A.,X4X$X,X{.C.B.Q D.B.U U A.{.G.U {.",
".XF.(.Z.A..X.XG..X|.$X5XA.@X9X< a.x.lXbXcXcXbXxXcXbXbXiX:XtXtX;X-X-X;X:XtX;X;XyXyXtX-X-XQ.e.g.,.,X(.|.,X6X|._.'.U G A.{.A.F.A.oX",
"(.(.{.B.C..XG..XD..XoX X|.|.2 l.*XhXvXcXbXcXbXxXiXiXQ.s.s.d.d.z.j.j.z.k.s.!.iXyX;X;XyXtXtXQ.i.i.,..X9XaX+XQ C.'.F.B.{.@X(.oXoX.X",
"G.B.A.G.F.(.F.C.A.A. X$X2X2 Q.hXvXcXcXcXcXcX:Xx.j.k.y.$.*.| | | | | o.O.8.r.x.z.tXiXtX-XtXyXQ.u.i.3.A.{._.A.'._.G.F.(.{.G..XoXD.",
"F.L F..X'.G.A.b.D.{.}.,X, k.zXvXbXcXcXzXiX=Xp.e.#.o.o.a m 6 5 6 5 6 v m f o.#.7.R.!.-XiXyXtXtXx.u.i.+.]..XOX,X{..XA.C.A.(.|.$X(.",
"oXF.{..X XD.U '.oX.X{.+ k.kXcXxXcXcXhX^.i.y.4.g m ; 6 v v M M M b M N b > 7 A d O.w.Q.*X-XtXtX;Xk.p.p.X.OX@X{.M..X{.Z.B.(.{.oX1X",
"+XG.|.{.G.(.G..X.X.X, d.zXcXcXxXcXiXi.y.8.-.y w n n n w N N v M M M N N M M w w S d q.i.k.tX;X;XtXE.i.i.X. X{.G.G $X,XQ G.$X6XrX",
"{.{.{.{.A.{..X'.$X, k.=XxXvXcXcXiXp.4.g R Z w v M V C B.G @X6X6X.XD..X,X- ' Y Y S A h $.e.z.tXtXiXE.i.y.&.) G.(.{.4X+XC..X@X$XrX",
"G.|.H.|.|.A.|.+X$ l.-XbXcXcXbXvX!.6.g n v n F > ,X7XaXoX@XgX6XrX'.@X@X{._.O O O Y ' S h %.y.x.iXyX;Xx.u.w.g.f 7X6X@X$X,X9X.X'.4X",
"A.'.G._.Q U ,X6Xe W.xXvXxXcXiX!.h.=.A v V ; = .XuX0X9Xb.,XrX@X@X).{..X{.A.Q _.{.= 3 H E ~ $.y.Q.yXkXQ.i.y.5.Y.2X$X+X6X_.D.{.,X9X",
"@X{.+X'.0 v.2X,X .*XvXvXcXhXs.w.=.m 7 V 7 7X6XA.4XdX9XG 1X1XH.U F.+X>X{.+X{._..XA.A.& Y ! ( &.t.Q.^.x.u.y.9.1.- {.G.@X{._..XoX.X",
"6X.X6X5X]. X2X..W.zXcXcXvXk.i.=.n v V 7 (.C.4XL C.qXoXJ 8X4X{.G.@X1X5XF.G.oX@X9XgX].6X= Y D j 5.t.u.u.t.i.y.8.U.> Q ,X|.'..X+X,X",
".X.XaX5X|.(.o.p.*XvXvXbX;Xp.=.n 7 B > `.v.0 Z.F.K  X@XM.>X}. XM.G.+X,X+XH.4X%X4X6X4X X+Xo E ] >.$.w.i.u.u.u.6.<.I.* OXoX$X{..X5X",
"aXaX$X6X$X.X7.W.kXcXvXbXd.e.*.b V N F.S.b.q v.A.L @X,XA.{.{.n.n.A.{.A.%X.X4X4X+X%X}.+X+XrXO ' ] K.&.e.u.u.t.5.6.>.# }.G.eX5XoXoX",
"9XqXQ +X>Xe t.Q.kXvXbXhXp.%.i v > `..X(.Z.M.b.L M.v.V._.B.F.]._.G._.B.{.G.{.4X+XU +X%XuXsXH.= z P.L.q.i.u.t.r.8.=.! * _.@X{.9X4X",
"oX@XC.B.D.0.u.^.zXvXkXk.i.*.b C ; OX[.A.4XqX XOXOXOXZ.].).I B.H.|.(.G.U G G.4X+Xb.{.eXeX6XH.b.I.K.J.1.t.u.u.i.0.g [ i ].rX|.4X,X",
").{.oXZ.m.#.i.tXvXcX*Xt.%.i N > O 2X`._..X,X.X.XXXfX<X>X].S.S./.G.(.A.Q U {.%XG.}.%XuX4X@X.X%Xy d [ 1.w.i.u.i.8.x [ u @X9X6X$XG.",
"v.S.XX).M.3.i.tXvXzXQ.t.l b V @ H.5XH.].$X].D.oX<X0X0X8XN.#XS./.(.$XA.|.B.H.6X+XH.%X6X+XA.).eX6Xh I.<.9.t.i.u.8.x [ u |.G.,X_.B.",
"S.XX<X%X_.7.i.;XcXzX!.t.;.V V @ ].XXOX2XXX]. XF. X<X>X].N.<X/./.Q $X$XaX+XH.+X}.A.A.%Xb.K @X_.G.h P.P.-.9.u.u.8.x [ u K H.|.L A.",
"L '.%X%X+.i.i.:XcXxXQ.6.s v F & ]. X,X].H.`.OXv.[.>X3X].q ].[.N./..X5XoX+XF.+X+Xb.G.G.G 0 .X).b.^ P.P.-.0.u.u.0.x [ / > A.Q Q G.",
"}.F.2X Xr.i.p.;XvXtXa.>.T V & '.XX).wXqX`.S.XX<XXX%X>X[.q 9 /.v.P Q $X|.|.1X$X$XB.G.).F.F.]. X{.F.s Y.<.0.i.u.9.x ( { t I U G.U ",
"V.).A.B.9.i.i.tXcX=X9.[ T Z   ]. X%X2X2X0XXX].kXsX`.N.F.[.q q pX(.Q (.|.|.$X.X(.G.G.%X,X%X{.G.{.].4 Y.<.9.r.i.9.x / _ t {.D.}..X",
"v.{.F.M.9.i.t.*XzX^.7.d T C X 9X%X[.3X3XXXS.`.>XfXkXS.3X/././.[.oX(.[.[.|.|.'.' C.b.%X6X6X{.F.{.].u Y.<.4.4.t.0.x ( [ 4 {.G.G..X",
"K B..X_.9.i.u.!.hXQ.4.^ T Z X rXH.Z.[.%XpX>X/.N.[.3X3XXX/././.q /.$X$X(.oX/./.`.C.' 4X|.@X.X_.].H.u U.1.6.8.u.9.x ( ] 4 {..X+X4X",
"Z.F.].F.9.i.u.Q.iXQ.7.( D V X ].%XF.OXXX[.}.#X>X[.`.`.`.#X/.q q /.oXoX|.1X(.'..XA.A.,XG..X,X|.(.V.u g.w.r.4.u.1.] j _ 4 G.A.{.1X",
"B.,XXX@X2.5.t.s.s.i.7.( D Z X .X8X>X>X3X`.[.c.S.>X3X`.`.[.[.W /.`./.F Q oX/.|.{._.(.,X{.$X$X'.D.c.u g.y.y.4.6.2.] z ` 4 A.G.|.@X",
"_.qX.X>XP.5.y.u.y.i.q.( T C X @XuX>X0XsXc.N.c.N././.3XW q `.`.#XpX`.U (.|.A.|.@X6X$X1X,X$X.X_.'.$Xy h.i.e.6.6.c ( ] ] t _..X%X@X",
",X,X X>XK.5.i.i.t.i.7.! p Z X .X,X0XsX>X3X}.N.S.v.3 q `./.[.q `.#X1X(.|.|.Q (.1X,X+X{.|.{.|.@X6X$Xe E.^.R.6.8.k ( ] { r .X.X+X5X",
"3XgX3Xm.h 5.w.p.i.i.q.( T Z   1X0X2X>X>XOX`.[.>Xq q N.#X>X>X/.A.oX$X_.'.$X.X.X6X|.U {.{.@X+X}.aX6Xe E.lX&X4.&.k / ^ ~ : Z.}. X9X",
"N.>X>X/.a 6.5.0.i.i.a.>.T V @ .X2X#XXXXX].XX2X2X`.b.].qX[.OXZ.M.$X.X@X5X$X.X+X_.G .X+XA.B.A.+X}.%Xe W.hXE.$.>.` z R S ; @X]. X8X",
"`.>X#X7XT q.5.r.i.i.t.4.a v V & ).[.].`.OXOX`._.I b./.0XS./.).M..X_.$XpX{.G._.A.B.@X.X.XA.B..X'.#.i.tXhXy.4.L.] ] h S ; 0X.X|.qX",
">X0X8XaX$Xf 5.y.i.i.i.y.` n V & `.V.S.[.oX>X>X`.M.v.XXOXK M.).OXoX@XpXfX@XQ (.+X4XeXA.G U B.B.%X$.z.bXuX6.4.k / ] ` 3 $X$X7X X2X",
"<X3X>X].].~ q.0.a.u.i.p.>.D V X F.).F.].2XOXN.I Z.3X'.F.].P v.,XB.G.@X9X.XG.{.|.@X@X_.v.K b.v.H.#.&XbXuX$.<.j ^ R D * OX)..X).$X",
"`.3X0X2X XS -.$.e.i.u.t.1.k Z : XX`.`.].].2X,X].`.`.>X X{.`./.Z.A.A.{.1X.X4XrX.X{.5X4X@X{.+X4X< 7.tXzXz.$.[ / z R F * XX].).`.OX",
"[.#X<XpX3XY ( -.a.i.i.u.r.;.~ D *  X X].OX@X X XOX,XXXXX$XOX$XZ.+X.X+X%X+X@X,X(.A.uXH.G V.{.5Xi.z.zX:Xw.<.~ / ] i F : .X>XXX[._.",
"[.>X>X3X>XM ( [ <.0.u.u.p.J.( ~ - F.].OX@X@X,X8X>XOX_.2XdX1X_.OXG.$X$X,X$X(.Q {..XH.'.}.F.U , z.xXxXR.@.{ / / _ y N & Z.qXOXv.Z.",
"[.N.m.3X0X#X3 ' -.6.9.i.i.1.] ] ( : I XX XXX>X2X2X,X|.|.9X@X.X@X.X{.}.}.{.@X{.+X{.@X,X XOX, j.yXbX^.e.=.( z z T C O <XV.<X>X<XM.",
"2X`.c.H.XX#XH { :.1.w.i.u.9.2.] ^ { 4  XOX X5X5X2X,X|.G.2X7X0X5X,X'.C.B.B..X{.}. XF.B.%XO r.s.bXbXR.$.K.j c ` y F O >XXX2XF.,X0X",
" X[.[.XXOX>X3XH I.K.g.e.u.u.2.K.c ^ ~ - .XF.{.qX$X7XeXH._. XaXdX4XG.B.}.@X@X.XrX.X{.B.$ +.i.hXvX~.h.:.` / z ~ F * ,XF.%XwXF.[.sX",
">X3X>X[.`.>X3X8Xt { K.%.w.u.q.>.I.;.K.` 3 ,XOX8X2X1X4XA.A.(.OX{.+XQ Q 4X9X4X}.aX6X}.# 7.i.iXvX~.$.-.( j ` h y = @X.XK b.#X[.[.>X",
"kX0XXX<X3X0X%X/.# ' / K.%.e.w.&.L.P.P.J.[ > * %X+XG.{.H..XoX+X(._.B.B.H.}.,X'. X$ 1 f.W.yXbX~.@.:./ j ] T B C <XXX0X<X`.0X0X>XXX",
"sX>X[.>X%X<X`.m.9 9 T ^ J.<.6.0.7.>.L.2.J.K.I.t O + # 4X<X.X{..XA._..X{.H.$ $ , T.E.-XvXbX&X@.:.j j c D y v : G.2X0XhX`.XX<X#X>X",
"q P S.q q XXrX[.H.D.S p ^ K.q.6.8.4.L.L.P.U.;.z [ [ I.@ 5X5X.X@XG.A.{.}.e p.w.s.zXbXbXbXyX$.:.j _ ] ~ B M v `.].[.].iX[.[.>XXXXX",
"/.P H.N.S.).2X%XH. X@ F S j >.2.1.9.4.L.L.>.L.>.P.P.K.o.+.o.+.+.O.+.3.3.R.-X!.^.bXbX^.k.g.:.l ^ ] h Z V 3 F.>X/.v.c.}.`.S.`.XX#X",
"`.].].H.v.H.%X X@X6X@X9 N T _ { J.1.1.5.2.L.P.P.2.q.r.i.i.i.i.j.=X*X*X^.tXjXhXiXW.l.g.O.g / ^ ] h Z V > v.].@X XG.).XX].{.)..X2X",
"%X`.3XqX].S.).A.S.2XgX>X9 C ~ a ^ [ K.&.2.P.P.P.2.&.q.w.i.i.i.d.!.!.Q.Q.E.l.E.x.9.O.c ( ( z ] R t F > ,X].].@X8X{._.v.U U J F.F.",
"}.%XwX2X).F.A.v.{.2X4X4XqX{.Z Z S a ~ J.K.J.J.>.P.P.K.<.q.r.e.t.e.y.y.w.5.@.O.O.{ ( j z j h a i B 8 G F._.Z._. Xb.B.I v.K K ].,X",
"sXqX<X2XG.n.V.V.].XX].8X.X).].V M Y S ^ j l h c P.L.>.K.[ %.4.$.$.$.$.-.I.{ ( ( j c _ _ ~ i S > V b.G b.F.B.{.G.I _.@XA.G F. X>X",
"gX8X}.[.V.0 v.0 G.F..X%Xv.S.M.G.; v M i i R ] j l l j l ^ l l l l l l l l l ^ ^ / j R i i w 7 % ].M.K I _.G.{.{.I v.)._.A.oX.X@X",
"0XgX].v.XXb.A.H.2XF.].%Xv.P 0 (.$XoX; v r v i T p p p p p T D S S S D i i T p a p y v B 8 @ >X].>X XS.U $X@XoX,X8XG.Q F.F.].5XrX",
"8X5XG._.gXXXH.dX2X}.F.2X%X_.F.F. X#X{.; ; > V B B V N r r r r r r r t r r M B B V N > ; & %XF.v.M.F.B.U ).G. X X].{..X|.{.>X0X.X",
"2X].%XkXfXrXH.%X@X].{.rX}.A.{.oXaX7X).{.qX* 7 ; ; ; M M M M M N M M M M V 8 ; 6 ; 7 O |.V.<XK I b.Z.G. XF.K `.'.Z.v.@X X).{.).(.",
"OXA. XgXgXfX}.b.M.M.B.XXH.0 ].+X].|.).{.{.$X@ X . X > v v > v 8 v > 7 7 v ; . X   o XX_.H.Z.].v.G.1X7XfX XJ A.).B.Z.F.I A.M.M.A.",
"I G.%XXX,XrX XP K v.0 v.{.H..XA.A.>X X).5X2XA.M.{.XXO % @ @ @ @ @ @ @ @ % . {..X%X%X>XOX[.<XXX[.$X.X<X2XeXqX@X). X_._.G K L G.|.",
"v.A.].{.rX7XF.I L I Z.Z.>XrX>X{.|.9XoXZ.qX,XB.M.$X(.F.M.A.3 H.{.U _.{.1XsX%X2XXX<X0X8XXXOXgX<X>X@X$X@X].{.].$X X'.B.B.C.B.F.).].",
"I A.F.M.}.oX X{.%X}.G.%X<XOXwX].@X.XC.D.9XwX<X{.{.C.v.K v.(.F.v..X8X.X$XgXqXqXOX>X0XrX>X%X8X<X<X`.C.B.{.7X.X_.I U Z.I 0 0 @X{.C.",
"].].].]. X.X2XwX@X).].5XXXZ.>X}.oX5X@X8X X(.5XqXoXC.0 P b.%XN.v.%X2X%X}.<X<X8X>XXX>XqXwXOX_.%XrX@Xv.A._.5XwX5X0X_..XG.M.m.).A.].",
"oX2X4XoX{.@X5X{.).M.5X,X.X{._.sX7X7X(.$X.X{.,X7XrXA.L A.OX}.Z.'.`.].XX].[.OX<X%X).%X>X>XF._..X>X@XB.L B..X9XwX9X$X8X@XI Q M.F.{.",
",X4XqX2X XZ.,XsX@X). XOXOX X,XwXdX2X'.].{.{.{.'.'.F.C.A.7X}._.F./.H.XX>X8X2XXXZ.)..X_.N.N.].{. X0XOXL G.{.@XwX@X$XOXOX|. XG.D.{.",
"|.,X8X]._.b.oX@XM.G  X2X{._.@X>X<XF..X].|.$XoX(.m.b.Q M.3X_.}.[.>X%X%X<X0X%X[.v.H.H.].v.H.).`.9X9X|.v._.].,XoX|.oXoX{.{.M.{._.]."
};
