/* XPM */
static char *eefabb30cd5442e2f8aac5ba42b38722ufi0KfTt4bU7vwiP[] = {
/* columns rows colors chars-per-pixel */
"32 32 215 2 ",
"   c #471D2F",
".  c #532E34",
"X  c #552439",
"o  c #673D3C",
"O  c #75343E",
"+  c #773A3E",
"@  c #5C4B3A",
"#  c #7D6A3B",
"$  c #5A2042",
"%  c #78264B",
"&  c #653C42",
"*  c #7D3446",
"=  c #722050",
"-  c #6E494B",
";  c #734C4E",
":  c #785C45",
">  c #745C53",
",  c #7A5853",
"<  c #786242",
"1  c #7F715D",
"2  c #85343D",
"3  c #93581C",
"4  c #B16815",
"5  c #93463D",
"6  c #B04B36",
"7  c #8D7929",
"8  c #D17217",
"9  c #E97A04",
"0  c #E25E24",
"q  c #CF6933",
"w  c #EA762E",
"e  c #E96E38",
"r  c #E9783B",
"t  c #831B4B",
"y  c #883847",
"u  c #963849",
"i  c #9A3D4D",
"p  c #832950",
"a  c #9B3F51",
"s  c #864246",
"d  c #894E44",
"f  c #9E474A",
"g  c #9A5548",
"h  c #894E50",
"j  c #885655",
"k  c #A24A4E",
"l  c #AB5D44",
"z  c #A75648",
"x  c #B35A4C",
"c  c #BB5B52",
"v  c #856D4E",
"b  c #866D57",
"n  c #976455",
"m  c #877152",
"M  c #8C795B",
"N  c #917C5C",
"B  c #8D5364",
"V  c #8A7665",
"C  c #937C63",
"Z  c #987C67",
"A  c #AE7A64",
"S  c #CB5A59",
"D  c #C46D46",
"F  c #CA6A48",
"G  c #DA6649",
"H  c #DB724A",
"J  c #CB6450",
"K  c #E56946",
"L  c #EE734F",
"P  c #E86A51",
"I  c #A09916",
"U  c #B8AA09",
"Y  c #918927",
"T  c #948F31",
"R  c #A79629",
"E  c #B0AB32",
"W  c #DA8E0B",
"Q  c #EE830C",
"!  c #EA9709",
"~  c #E88814",
"^  c #EB971A",
"/  c #DDA401",
"(  c #F0A11C",
")  c #F4B515",
"_  c #CF902A",
"`  c #EE8C2D",
"'  c #F0902F",
"]  c #FE8C39",
"[  c #F89A3A",
"{  c #C5BC25",
"}  c #D3BA28",
"|  c #C7BD35",
" . c #FDAE2B",
".. c #F9B926",
"X. c #F4AA34",
"o. c #FFA638",
"O. c #DAD806",
"+. c #EAD30F",
"@. c #FFDB01",
"#. c #FBD60B",
"$. c #FBC318",
"%. c #FDD316",
"&. c #FCD913",
"*. c #ECE604",
"=. c #FDE404",
"-. c #FDEB00",
";. c #FBE90A",
":. c #FCF201",
">. c #F6FE01",
",. c #FDFF01",
"<. c #F7F608",
"1. c #FFFF12",
"2. c #C6C33A",
"3. c #DACB33",
"4. c #FBDB2B",
"5. c #FBF829",
"6. c #F7E938",
"7. c #FDFF35",
"8. c #9C8849",
"9. c #9B8951",
"0. c #B0995E",
"q. c #B1A05E",
"w. c #978465",
"e. c #9A8465",
"r. c #9B8769",
"t. c #9E896A",
"y. c #9A8871",
"u. c #A78467",
"i. c #A38C6D",
"p. c #B4866A",
"a. c #A48F70",
"s. c #A28F7B",
"d. c #B58274",
"f. c #A69172",
"g. c #AA9475",
"h. c #A7967C",
"j. c #AC977A",
"k. c #AE9A7B",
"l. c #B49876",
"z. c #B29C7D",
"x. c #B6A07F",
"c. c #C78352",
"v. c #F88A47",
"b. c #FE9648",
"n. c #CDB24B",
"m. c #C48A70",
"M. c #CCB86B",
"N. c #DCC34D",
"B. c #F7D748",
"V. c #DDE251",
"C. c #FFFF43",
"Z. c #FFF64A",
"A. c #FEFF4B",
"S. c #E0E855",
"D. c #FEFE55",
"F. c #CAC971",
"G. c #FEFF64",
"H. c #FFFE6C",
"J. c #FAFE73",
"K. c #FFFF7F",
"L. c #AE9B83",
"P. c #B59F80",
"I. c #B79C86",
"U. c #B5A182",
"Y. c #BAA485",
"T. c #BCA884",
"R. c #BCA689",
"E. c #BDA98A",
"W. c #BDA791",
"Q. c #C5A283",
"!. c #C2AC8D",
"~. c #C5B18B",
"^. c #C5AF90",
"/. c #C2AF98",
"(. c #C6B293",
"). c #CBB495",
"_. c #C5B599",
"`. c #CDB699",
"'. c #CDB99A",
"]. c #D2BC9C",
"[. c #CEBDA1",
"{. c #D3BEA0",
"}. c #D5C09F",
"|. c #D9C59E",
" X c #FEFB89",
".X c #F7EC9A",
"XX c #FFFE96",
"oX c #D5C2A3",
"OX c #DAC4A4",
"+X c #DDC7A8",
"@X c #DDCAAB",
"#X c #E2CCAC",
"$X c #E6D0AD",
"%X c #E3CFB0",
"&X c #E4D2B3",
"*X c #EAD4B5",
"=X c #EBD6B8",
"-X c #ECDBBB",
";X c #F3DEBE",
":X c #FDFFA2",
">X c #FAF9A6",
",X c #FEFFAD",
"<X c #EFE0BE",
"1X c #F9F8B4",
"2X c #FEFEBC",
"3X c #FAE6C6",
"4X c #FEFFC4",
"5X c #F7FBC9",
"6X c #F8F9C9",
"7X c #FAFBD5",
"8X c #FCFBD8",
"9X c #FFFFE6",
"0X c #FDFFF4",
"qX c #F7FCFE",
"wX c #FDFFFF",
/* pixels */
"#X].Y.z.z.g.^.#X*XOX).i.!.#X!.].!.g.Y.^.!.z.z.Y.!.].!.Y.OX).e.z.",
"OX].Y.i.z.!.z.z.].T.C 9.0.n.| | | | R 8.l.#Xf.i.].`.z.f.g.].m < ",
"R.Y.!.!.`.].^.`.~.w.# 2.F.1X6X6X7X2X6.{ U M.z.T.#X].Q.f.M l.g.Y.",
"g.i.P.P.l.].OX^.q.E XXwXwXqXwXwX0X9X2X,XD.<.3.z.g.#X!.Y.g.P.`.(.",
"g.Y.Y.i.Y.).{.Y H.wXwXwX8XK.A.D.C.C.H.,X6X,XD.+.M.g.].!.z.i.R.].",
"(.!.Y.Y.{.!.Y 2XwXwX4X7.+./ 4 3 3 4 / 4.J.4X7XC.:.8.!.z.).!.!.*X",
"Y.z.i.`.#XT 2XwX0XZ.@.8 2 % * p * % y 6 W 5. X7X7.*.u.^.*X].!.{.",
"].).i.#X7 XXwXwX7.W y = A d.).k./.).h o a w -.>X5X1.) Q.l.(.Y.OX",
"*X=XOX(.3.wXqXA.~ t & : a.E.E.k.Y.).|.OXZ f w :.:X7.,.0.Q.^.].].",
"#Xg.~.3.,XwXH./ % j R.I.k.T.f.k.z.e.x.).k.`.s ] -.>.>.$.h `.#X#X",
"I.z.8.5.wX0X-.6 B (.{.`.-X@XU.h.!.f.g.).`.$XV c o.:.>.=.q Z #XQ.",
"z.{.N.D.wXG.W % V }.E.j._.}.h.h.z.*X).(.T.N r.A L %.>.-.L g 9.u.",
"z.z.N.G.qX7.q X L.$XU.oX%XU.1 L.j.W.{.(.f.E.!.z.P  .>.:.r Z u.g.",
"i.f.*.G.0X4.6 ; E.oX}.}.&X_.L.y.!.`.(.g.i.+X].T.c.[ >.:.r l !.).",
"l.{.:.J.4X( i V (.'.E.h.[.W.L.y.z.I.!.I.Q.`.].j.u.[ @.:.r x Y.'.",
"#X@X=.A. X^ f > 3X<Xx.w.y.y.L._.`.f.l.].#X`.`.].p...-.@.L l !.|.",
"oX)...>.>.( a > &X[._.[.1 U.@Xf.).].`.!.l.!.x.#Xp.;.,.( P l !.#X",
"'.OXX.,.,.[ i @ h.Y.oXE.t._.f.k.).;X!.u.].k.v x.q.J.Z.! P l OX].",
"%X&X_ :.,.%.k & z.E.oXk.Y._.a.j.x.OX].].#Xk.i.T.} ,X6.` H d Y.'.",
"W.-Xm.#.,.,.H $ k.E.].+X'.].&XP.!.OX].Y.).~.k.).B.8X) e J b '.z.",
"k.L.l.' ,.,. .u C s.).@X#X(.#X*X].z.Y.!.Y.].].8.>XXXQ H l b {.W.",
"@XW.I.S ) ,.&.P g Y.'.oX=XQ.z.-Xz.i.|.*X).i.f.S.0X%.0 H y w._.oX",
"&X(.+XA v.:.>.b.P g #X*XY.~.).~.a.!.`.(.).- U 9X X9 L c - }.oXoX",
"r.M j.#Xk b.:.&.b.v.n i.g.].$X~.T.l.].!.7 { 4X.X9 K D - U.oX_.oX",
"E.).U.Y.y.S v.=.#.b.b.q d n |.$XOXE.R I 1X0X>X9 K D s R.j.r.r.U.",
"*X*Xg.m R.> x v.$.$.o.b.o.&.O.3.V.V. X,X2XB.~ e D y u.x.a.r.m !.",
"3XE.N t.!.!.j x J [ o.v.o.&.1.>.C.C.B.X.! 0 G D s , T.].U.j.^.*X",
"oXoX-XoX].].z.u.* z F r v.L ` ^ ! ^ e 0 G G l + Z R.f.Y.Y.U.`.(.",
"f.&X8Xf.< f.T.T.^.j O z l 5 f f k f 5 x g * ; j.!.3X!.z.P.f.M i.",
"N P.{.Y.t.g.&X'.E.).I.X   O y O * * O . . R.@X=X!.E.#X!.a.m t.!.",
"'.(.!.*X].OX(.oX#X)._.E.M . ; & - ; - y.s.@XE.@Xk.N &X&X'.g.r.k.",
"#X#XY.'.g.E.(.&X+XY._._.f.j.].E.Y.oX<Xz.k.f.a.+X].r.'.+X+X!.g.!."
};
