/* XPM */
static char *_2787_9184f2fe583126ab86415c198ef96b744595307d69c606108ef69bdd77aa6455[] = {
/* columns rows colors chars-per-pixel */
"64 64 240 2 ",
"   c #1A0C10",
".  c #250D1A",
"X  c #2B1119",
"o  c #2B1918",
"O  c #351A1B",
"+  c #382915",
"@  c #3A1725",
"#  c #3E2121",
"$  c #44181B",
"%  c #463509",
"&  c #451B2B",
"*  c #472626",
"=  c #53272A",
"-  c #56332F",
";  c #65352C",
":  c #682B38",
">  c #673433",
",  c #76373B",
"<  c #3F4300",
"1  c #514B08",
"2  c #6C530F",
"3  c #5F6000",
"4  c #736E00",
"5  c #6A4B34",
"6  c #7A4732",
"7  c #6F1E44",
"8  c #742645",
"9  c #7D3641",
"0  c #7A3A41",
"q  c #6D554D",
"w  c #7C6748",
"e  c #7D6B54",
"r  c #883C3E",
"t  c #8F7010",
"y  c #8A463E",
"u  c #884D38",
"i  c #954A3D",
"p  c #915231",
"a  c #A85A3D",
"s  c #AC613E",
"d  c #B6673B",
"f  c #B77234",
"g  c #C85B3D",
"h  c #C8702F",
"j  c #DD7C2B",
"k  c #C7663D",
"l  c #D66B3D",
"z  c #D97A37",
"x  c #D5703C",
"c  c #DC733E",
"v  c #E07C2D",
"b  c #E4793A",
"n  c #843B42",
"m  c #893B46",
"M  c #8F354E",
"N  c #943B47",
"B  c #A23D4A",
"V  c #8C4343",
"C  c #884545",
"Z  c #934B43",
"A  c #96484A",
"S  c #974B4B",
"D  c #9A5447",
"F  c #A44849",
"G  c #A85945",
"H  c #B65D49",
"J  c #A75154",
"K  c #826C4D",
"L  c #9F6047",
"P  c #836E52",
"I  c #867152",
"U  c #8A7455",
"Y  c #8C7759",
"T  c #8D795A",
"R  c #927C5D",
"E  c #AC6548",
"W  c #B26344",
"Q  c #B86845",
"!  c #BB694C",
"~  c #8D7C65",
"^  c #947F60",
"/  c #CC5F49",
"(  c #C86943",
")  c #D66C42",
"_  c #DA6C43",
"`  c #D66648",
"'  c #C77341",
"]  c #DB7242",
"[  c #DB7647",
"{  c #CE6F54",
"}  c #E27444",
"|  c #EC754F",
" . c #E7794B",
".. c #8D8D02",
"X. c #B18C10",
"o. c #B5A70F",
"O. c #B7B700",
"+. c #BC9225",
"@. c #D39910",
"#. c #E8960C",
"$. c #CDAB0C",
"%. c #F4AB01",
"&. c #E4B206",
"*. c #F7BA05",
"=. c #F6A91C",
"-. c #FAB817",
";. c #D8892C",
":. c #EB952A",
">. c #F59A2A",
",. c #E88438",
"<. c #F3893B",
"1. c #F9993A",
"2. c #D7B126",
"3. c #F8A528",
"4. c #FBB327",
"5. c #FDA536",
"6. c #D3CB0B",
"7. c #F5C503",
"8. c #F9C706",
"9. c #FBCB01",
"0. c #ECD205",
"q. c #F4D302",
"w. c #FBD401",
"e. c #FBDB00",
"r. c #FBD608",
"t. c #F3CC13",
"y. c #FBE401",
"u. c #FBEB01",
"i. c #F9E906",
"p. c #F7F402",
"a. c #FBF401",
"s. c #F6FC01",
"d. c #FBFD01",
"f. c #FDFE0B",
"g. c #F4E510",
"h. c #FCFE14",
"j. c #FCFF1A",
"k. c #D9C220",
"l. c #FEC528",
"z. c #F9D228",
"x. c #FFFF24",
"c. c #F8F929",
"v. c #F8E934",
"b. c #FDFD34",
"n. c #F8F939",
"m. c #929158",
"M. c #968163",
"N. c #9A8465",
"B. c #9C8767",
"V. c #9C8769",
"C. c #9E8A6B",
"Z. c #9D8B71",
"A. c #A28C6D",
"S. c #A4906F",
"D. c #A58F71",
"F. c #A69172",
"G. c #AA9475",
"H. c #A89578",
"J. c #AC9779",
"K. c #AE997A",
"L. c #B29C7D",
"P. c #B3A07F",
"I. c #EB8643",
"U. c #F78847",
"Y. c #FA9444",
"T. c #FC9847",
"R. c #FC8855",
"E. c #FFAA4A",
"W. c #FFAB53",
"Q. c #FFDF48",
"!. c #F5EA4B",
"~. c #FBF946",
"^. c #FEFF4C",
"/. c #FAFD58",
"(. c #FBFD67",
"). c #F3E675",
"_. c #FCFE79",
"`. c #AE9D82",
"'. c #B59E81",
"]. c #B6A183",
"[. c #BAA485",
"{. c #B7A589",
"}. c #BCA788",
"|. c #BDA98A",
" X c #BFAD93",
".X c #C0A987",
"XX c #C2AC8D",
"oX c #C6B28E",
"OX c #C5AF90",
"+X c #C6B192",
"@X c #CAB495",
"#X c #C9B697",
"$X c #CCB798",
"%X c #CDBA9A",
"&X c #D1BB96",
"*X c #D2BC9D",
"=X c #CDBBA1",
"-X c #D4BEA1",
";X c #D6C19E",
":X c #F6E785",
">X c #FCFD85",
",X c #FDFE8B",
"<X c #FCFC94",
"1X c #F7F89A",
"2X c #FAFA9C",
"3X c #D5C2A2",
"4X c #DAC4A5",
"5X c #DAC7A8",
"6X c #DDC7A8",
"7X c #DDC9AA",
"8X c #DECDB2",
"9X c #E1CBA6",
"0X c #E2CCAC",
"qX c #E8D1AF",
"wX c #E3CFB0",
"eX c #E5D2B2",
"rX c #EAD4B5",
"tX c #E8D5B7",
"yX c #ECD7B8",
"uX c #EDDABA",
"iX c #F0DAB5",
"pX c #F2DCBC",
"aX c #F7EBAC",
"sX c #F9FAA3",
"dX c #F8F9A7",
"fX c #F9FAB9",
"gX c #EDD9C0",
"hX c #F3DFC0",
"jX c #F5E2C2",
"kX c #FAE5C6",
"lX c #FEECCC",
"zX c #FAFDC7",
"xX c #FFEED1",
"cX c #F9F8D9",
"vX c #FEFDDD",
"bX c #FAFBE8",
"nX c #F9FAF5",
"mX c #F9F7FD",
"MX c #F7FAFF",
"NX c #F9FAFE",
/* pixels */
"*X%X*X4X0X@X.X&X@X'.D.'..X*XhX$X-X0XpXrX0X4XL.U L.L..XOXXXA.&X%XOXL..X.XP.&XG.XXOXI J.@X[.'.&XOX.X.X*X*X*XG.OXOXrXyXOXD.[..XR -X",
"rX$X0X.XA.XXJ.R A.@X.X'.@X.X*XqXxXrX.X[.*X[.A.G.4X*XqXpXqXOX*X&XOXL.P.N..X.X.X.X.X-X.XJ.^ [.D.*XL.OX@XXX[..X.XA.[..XOXXX^ ^ ^ XX",
"9X0XyX.XA.L.G.^ L.G.D.A.L.L.'.J..X-X&XL.D.G.J.[.A.&XpX*XK.L..X.X.XL.G.R XX'.OX[.}.rXrX-XG.L.^ J.L.6XqX*XL.-X[.^ XX&X4X6XA.P R R ",
"*X*XXX-X4XXXXXD.XX4XOXL.OX@XL..XOX@X4X%XG.J.'.^ A.A.t @.o.O.O.O.O.O.O.X.@.2 A.A.J.`.6XgXOXD.L.'..X-X-X.XD.%X'.D.^ .X@XOX^ 5 Z ^ ",
"XXL.XX0X.XG.&X'.'.-X4X*X'.&X.X.X&X}..XK.Y % ......m.^._.<X,X,X>X>X,X<X_.h.0.....t ..'. X@XR K.4X6X-X-X+XD.A.A.G.A.R ^ F.}.L.R .X",
"@XK.'.G.G.$X@X'.OXXX-X6XG.-XrX.X$X7X*X2 3 k./.(.,XcXvXMXNXmXmXmXNXNXNXbX/.b.^.n.f.d.X.{.$XG.J.&X4X'.@X-X0X@X'.}.R P G..XG.L.G.%X",
"'.'.OXV.D.OX'.OXJ.@X$X@XOXOX-X@X}.oX% c.j.(.nXNXmXmXmXmXNXNXmXbXnXbXmXfX1XdXfXsXc.f.a.d.$.*X#XF.L.+XgXhX$X^ G..XK.A..X-X'.&X%X@X",
"L.A.G.L.L.'.L.D.G.G.OX4XqX$X0XJ.S.+ b.<XvXNXmXmXmXmXmXmXmXNXbX1X1XsXdX1XdX1X1X1X<X2Xb.d.d.+.#XU { {.`.OX'.J..X'.L.K.'.XX'.OX%XK.",
"K.Y K.@X[.L.D.A.J..X@X4X-X.X~ p g.n.bXnXNXmXNXNXMXNXNXfX1XdXsX<X1X1X1X2X2X2X1X1XdXdX,X<X/.u.l.2.4X6X{.}.+X*X6XXXOXG.D.G.'.OX-X'.",
"$XL..X@X@XJ.R .X*X@XXX.X.X$X4 z.,XzXNXMXmXMXNXnXfXfX^.j.j.j.j.j.x.x.x.j.j./.fXdX2X1XdXaXdX^.s.a.2.$XV.{.%X*X|.C.%X.XD.A.'..X%X9X",
"$XL.OX.XL.'.L.@X@XOXOX@XoX3 /.zXmXmXmXMXNXMX1Xn.x.c.a.*.@.+.f X.X.X.@.@.9.a.n.b.2XfX1X1XdXsX/.s.d.6.w D.}.$X.XL.P -X-X^ '.*XwXpX",
"OX.XOXOXL.'.@X[.-X-X@XOX< n.bXMXmXMXNXnXfX,Xf.u.&.@.@.k M 8 7 8 7 8 M B h @.&.0./.(.<XfX1XdXsXn.d.d.$.J.L.L.L.L.XX0X&XG.@X*X-XhX",
"L.OX'.OXOXG.OX*X&X4X&X+ x.vXNXnXmXmXzX(.d.u.8.;.B : 8 m V V V V M A m N 9 9 F / #.y.^.>X1XdXsX1Xc.d.f.o.`.F.+XeXqX*X*X4XqX@X}.6X",
"J..XL.'.R R -XqXoX9X1 j.bXNXnXmXmXzXa.a.w.:.F n N m N r n V V V C C V n C n V C i g t.d.c.sXsX1XdX~.f.f.;.^ P.5X-X*X0X.XL..X4XrX",
"*XXX*X.XK R 0X9X3X1 c.<XnXMXmXmXfXf.8.;.' Z m m A A D K 9X6XP.R H.%X-X.X; { E L E G k -.u.b.sX1XfX~.d.a.-.' .X@X.XL.-XXX[.@X$X@X",
"qX@XqX0X.XOX9XpX% v.<XNXMXNXNXMX(.w.v N m V J > A.yX@XI wX9XXXL.-X5XwXG.L.# o + W { G k =.a.n.fXdX<Xn.a.i.-.) OXD.^ -XOX.X@X*X4X",
"@X@XhX0XOX'.'.wX4 ^.nXMXmXMXfX(.v.:.F , F : - K.I @X*XC.4X+X+XC.L.&X4X&XP.9X;X9X- 5 D { / *.a./.dXcX(.p.p.9.W.@XG.A.&X@X-XXX@X0X",
"hXhX-XqX-X-XK.'.o.,XMXMXMXxXj.i.j B n A 0 P ^ G.I *X4XF.|.oXB.V.G..XG.;X@X9X9X;X;X#X* E H ( -.a./.>Xc.d.a.r.4.5 *XqXOXL.yX0X@X&X",
"rXyXA.*X4XiX-X$.^.bXMXMXMXc.a.:.B r Z , F.C.N.Y N.M.D.[.C.L.[.[.'.[.A..XL..X9X&Xm.@X;X* E / ] 8.p.s.s.p.d.s.e.E.> OXL..X*X}.rX9X",
"$X*XA.^ F.G.2.d.>XMXmXnX2Xh.#.F , i : G.0XyXOX*X*X*XF.|.].T S.P.OX'.L.R I L.;X&XN..XiXuXo ! } 1.*.u.d.p.s.p.9.3.R.= .X.XpXOX0X4X",
"].OX#XF.M.S.6.~.cXMXMXMXj.u.;.M A C |.].@X4X@X@X%XlX3X3X|.H.`.`.'.'.J.^ R .X4XL.oX;XaX9X*XO { [ <.-.i.s.s.p.7.9.1.$ &X&XyXqX-XL.",
"N.J.@X[.B.t p.^.cXMXMXzXf.-.F C > 0XP.|.-X}.J.#X4XtXyXeXF.%XK.H.'.-XG.OXA.P.qX;XP.;XqX&XJ.'.; [ T.1.r.d.s.a.i.w.,./ = oXL.4X.XA.",
"G.@X4X*X[.e.d._.nXMXcXc.a.;.m F : %X;X5X@X|.+X`.+X5X=X|.Z.5XZ.{.^ -X-XgX&XP.;XoXG.G.*XA.I &XP.R.U.U.4.p.s.s.d.e.j R.a I .XOXI D.",
"I }.*X%X@X&.d.sXMXMX>Xp.=.a C , O +X3X XL.}.#X^ +X=XeX}.I |.=XM.J.@XqX$X@XG.&X&XN.L.K.w w &XL.i g | 4.y.d.p.s.r.v | p D G.^ ^ L.",
"+XK.7X+X#X6.d.2XNXbX/.a.] N A @ e ].hXtX{.H.#X5X;X;X3X Xe q `.M.Y `.=X@XOX6X-X-XA.L.L.G.K..XOXOX( R.3.q.p.s.d.q.v | p L.U T P.R ",
"D.].G.A.`.g.d.2XNXbX(.a.,.N A @  X%X7X7XeX#X|.cXpX{.F.H.{.e e gXD.R '. XOX-X@X'.L.L.;X9X4X.X'..Xg T.T.>.e.s.d.w.v | p [..XL.XX@X",
"N.|.J.C.&.s.d.1XNXnX(.7.f n J * 3X X8XwX#X`.`.3XlXcXH.8X`.`.`. XOX'.OX X@X@X.X^ A.A.4X9XqXOXK.XX) T.Y.>.e.s.d.w.,.| _ ; .XL.P.@X",
"P A.@X}.i.d.a.sXNXdXg.>.s A * pXP.S. X;XgX3X`.Z. X8X8X X`.`.`.e `.=X-X'.@XJ.'.}.A.A.9XOX&X@X[.}.L.d W.3.y.s.s.w.v l  .i OXOX&X9X",
"F.K.|.J.r.d.p.dXNX,Xq.} W S   |.;XK.#X#X X#X=X3X X{.{.{.=X`.e e D.=X@X'.6X[..X@XD.G.9XL.$X-XOX'.A.p W.4.q.y.a.r.v ` [ 6 '.J.XX6X",
"D.4X#X*Xr.d.p.>XnX_.9.g E J X +XeX3X3X8X{.|.m.K.3X8X{.{. X XZ.`. XD.Y G.@XL.OX.X[.[.;XXX*X-X.XJ.R p W.3.7.8.s.y.,.`  .6 G.L.@X*X",
"[.yX@X3Xw.d.d.(.zX/.q.g W S X *XuX;XtXjXm.Z.m.Z.`.`.8X~ e `.`.=XgX}.R '.OXJ.@X*XqX-X0X*X-X@X[.}.;Xp W.-.9.q.p.r.j ` } 6 '.@X*X*X",
"4X5X+X3Xr.a.d./.fX^.q.` W S X $X5XtXfX3X8X XZ.H.M.5 e {.`. X~ `.=X8X'.@XOXJ '.6X4X&XXXOXXX@X*XqX4Xu l.i.i.q.p.4.} ] } r &X@X&X0X",
"tXkXeXZ.1.r.p.f.j.d.t.l W S X 7XuX7X3X3X%X{.|.5Xe e Z.=X3X3X`.F.$X=X[.}.-X@X@XqXXX^ .XXX*X&XOXhXqXi 4.a.a.7.q.5.} l [ 6 F.oX+XyX",
"Z.3X3XH.T.8.p.s.p.d.0.` W D X @X7X=X#X+X{.#X8X7X}.V.|.yX X#XH.C.-X@X*X0X-X@X@X[.I @X&XG.A.J.&XOX*Xi z.d.u.9.8.,.` ] [ 6 *X|.+XeX",
"{.3X3XwXU.8.d.d.p.d.t.` W S o I ]. X}.{.%X%X}.].T N.].tXH.`.].D.@X'.-XgX}.`..XJ.A.*X&XoXG.A.&X.X&Xt ~._.!.9.w.z ` }  .u yX#XXXyX",
"3XtXeXjXk 8.i.s.s.d.t.` W D   B.{.Z.H. X%X3X=X{.C.M.+X%XP C.`.$X$X-XgXkX=X{ '.@X4XyXG.P R A.^ 9XqXt ^.bX:X7.-.z _ ) ' , *XwX+X7X",
"5XtX3X{.Q 9.9.r.d.s.g.1.E Z @ T K.].P.|.6X%XC.T Z.8X{.K.|.Y ^ 6XD.K.*XrX@XJ.XX@X;X&X[.R P N.R L..Xt ^.zX^.*.1.} c Q G : ].%X].=X",
"`.8XtX5XE 8.9.i.d.d.a.8.d m S * #X|.{.{. X5X7X|.].|.5X+XOX|.'.D.J.G.XX9X@X6XhX@XoX0X9X-X.X*X7X.X*.d.dXzXu.7.1.} c Q G > }.].{.%X",
" X=X5XhXwXh 8.a.d.s.d.a.[ N S # ].XXXX|.%X*X@X+X%X4X#X%X-X%X-XD.@X@X&X-X@X%X4X[.F.pXP.w S..X9XeX*.b.MXaX9.7.z _ } [ 5 #X3X#X|.}.",
" X3X3X8X*X/ t.e.g.d.d.a.T.G S . H.K.}.;X*X%X4XeX3X%X].7XkX-X.X=XL.*X-X4X*XL.A.}.&XP.}.@XL.M.&X;X&.).NXaX*.3.l ` Q H = S.pX%XM.F.",
" XZ.Z.8XtXE :.7.u.f.s.d.4.z J : B.Y T +X+X#X3X7X0X-X+XOXrX=X@X%X&X.XOX@XXX-XXX%XXX*X9XOX%X|.[.2 0.sXbXn.%.| _ ] Q J = C.5X3X5XV.",
"7X{.m.P. XL ` >.i.p.s.a.i.,./ ! = C.M.+X*X+X0X0X0X-X+X'.9XwXyXrX4X.XG.B.D.OX.X@X@XG.A.-X*X%X+Xf.b.bX2Xy.3.( ] ] G G : #X7XK.5XtX",
" X X X#X3X6 { | 3.y.p.s.s.:.` / ; +X[.L.@XL.XXyX-XqXiX'.'.@XhXhX0XG.A.oX&X*X@XpX@XOXA.9XtX6X1 b.nXnX!.%. .) c ] i n * ;XuXP.#XhX",
"3X8X3X X X3Xu ` >.9.e.d.d.4. .} ` , ].L.0X4X%XeX0X-X0XG.G.'.%X.X&XR A.4XiX9XOXhXqX@XR ^ -X1 j.sXMX_.u.:.` ] c d F O I N.3X{. X3X",
"cXuX#X3X7XuXL [ I.4.e.d.s.e.5.} )  .u ;X7XeX9X*X&XL..X'.@X&X&X[.[.A.D.P.oX4X.X@X0XXXN.^ O i.f.nXNX/.*. .( c [ i J O 5X{.8XtX5X#X",
"jX5X X3X=X7X{.L R.U.l.u.d.p.5.U.z ] k ; [.$X*X9XXXL.-X0X4X@X.X@XG.[.@XXX.X&X[.L.oX*XN.% $.f.zXNX).z.<.} ] ,.( J - tXzX{. X7X3X3X",
"e M.H.e e #XgX#Xu  .U.-.y.s.t.1.R.,.I.{ 6 9X-X0XG.^ .X-X0X0X@X*XL.K.XX&XOX&X.X@X.XL.$ 0.d.fXMX).%.>.` l [ k Z - e  XfX X X3X#X X",
"P.e ].C.H.].8X#X* { _ I.=.i.i.-.5.T.T.I.| 6 = [.@X.X$X9X9X0XL.'.9XG.R G.XX9X*XqX% 3 t.^.dXNX).*.<._ l  .Q Z S `.M.M.oX{.H.{.#X3X",
"].|.|.P.R ].3X#Xq C E ( I.3.9.e.8.1.T.1.,.U.R.u + + $ ;X6X3XwX-X7X0X+X3XP.1 + 1 Q.^.<XMXNX).%.,._ l } d i V > OXL.].#XXXXX].%X7X",
";X{.wXuX.XJ.[.G.G.4XD s ` U.-.w.q.8.Y.Y.T.E.,.l  .| R.O 3X7XyXeXpXtX3X5Xt f.u.f.bXNXMXnXaX*.I.l l } ( i V , -XwXXX[.^ R T I G.H.",
"#X;XtX5X].J.G.M.|.5X# J H _ 1.5.4.q.8.U.Y.1.Y.Y.Y.U.Y.2.$.@.$.$.$.$.6.6.!.1X_._.MXMX_.v.l.>.] ) ] ' D S , F.[.+XV.A.Y M.U I |.4X",
"jXuX5X7XP.B.S.A.}.%XM.q C W ]  .U.4.4.8.5.Y.Y.T.5.8.i.d.d.d.d.j.>X_._._.1XzXzXzX/.n.l.#.j _ _ } ' D F , K.D.|.].Y }.-XG.K K.+X3X",
"kXtXoXoXS.w M.w L.K.%X|.- u ( d ( | I.-.5.T.E.T.1.-.t.y.s.s.s.j.(.(././.!.!.v.v.9.#.v ` ` c ] d y F , R }.K.}.XXY ^ ].|.G.#X@X*X",
"iXlX|.M.#XM.G.P.4XL.|.%XB.T Z G a d k U.U.I.I.<.T.U.U.3.z.i.a.i.u.u.p.i.*.%.#.%.I.` g } c k Q a S 0 F.R *X-X%X5XyXL.^ H.K.}.0XpX",
"wX0XK.[.lX%XP.lX7X+XJ.7X*X[.K.C V E E ( x l l b T.Y.1.Y.| =.7.*.*.*.*.>.R.,.` ` l c ] } k G D r A K.C.T ].'.+X+X[.XX@XOX|.4XyX+X",
"7X|.;XvXkXpXP.%X%X|.oXuX#XG. X%X: n y s a ( _ l c c x x c c x x x x x x l _ _ ` c c Q a a m , * V.F.].+XK.I [.[.G.M.*X+X[.|.[.].",
"%XG.#XlXlXlX+XB.C.A.S.#XP.w |.@X|.XX: V V r D d a s s a s W G H G G G a d W s s E i n Z n & |.M.L.6XeXkX@XI F.].C.F.K.Y G.C.C.G.",
"M.P.;X#X4XpX+XU I M.w M.oXP.&XG.G.-X+X: = 0 A Z Z Z y y y y y y y y y y y V Z Z Z S : : & 4X%X X-X+X6X7XyXyX*X].#X[.[.K I U K.+X",
"M.F.|..XpXwXK.Y U T G.F.3XpX3XoX+XyX%XF.yX= 9 8 : : m V V V V m V V V V V 9 : : : 0 O #X%XlX4X;X-X*X*X|.XX|.-X+X[.C.A.S.A.K.[.|.",
"U F.L.B.XX@X+XXX;XXXK.;X5X%XpX[.*X@XD.J.rXuX@ . . @ , m n , n , r 9 9 9 m : . X X o jX3X*XrX5X7X}.F.A.XXwX@X[.U R F.Y K w *XOXA.",
"|.|.|.|.+X@X7XyX*X].|.0X#XF.3XXX$X0X*XeX@X].0XyX|.^ @ & @ @ @ @ @ @ @ @ & . eX3X#X3XuXuX%X{.3XuX%XM.H.[.0XuX0XyX[.@XL.A.N.].G.|.",
"%X7X7X&XXX*X0XOX].V.eX4X@XXX[.jXwXwX'.*X@XXX4XwXhXJ.P H.#X+XG.|.|.|.%X|.@X*X5X*X].;X;X3XK.].#X3X-XA.I A.@XyXuXyX3XeX*XY ^ C.K.OX",
"4X7XuX7X+XD.6XjX*X].+X%X%X+X5XyXkX7X|.|.XX|.|.}.}.J.D.G.wX+X[.K.].P.#X3XrX7X%XF.].#X].S.S.|.XX+XeX%XY L.XX*XyX*X-X#X%XOX+X'.K.|.",
"XX4XrX[.[.N.$X*XA.w OX7XXX[.;X3X6XK.+X|.+X-X@X'.C.V.R A.eX[.XX X3X;X%X5XtX3X|.M.].P.{.M.P.P.[.yXyX+XM.[.|.3X%X+X@X%XXXXXC.|.[.|."
};
