/* XPM */
static char *_517_56548c7b65e25ac12cef45ba5158c43a2bc8306e6cebe4dff319ad114d96c3e7[] = {
/* columns rows colors chars-per-pixel */
"64 64 98 2 ",
"   c #070500",
".  c #0B0906",
"X  c #0F0D0A",
"o  c #110E0B",
"O  c #13110D",
"+  c #161411",
"@  c #191713",
"#  c #1C1915",
"$  c #1E1C18",
"%  c #201E1A",
"&  c #25221D",
"*  c #272320",
"=  c #292623",
"-  c #2D2A25",
";  c #2E2C29",
":  c #302C27",
">  c #312E2A",
",  c #35322D",
"<  c #38342F",
"1  c #373430",
"2  c #3A3632",
"3  c #3D3A35",
"4  c #3F3C38",
"5  c #413C37",
"6  c #423E39",
"7  c #45413D",
"8  c #49443F",
"9  c #474440",
"0  c #4A4641",
"q  c #4D4944",
"w  c #514C46",
"e  c #534E49",
"r  c #56514C",
"t  c #59544E",
"y  c #5B5651",
"u  c #5E5953",
"i  c #625C56",
"p  c #635E59",
"a  c #66615B",
"s  c #6A645D",
"d  c #6C6661",
"f  c #6E6963",
"g  c #726C65",
"h  c #746E69",
"j  c #757067",
"k  c #76716A",
"l  c #7A746D",
"z  c #7D786F",
"x  c #7C7671",
"c  c #7E7972",
"v  c #80796F",
"b  c #827C75",
"n  c #887F77",
"m  c #847E78",
"M  c #897F79",
"N  c #878077",
"B  c #86817A",
"V  c #8B847C",
"C  c #8E887F",
"Z  c #90867E",
"A  c #91897F",
"S  c #8D8780",
"D  c #8E8982",
"F  c #938C84",
"G  c #9A8F86",
"H  c #958F88",
"J  c #988F89",
"K  c #979087",
"L  c #989187",
"P  c #969189",
"I  c #9B948C",
"U  c #9F988F",
"Y  c #9D9690",
"T  c #9E9891",
"R  c #A0978F",
"E  c #A0988F",
"W  c #A19790",
"Q  c #A39C94",
"!  c #A99E96",
"~  c #A59F99",
"^  c #A99E98",
"/  c #A6A097",
"(  c #AAA097",
")  c #A6A19A",
"_  c #ACA39B",
"`  c #AEA89F",
"'  c #B1A59D",
"]  c #B1A89F",
"[  c #AEA7A0",
"{  c #AFA9A2",
"}  c #B0A7A0",
"|  c #B3ABA3",
" . c #B8AEA7",
".. c #B9AFA8",
"X. c #B7B0A6",
"o. c #B9B0A7",
"O. c #B7B0A9",
"+. c #BBB3AA",
/* pixels */
"s p u i 0 r a y y u y s a r r a l d u d k c h d i i i i g h d i k v l v M M l s i i p r s v j l n N b i w w w s s g b F k t w s ",
"a i s p p k k a 8 r s g n l j F Y B a i g h g v Z I W U S i e g M M G ! ! ^ Q I v 8 8 i F G V J R ! R a 8 i w s V L K C V f a 8 ",
"g j V C P H H S w 7 s F D H / } { Q x y y t s G _ ' ' ) F w q b G R ! | ! ! ! ! l 5 5 d R ! F L ' | ' v f b j s A ) Q S E N w 7 ",
"C I Q ) { T F T i 7 k U P _ o.O.| Q h r t s V ! Q L L I k 6 r k x F G M Z F I ^ k 6 e k b n I R L F A G L Q C a K P V B I E 8 8 ",
"P ) ^ W ^ I I ) p 7 f M U Q W W T b e 4 p V F V V B G D t > 6 p k J G v Z F n x u 2 6 s g p B Z b v Z F D M h q l b V k s k r w ",
"N Q I B Y H D m q 1 r f I H M x S p 1 ; p b b Z b l v p 5 - 6 i g M M V Z M s 3 , : : 6 t p s i s V v d i 8 6 7 8 8 a t 5 w q w ",
"d I U B Y Z l a 7 1 y d Y W H x x e 2 1 w s k b k s 0 , - : 6 0 6 q t i i r 5 = & > , < < 6 5 5 6 t w 5 2 , 7 7 3 , 2 7 2 q 5 r ",
"i c F l x k l u 9 2 e e d b k s e 2 2 , 3 0 e 7 w 6 = % = > > - - % - > - = : 2 5 5 6 5 = % % = > 5 w > > 6 q 7 q 7 7 r g i q r ",
"r q e 6 8 i i 3 , - = ; > 1 , 1 - = > 2 3 - - , 4 4 1 4 0 e 0 3 2 5 5 2 3 8 r u y t r q 6 3 3 0 u s y 3 ; 1 3 4 7 3 7 h ) c r q ",
"q 0 2 > 6 8 2 < , > 1 5 5 3 3 3 2 7 0 q 0 > 6 r f h k c c c c d p k k d h b V V b g d s h b x n b k s t 4 1 - , 5 8 p F ) c u w ",
"e g d 6 , : : : 2 5 7 q e e e e w i t i h b V V f f V D F D V x x S M F F V F V b D V S U Y F b c x k s y 6 ; ; 2 p F P F F c 6 ",
"x J J i 2 5 , 2 6 6 q i a h x x B V c z H ^ Q P m V F P T Q Q Q J J W ^ Q V M b D U I L L P D V D S B b c d 4 $ , g Q A k F F q ",
"S ) ) S s 0 : 3 0 q p h M m M S J R I U ` | ` Q T H V D I L Q _ ^ Q Q I N b F Q ) _ ) Q U Q ) Q Q ) I P H B 9 - 1 d D m l B H y ",
"M [ | _ F e : 7 p f l b F Y I Q / Q E / Q ` { { [ Q F S b b K Q I L I D B I ` ` ' | _ Q _ |  .` | +.` U S l 9 ; 1 r c c h k S k ",
"F Q | | L e , 0 d b x M H F Q } _ ! Q U F F I Q | | [ T F D V F H F B c F } ` I Q ) ) U U U F K ) } ` Q S d r 4 2 4 f d p l m h ",
"S Y Q ^ I y < 0 d h k V L J ^ ^ R E Q J B b F Q { {  .X.` E I K S B B N F Q L F V F F c l c b z b F U D S f u r 1 = 0 y a l a u ",
"k F J W F y 2 e h c b F H W L F B b b l g l A I Y Y Q ` ` / T U V C L L Q P D c f f f d i i g g i s l c v d y p 3 - 1 y k y 3 r ",
"l V Z D V 0 , e f V H S F B l s t t u q 8 i k M V P I T _ Q U U D K E T ` I x d y e u u 0 q y y r u s l l p y f 6 > > e c p 8 t ",
"M b S b M 0 : 0 s V J b z g s w 0 w 8 8 0 0 e d h b P Q / / Q I K F T / T c a u e 0 e 6 7 0 q w u f u u l g s s w : 5 p J L v s ",
"b l F V b 9 1 6 a J V k s p r w t t w w 0 7 5 e r y V T Q _ T P Q ) ~ Q S p y i y e 6 5 0 q 0 0 u d u u h x h i 0 2 y M ^ ! R b ",
"v v d h k 3 3 4 i F V h f u t u e e e 7 1 2 5 6 w a c I I U U U ) | _ E M e r u q 0 3 , > 6 t t r r p u d c l s 5 2 j G ! ' Z d ",
"h f i r r 1 3 2 y F D k i e s p e 7 - @ @ % > 3 7 p x V L L I ) ` _ _ I l u e q 0 6 ; # % % 6 p u t u u u h x a > , g ' ' ' R g ",
"q 0 7 7 e 5 1 2 t b V k u u f u 3 % O O O + @ 1 0 e p h B H Q ` ` Q Q V g p r 8 8 - + o o o % e p u a d d c b a 6 > q ' ] ' R s ",
"0 d a i y e 1 2 e x D M i p h e % X X X o O O > 0 0 u a f F Q ` _ Q I b s t w 8 , @ O o o o o & 9 u p f x S m p 0 > 5 G ( ( ! d ",
"x Y I V x y ; 3 r l J J h f h 7 + o o o X O + * 9 e i d k P ) / ' Q H x p e e q - o + o X + . O 2 e i f v F b t 2 - > d G ( ! p ",
"I _ _ D m a = 7 e s J J c k m r # X o o + O X + q p d h b U Q Q | _ S g u u y 7 * @ O X X o o $ e d p h h F l y > = = 0 v b M r ",
"~ Y T S x t ; 7 q d S S x f S m 1 O X O O X . ; t f x h B Q Q L _ ' B p p f d e - @ + + o o . % f m k l v S k t > = > 7 i q e w ",
"~ Y H m b w ; 4 0 f V F M f c S x 7 $ o X @ - r u h b g B T L F Q Q V h g x l f e * o X X   o e S F M M S m f 6 - : 0 0 w 2 > 6 ",
"J { m k S t = 1 e d S S J S S m ~ F p 0 6 r d g f x c h M I H P ~ H m c c b k g x u 1 $ $ ; r P ~ F S I W k u 2 - < r y d y 5 5 ",
"h H x h m 9 = 1 y h m M I H I J T [ P Y Y D h g l x c h B I D D Y H c x c m g d x F c u p S [ ^ J V F Q Q k e 2 : > q l R F p t ",
"4 r f t e 1 ; 1 i f x F J J ~ T Y F S Y F b p p k x k f c F D D J F c k g x g g c V D Y [ [ ) Q F V Y ^ Q l t 5 = = 6 b ' ! v g ",
"; 7 t 1 9 3 1 3 p p k J S J [ Q D b b m b f d h x x d p c B S Y I m c k f g f x b x m V Y I F H F F Q ~ J x d 6 * * e D ! ^ J l ",
"y h l u d 0 5 3 p a k F I I _ ) ) U S l n l k v f a u l B x P ` T F S x d d h V V b B F D S I W Q L L Q F l u 8 2 > p F G Q S k ",
"F J m f f e 7 , q y f I I P Q Q } Q D F Z l g v k e y c c x P Q T T F c h k h x F b F L D F Q ) Q L F F c x w 0 w 2 p v Z W Z w ",
"F F F M x e 5 2 4 e a S T P U U ` Q I P F b g g s q u k k x F Y Q ~ Y V g h k k B B L I I L U ) ) I D M b k 0 6 6 , y h f n g 0 ",
"m m D I c 7 2 > 3 r i b Q Q U _ _ U L I F b k s r q a a a c F T ~ ~ Y M a h k u b F P I Q Q F U _ ` U B V i 3 2 2 > 6 7 0 d e 0 ",
"H H m H k 2 1 = 3 e p b P L )  .` I I Q F c k p t q w 8 q g l l x l x k y r i p b F F I Q Q J F Q | / B l 0 , < , 1 4 4 y d q 0 ",
"m Y V l r , 1 - - 3 p b D P `  .) U Q T V j s p u 8 < ; , r w q w 0 e e 7 > 3 s B V H I ) / L F ` ' I k t 7 > 3 3 4 u x V b k y ",
"a F m t , , 3 4 > ; y h B I ) | / E ) Q V l g p t 5 : & : 2 2 3 5 1 2 6 3 = > u c c F J L ) R F ) Q V p 7 5 = 6 e r k T Y H Q l ",
"0 f s 1 , , 7 u e 2 3 t f B Q ` Q Q _ Q A C b i r 8 7 3 3 7 6 5 0 q t t 0 3 2 0 p k B F V Q Q J R Q b r 7 7 5 8 e p k ) ) T ~ D ",
"> e a 9 r 0 9 i f d 1 4 r u I Q R Q _ I Z F l r r t t y s g s s l S V c s e 0 6 0 f b V F I Q L Y ~ x 0 1 e d p 9 y g T [ ~ Y P ",
"e l m M g p 6 e S F 9 ; 0 y c Q Q Q _ L V F s t i e i j z l k h h b b F F l i 6 7 u s c V U ~ V S H u 2 ; q m x 9 y f J Y Y T ) ",
"Y ~ _ ~ S g 1 e S P f 3 4 a a F Q Q Q J F x e i a t s j s q , = = > 7 s c F g 7 3 w p h v F Q B M x 9 ; 4 u m m 6 w u m m S [ T ",
"S { ..^ J g 4 e H [ F 0 > 0 u B U L F F F s i a i a l a < % @ O + # % = 7 l Z y 2 5 i k k c F F S u 9 4 t f S x 1 3 9 y m H D h ",
"b W ^ J H f 4 e H [ f r > > i l F Q L F M a d d a l f < O + O X o @ O O @ 8 l h e 2 7 h l l B V S w 3 7 r S P u 1 3 9 7 d x k u ",
"h ^ W F S p 5 9 c I d t 9 > e i V Q Y F k f c d l N w + . O O O O O O O X & u l s 0 2 y z c V V m 3 1 0 g P D u , 2 4 4 9 r q y ",
"y J W M m p 3 1 c m g d e 2 q q M I L L g b b l F N , . X X X O O O O O X . 6 l p w > 7 z b b k u 4 9 f S F V a , 2 y u r 6 = e ",
"2 h k d d p 4 0 m M D m y 2 9 9 x D B F B N l b C u $ X O O O O o O O + O . , d i 6 2 7 s z l s 9 3 d S S S m y 2 9 H I m h y e ",
"= q 0 q 7 e 7 y m H Y S g 1 1 4 s N b V D c k x c 7 O X O + O O O O O O O X ; d s 7 7 q q s j e > w c M S m k e 4 p ) ` / T D u ",
"2 4 e q 3 4 7 i l F m l h q ; ; 8 s C D N z l c B i - O O O O O O O X O . # r N z t w e r a r > , t k f S B g e 9 g Q ) U Y D u ",
"i u h s f y 1 y a S b p y r ; = 2 u B K B c N B P S a 4 & O X O X O O O - a T D k s t t g j 7 = 1 p k f m S c u r f P T P D k r ",
"M S Z Z J h 1 e p M S x p 4 > > 3 y d b S l c K T / T N u 3 2 , ; < 4 q N | T d s j u u s j 3 & 3 f x f k k l r 9 p l B P h r w ",
"S J J F V s 9 q k l x m a 6 ; 1 7 r w r p d d N P I / / U U U A I K L _ / K l a s j a a i r 3 , w y s d u u 4 - , r u u d r q 7 ",
"p M J S M p 0 4 p d r y w w 2 ; 3 4 > , 3 0 t u i p d B I Q E / / U F C z s d s s s u i r 3 2 4 1 7 a r y p 0 7 6 r w 6 6 6 3 : ",
"d f x M m t 9 3 2 4 * > 1 1 > * , 2 ; - 2 7 4 > > , 8 r u s d j k i u r 7 7 8 q 8 8 8 7 2 = 2 , * , 6 1 2 r f u r 8 < , 7 , ; , ",
"2 1 3 e r 6 2 1 ; 2 ; = 3 2 4 4 2 : 2 4 4 4 > - ; 6 7 > , 4 7 7 7 8 8 5 3 < < < : - & , , > 3 , * - 1 1 9 e u a a e r y e 3 ; , ",
"1 9 y u y e r t s f f s d s s s p 7 7 3 1 9 r a j b N l s g l l l c c c b l j h u r q 7 4 3 7 w f k z b B C D C N l b x d q , ; ",
"y k l l m x b F Y Y S H P Y Y F B p q 1 q l D U ) ] o.] / ` | ` _ _ ` { } ) I F D B g e 4 4 p D ` ` _ E _ X.{ ` Q Y T H D p 1 ; ",
"h B b B U Y Q _ [ ) I M B Y T H V f u 4 t D ) / ( ] _ / ^ / E Q ` { { ) K P U K ) F s u 2 7 c X.[ Q L I Q I K L H T Q _ T l 7 ; ",
"h c A J R ) ) U Y [ Y b h c x x x f y 1 q D ) U I K V F L F F L Q Q / P c F I U / B s u 3 u V Q P F A F C l l z b P D D D l q , ",
"f l c P F L E K I Q V F c x k l f g t > w B L F N z l v V Z A K C V C C V L F I K l s q 7 s b C V D F N B j s j j N c f z j q , ",
"d h k c b N L Q L B k V B x H S s f t 2 u k k j l z j j N N N v k N N k k z b V V N f 3 3 a b C V x b k l j k j a f C z x l q , ",
"d s x c l V C b l l s h c M S F j a e 3 p N b j l b z l V C z f l F N s s s h b B B a 4 < s D V z j j f s j z z z c m z f f e 1 ",
"h k b c B F l h s s s h g x m V b a e 5 r z F C v N F V b z d g z z k s s j h c C k u 7 3 j C B z k k k N B j z B b l k p f e ; "
};
