/* XPM */
static char *_f245ff095674c96a0c2e50c4e02d0bcakkTbzP3DwjwuRgB[] = {
/* columns rows colors chars-per-pixel */
"64 64 123 2 ",
"   c #000000",
".  c #080707",
"X  c #0A0907",
"o  c #0C0B0A",
"O  c #110F0C",
"+  c #13110E",
"@  c #151413",
"#  c #191614",
"$  c #1A1817",
"%  c #1D1B19",
"&  c #201D1A",
"*  c #26231E",
"=  c #252321",
"-  c #292623",
";  c #2D2A25",
":  c #2E2C29",
">  c #302C27",
",  c #312E2A",
"<  c #35312D",
"1  c #38342F",
"2  c #373431",
"3  c #393632",
"4  c #3D3A35",
"5  c #3F3C39",
"6  c #403C37",
"7  c #423E39",
"8  c #45413D",
"9  c #48443F",
"0  c #474441",
"q  c #4A4641",
"w  c #4D4944",
"e  c #514C46",
"r  c #534E49",
"t  c #56514C",
"y  c #59544E",
"u  c #5B5651",
"i  c #5E5953",
"p  c #615C56",
"a  c #635E59",
"s  c #66615B",
"d  c #69645E",
"f  c #6C6661",
"g  c #6E6963",
"h  c #726C65",
"j  c #746F69",
"k  c #757067",
"l  c #76716A",
"z  c #7A746D",
"x  c #7D786F",
"c  c #7C7771",
"v  c #7E7972",
"b  c #827C75",
"n  c #857E79",
"m  c #887F7A",
"M  c #878077",
"N  c #86817A",
"B  c #8B847C",
"V  c #8F887F",
"C  c #8E8581",
"Z  c #8D8681",
"A  c #8E8981",
"S  c #8F8982",
"D  c #8F8A82",
"F  c #908981",
"G  c #918A81",
"H  c #918982",
"J  c #918A83",
"K  c #908B85",
"L  c #958B84",
"P  c #918C84",
"I  c #928D87",
"U  c #938E86",
"Y  c #978F85",
"T  c #948D86",
"R  c #958F88",
"E  c #979087",
"W  c #989087",
"Q  c #979189",
"!  c #989089",
"~  c #98928A",
"^  c #99928B",
"/  c #9D9189",
"(  c #9A938C",
")  c #9B938C",
"_  c #9B948C",
"`  c #9A948D",
"'  c #9C958D",
"]  c #9E968E",
"[  c #9F978F",
"{  c #9F988F",
"}  c #9C9791",
"|  c #9F9892",
" . c #9E9992",
".. c #A0968F",
"X. c #A0988E",
"o. c #A19790",
"O. c #A09992",
"+. c #A19A92",
"@. c #A39C93",
"#. c #A49B94",
"$. c #A29D96",
"%. c #A59E96",
"&. c #A79E97",
"*. c #A89E96",
"=. c #A59F99",
"-. c #A69E98",
";. c #A89E98",
":. c #A6A097",
">. c #A9A097",
",. c #A6A09A",
"<. c #A8A09A",
"1. c #A9A09A",
"2. c #A8A19A",
"3. c #ABA39B",
"4. c #ACA59E",
"5. c #B1A99F",
"6. c #AEA7A0",
"7. c #AFA9A1",
"8. c #B0A7A0",
"9. c #B2AAA1",
"0. c #B3ABA3",
"q. c #B8AEA7",
"w. c #B9B0A7",
/* pixels */
".             .                                                                                                       . X o o @ ",
"                                                                                                                                ",
"      .                                                                                                                         ",
"    .                                                                                                                           ",
"                                                                                                                                ",
"X                                                                                                                               ",
"                                                                                                                                ",
"                                                                                                                                ",
"                                                                            .                                                   ",
"                                                                                                                                ",
"                                                      . .                                                                       ",
"                                                                                                                                ",
"                                                                                                                                ",
"                                                                                                                                ",
"                                                                                                                                ",
"                                                                                                                                ",
"                                                                              .                                                 ",
"                                                                            .                                                   ",
"                                                                                                                                ",
"                                                                                                                                ",
"                                                                                                                                ",
"                                                                                                                                ",
"                                                                                                                                ",
"                                                                                                                                ",
"                                                                                                                                ",
"                                                                                                                                ",
"                                                                                                        .                       ",
"                                                . . X .                                           . . o o .                     ",
". .   .                               .   . . o X o o o o X .     . .   . .   . . .             .         .                     ",
"o @ @ O @ o . . o @ @ @ @ o                               . .   . .                       . . X . .   . o . . . . . . O # # O % ",
"X . . . .       . . . . @ $ . . X o .   .   . . o o o @ $ @ @ $ @ $ @ @ @ @ % # % = ; < 4 5 5 5 4 2 5 t j i 7 > % % 2 a C N s p ",
"= , 4 = < ; - : 0 0 t f f z l f a p u r t w r u s a u t f f h v c h f s i i i s g f j v S S n B B B ! } ! v f 7 - = r J ;.<.R z ",
"u j z u f q 7 6 p s l I ! Q ,.%.:.( B z b z k b h s i l n v W <. .S B v g f h N V b n V P C (  .@.L ( X.S z i 9 2 < p L / %.V j ",
"I ! n g g t 7 , w y h Q { ! :.%.9.:.S T V z h b l t u v v z ` %.$. .J v j l j v J n V ! J J { <.>.! W P v c w q r 3 p b B X.V e ",
"C I J n v r 6 3 6 e s S  .!  .@.4.@./ W V b g h d w i l l v J +.$.-.` B h l l l B M Q ( ] ( ] 3.3.] V n b v q 6 4 < u h g m h w ",
"n n L ( b 7 3 , 7 t p b +.@.{ 4.3.] ! W T m z d t q s s s v I @.-.-.} B s j l p b J T ` @.{ E ( >.4.{ M B p 4 2 4 > 8 8 w f e q ",
"I R m I j 2 < - 3 t p b E W <.0.3.] ` +.J z z p y e e 9 9 k z z z z b l u t p p b I J  .%.:.W J %.0.*.B z q 1 < < 2 5 5 y g e 9 ",
"n +.C z i < 3 ; ; 6 a b S T 5.0.3. .%.+.B h d p i 9 1 ; 1 r e w e q e r 8 , 6 d N B T ` %.*.W L 4.4.! z y 6 , 4 4 5 i c m b z y ",
"s J m t , , 4 7 , : u j B ! <.9.%.+.:.@.B b h s y 7 > - - 3 6 3 6 3 3 7 4 - , u v v S Q ! :.] T 3.:.V p q 4 - 6 r t l -.} R $.j ",
"w g d 2 < < 8 i r 4 4 t h N -.4.@.@.4.@.V V b p r q 7 3 6 8 7 7 0 w t y q 4 4 q p z B J B +.*.T ] X.b t 8 8 4 q r a j -.-. .-.S ",
": t d 0 t w 0 p g d 2 4 t a ] +.] @.3./ J J z y y t t i s h d d z C V z d r 9 7 w g b B S ! *.T ` ,.z 0 2 t f s 0 u j } 6.-.} ` ",
"r z n C g a 5 e B I w ; w u z @.+.+.4.! B J d y p r p k b z z k l b b J J b p 7 7 p p b V ] <.V S Q i 3 : w v z 9 u f ! ) } } 6.",
"! ;.<.#.C g 3 r S Q h 4 4 p s I *.X.@.W T z r p s y d k s 9 < * - , 9 a b V h 9 6 e p l z T ] n N v w : 5 i Z v 7 w i n n C 6.} ",
"K 8.q.<.! g 6 r I 6.S w , w p M ] ! T T T d u s p s z s 1 * # + @ % & ; 7 k V u 1 7 p l z x T L B i 0 5 t h Z z < 7 0 u v I S j ",
"c o.;.) Q f 6 r I ,.j t , , p z J X.! J N a g g d z d < + + + O O # + + # 9 z h r 6 9 h c z m V S w 4 9 t B ` i < 4 0 0 f c z u ",
"j ;...C J a 6 q n Q s u 8 < r i C >.X.J z g z g x M r # X O + + + + + + o * y b d 9 1 u z b B B b 4 2 w g Q S i , 4 5 4 0 u w u ",
"p L #.C n a 4 3 c n h f t < w w B Q ! ! j b b z V M < X O O + + O + + + o X 8 z p e , 7 z b b j p 4 8 g C I B s , 4 u p r 7 - r ",
"3 j l d d a 6 q n N C B u 3 q 8 z I B V b m z b V y * X + + + + + + + + + X < g p 7 6 7 d b z d 8 5 d S C C n u 4 q S Q C j u r ",
"- e q e 7 e 0 p n R } C h 3 2 4 d b M B V v l v v 9 + o + + + + + + + + + o ; g d 9 9 9 9 d k t < w v N B v c w 5 i ,.4.<.%.S u ",
"3 4 r q 4 7 7 p z L n z j w : : 9 d V S N z z v N i - + + + + + + + o + X # t n x y e w t s t < < u j h C C k r 0 l  .:.]  .S u ",
"p p j s f u 2 u a C b p u r ; ; 3 i B J B v b B E S d 4 * + o + o + + + > d { P k h y y k k 8 * 2 p l g v S v i t g `  .Q S z t ",
"m C C C ( j 2 r a B C c p 5 , , 4 i d M B z v W  .:.+.N y 8 < < > 1 6 e b 5.{ h d k p p d h 2 * 4 g c g l l z t 0 a z B Q k t w ",
"C ! / J m d 0 w l l c n f 8 : 2 8 r w r s g g M Q ` @.>.{ X._ L / W W 3.>.E z p d h s s s t 4 < r u d f p u 5 ; < t i i d t w 8 ",
"p m I L m a 0 5 p f t t w w 4 : 8 4 < < 4 9 t i i s g M ] @.@.@.>.{ V V b d g d d d p i t 4 2 8 2 8 s t i p q 8 7 t e 6 8 4 4 : ",
"d f c m b t q 4 4 6 = < 2 < : * < 3 : : 1 8 4 < : < 8 e i d h z k s p t 8 6 9 w 9 9 9 8 < ; < < * < 8 < 4 t g i t q 1 < 8 1 : < ",
"4 3 4 t t 7 4 2 : 4 : ; 4 4 5 4 1 : 4 4 4 4 : ; : 8 8 < < 4 6 8 8 8 8 8 4 1 1 1 : - * < < < 4 < * ; < 2 8 r i s s t t i e 4 : , ",
"2 0 y i u r t u s g f d f f s s i 9 5 4 2 8 t d k n M z d h v z z z v b b z k h i t q 5 5 4 8 w g l x b N S J V M z b c g q < : ",
"t l z z n c b P +. .S K ( ( ` I N s r 2 w x S { >.5.w.5.>.4.9.5.3.5.4.6.9.,.] T A N g t 5 5 s S 4.5.3.X.3.0.9.4.$.` ] I D s < : ",
"l N b B ] X.@.<.3.<.` V N ( %.R N g i 5 y S ,.:.>.5.4.:.>.>.X.@.3.7.5.,.E _ ] I ,.E g i 3 9 v 0.5.%.E `  .] Q E I  .:.4. .z 9 : ",
"l v C ! X.<.3.] } 4.] b h b c c x g i 3 w S ,.` ( E B J E L V W :.%.:.Q v J ` ` :.M d i 5 i B $.Q I V L V z z z M E B S D z w < ",
"g c v Q J W X.W ` @.B V b c l l g h t < e M W J M x z x B V V L V B P V B E J ( E z d w 8 d M V B S J M M k h k k N v f c h w 2 ",
"f j l v n M ! X.W M z B N c Q C d g u < i k z k z x k k M M M b x M M k z x v B N M g 4 4 p b B B z v z x h k k d g B x x z w < ",
"g d c v z B V M z z d k v N B I k s t 1 s B b k z b x z B V x g z V M d d d l b B N s 8 < d S B x g l g g h x x z v M x g g w < ",
"g l b v M J z h d d d j j x N B v d t 4 e x P V b M V B b x g h z x l d d l h v B k i 9 4 k V N x z k z b M k x B b z k s h t : "
};
