/* XPM */
static char *_a8b67408bba4f679ebe97f1b1994f56YlMXDYgUvYZ50hKJ[] = {
/* columns rows colors chars-per-pixel */
"32 32 111 2 ",
"   c #020100",
".  c #090703",
"X  c #0B0905",
"o  c #0D0B09",
"O  c #13120D",
"+  c #151310",
"@  c #1E1A17",
"#  c #1F1D1A",
"$  c #211F1A",
"%  c #24221D",
"&  c #28251F",
"*  c #272421",
"=  c #292622",
"-  c #2C2A25",
";  c #2E2C29",
":  c #312E2A",
">  c #35322D",
",  c #363431",
"<  c #3A3631",
"1  c #3E3A35",
"2  c #413C37",
"3  c #413D39",
"4  c #45413D",
"5  c #49453F",
"6  c #474440",
"7  c #4A4641",
"8  c #4E4944",
"9  c #514C46",
"0  c #534E49",
"q  c #55514C",
"w  c #59544E",
"e  c #5A5651",
"r  c #5E5953",
"t  c #625C56",
"y  c #635E59",
"u  c #66615B",
"i  c #69645D",
"p  c #6D6761",
"a  c #6E6963",
"s  c #716B65",
"d  c #746E68",
"f  c #777067",
"g  c #76716A",
"h  c #7A746D",
"j  c #7D786F",
"k  c #7C7670",
"l  c #7E7972",
"z  c #827C75",
"x  c #867E78",
"c  c #868076",
"v  c #86817A",
"b  c #8A847C",
"n  c #8D8780",
"m  c #8F8881",
"M  c #908781",
"N  c #938C84",
"B  c #968F88",
"V  c #979087",
"C  c #969089",
"Z  c #9B948C",
"A  c #9D9790",
"S  c #9E9891",
"D  c #A1968D",
"F  c #A0988F",
"G  c #A09792",
"H  c #A29991",
"J  c #A29B93",
"K  c #A49B93",
"L  c #A19A94",
"P  c #A69B95",
"I  c #A49C94",
"U  c #A59D94",
"Y  c #A79E97",
"T  c #AB9F97",
"R  c #A59F99",
"E  c #A7A098",
"W  c #A6A09A",
"Q  c #A7A19B",
"!  c #A8A198",
"~  c #A9A39B",
"^  c #ABA39B",
"/  c #AEA59B",
"(  c #AAA49C",
")  c #ABA59D",
"_  c #ADA49D",
"`  c #ADA59D",
"'  c #ACA69D",
"]  c #AFA79F",
"[  c #B2A79E",
"{  c #A9A5A0",
"}  c #AEA8A1",
"|  c #B1A9A0",
" . c #B3A9A1",
".. c #B1AAA1",
"X. c #B3ABA3",
"o. c #B4ABA2",
"O. c #B5AAA3",
"+. c #B7AEA6",
"@. c #BAB1A5",
"#. c #B7B0A8",
"$. c #B7B1AD",
"%. c #B9B2A8",
"&. c #BBB3AA",
"*. c #BEB3AB",
"=. c #BCB4AB",
"-. c #C1B7AE",
";. c #C0B6AF",
":. c #C4BAB1",
">. c #C5BCB4",
",. c #C9BBB2",
"<. c #D7C8BE",
/* pixels */
"t w t u 9 i i g v u s d z b f t z V K b t 9 c b K j 2 w c Z d 0 ",
"x A Q Z 9 h Q :.$.y 9 b @.-.t 0 D T T -.e 9 K T [ Z N j H ~ V 9 ",
"U  .~ C 7 a  .` b , s J N z ; 5 b N b i ; 3 i h h z l q t y 0 0 ",
"j n b a > 8 x k 4 & 7 t 0 % @ : : 2 2 & & : % @ 5 2 & 3 > < 9 9 ",
"4 , 4 4 - : : - = 1 : > 7 q i q 2 4 q s i r q w a 7 * , < h F 8 ",
"j y = - , 8 r t i f b V l V Q A C T Z M V Z U S b z y @ 0 Q G i ",
"` *.r - w h N H / Q @.#.Q b b U ~ C b K +. .` } +.} M ; 7 b z b ",
"C >.h > d v H O...Q b Q =. .V N M z F ` H Z M B U ` l 7 ; q a s ",
"x P a < k B Z z p y t x A `  .A b Z ~ k e t 0 e e h s y : 1 p 4 ",
"x B r - z B a 7 7 8 3 9 p Z ) Z Z  .v q 9 3 6 7 w y h a < r J z ",
"s y 7 - k b 0 r w > = : 8 b H S +.` i 7 9 * - w y e d s : M ,.b ",
"9 w 5 : a n y y $   . $ 8 r v  .+.N y 7 - X   * q y x h % d <.M ",
"Z R u : y A x r     . o 8 u b  .] z q 8 + . .   4 s N f $ < D z ",
"+.L u - e B z n 7     - a k B U / h a d -     # N x b t * 2 1 < ",
"N m r $ t B N B ~ h a s k h n B B k l k k 7 7 B U A N 1 % y h 4 ",
"1 e 1 > y x L R B Z n s h s z B N h a d b Z +.` n ` C 4 + s ,.b ",
"l a q 1 0 v H ~ J b h j u i c S Q b p l b b M F H V x q : g  .z ",
"C H a * 1 l J Q ) Z b a 8 y l J +.C s s b A A H / C g 1 > 4 u 0 ",
"C Z 8 @ ; h H  .~ H b u 8 > 5 i u r 1 w b H ~ C  .Z 8 & , 9 s w ",
"a e % 5 > 8 m +.~ E b a 7 = > 1 1 7 - , l N S H ` h > > 0 Z $.N ",
"0 s 0 e j > 8 C / J N i 5 u j i k C z 1 7 z Z H A 9 , a 0 n } { ",
"U ;.z 3 ` y * z ~ D j q u j 8 % % 1 b s : y b Z k ; w n 1 e C A ",
"A &.h 1 C a - r F A s i v 8   . o   $ l 8 7 z Z y * b z - ; q w ",
"y n y 3 l b 4 1 M C z b j o   + O O   8 t : h z 1 y U a < h t 4 ",
": 3 1 0 n A 0 = u V b b i       .     u a 2 u 8 < b C r e &.=.k ",
"h x y 3 x M 0 $ 5 m b b } z > # % : c S a u a - 9 l z e q A A e ",
"B O.z 3 y a 7 - 1 3 0 i j Z ` E Z Z Z i u i 9 ; 6 y e 1 1 9 6 < ",
"3 y e : ; = > : - - : % % < 9 u t 9 > < > < > & % : 6 u q 1 > - ",
"7 t u s z k z n u > 8 h Z V z v b V b l i 8 ; y V b Z Q C A a - ",
"z C ) [ $.D n C z 1 a >./ ~ ~ / &.} E  .! u 3 S &.~ Z b Z ) m , ",
"a c N H C b z k a 3 i b f f c b v c j V M 7 9 b b z a i g c k 4 ",
"a h x x i i z N f 1 i c j c z a j a u h b 5 9 V j i g j l k a 3 "
};
