/* XPM */
static char *a01a034c506d4916d8ffba3288089b3frpjnph3rDij2EQgB[] = {
/* columns rows colors chars-per-pixel */
"32 32 209 2 ",
"   c #010101",
".  c #090604",
"X  c #0F0B01",
"o  c #01030A",
"O  c #020B0B",
"+  c #0E0E0C",
"@  c #160707",
"#  c #0C1306",
"$  c #1B1408",
"%  c #18150B",
"&  c #010514",
"*  c #040916",
"=  c #00041C",
"-  c #021415",
";  c #0C1413",
":  c #061919",
">  c #151517",
",  c #1C1B19",
"<  c #231F1F",
"1  c #0A211C",
"2  c #2B2618",
"3  c #312C1C",
"4  c #000224",
"5  c #030923",
"6  c #00022C",
"7  c #020C2D",
"8  c #001C22",
"9  c #18172B",
"0  c #010D35",
"q  c #030D3C",
"w  c #0A1134",
"e  c #072728",
"r  c #152529",
"t  c #172828",
"y  c #18302C",
"u  c #1F3132",
"i  c #242323",
"p  c #2C2923",
"a  c #272A28",
"s  c #2D2B2C",
"d  c #372727",
"f  c #322C24",
"g  c #34312D",
"h  c #39352F",
"j  c #2B2E31",
"k  c #273134",
"l  c #333433",
"z  c #3A3737",
"x  c #3B3B3A",
"c  c #490503",
"v  c #550100",
"b  c #590300",
"n  c #4D1710",
"m  c #710300",
"M  c #7B0000",
"N  c #492926",
"B  c #5A2E2B",
"V  c #433B2A",
"C  c #4A4339",
"Z  c #554937",
"A  c #00014F",
"S  c #010F4A",
"D  c #031349",
"F  c #141E4E",
"G  c #000C59",
"H  c #041551",
"J  c #01135B",
"K  c #051A5B",
"L  c #16205C",
"P  c #2E2D4C",
"I  c #000F67",
"U  c #031968",
"Y  c #031D75",
"T  c #001579",
"R  c #022378",
"E  c #2D3968",
"W  c #144042",
"Q  c #3D4670",
"!  c #494A48",
"~  c #5D5345",
"^  c #54554C",
"/  c #5C554A",
"(  c #635744",
")  c #625A4A",
"_  c #695D4E",
"`  c #615B53",
"'  c #4B605F",
"]  c #786242",
"[  c #696255",
"{  c #716656",
"}  c #776B50",
"|  c #766B5A",
" . c #537B7B",
".. c #676763",
"X. c #6F6F6E",
"o. c #756F61",
"O. c #7C7261",
"+. c #74726B",
"@. c #6E7878",
"#. c #797878",
"$. c #870000",
"%. c #9F0000",
"&. c #9D190B",
"*. c #871D17",
"=. c #921714",
"-. c #B80200",
";. c #AD180F",
":. c #AC2310",
">. c #C70D07",
",. c #D91602",
"<. c #D3180E",
"1. c #E91606",
"2. c #F81701",
"3. c #FD1C04",
"4. c #D73F34",
"5. c #F7342E",
"6. c #857321",
"7. c #867152",
"8. c #877458",
"9. c #8D7A5C",
"0. c #927C5D",
"q. c #867B66",
"w. c #837C6C",
"e. c #907F69",
"r. c #B3AA33",
"t. c #8B826A",
"y. c #958063",
"u. c #9A8465",
"i. c #94846C",
"p. c #9C8768",
"a. c #9E896A",
"s. c #898372",
"d. c #958A79",
"f. c #9F9179",
"g. c #A28C6D",
"h. c #A58F70",
"j. c #A69172",
"k. c #AB9475",
"l. c #AE9779",
"z. c #AE9A7B",
"x. c #B29C7D",
"c. c #00008A",
"v. c #011C86",
"b. c #000396",
"n. c #001494",
"m. c #001D94",
"M. c #002283",
"N. c #02288A",
"B. c #1D2B84",
"V. c #022695",
"C. c #012A92",
"Z. c #02249A",
"A. c #002C9B",
"S. c #000CA7",
"D. c #001EA4",
"F. c #0125A9",
"G. c #3D508E",
"H. c #779595",
"J. c #888588",
"K. c #918D8D",
"L. c #9E9483",
"P. c #979797",
"I. c #A79984",
"U. c #B59F80",
"Y. c #B5A182",
"T. c #BAA485",
"R. c #B6A78D",
"E. c #BCA789",
"W. c #BEA98A",
"Q. c #AAA192",
"!. c #BDAD92",
"~. c #99A3A9",
"^. c #A8A7A7",
"/. c #B3B2B1",
"(. c #CE8483",
"). c #FD928E",
"_. c #C2AC8D",
"`. c #C5AF90",
"'. c #C6B292",
"]. c #CAB495",
"[. c #C7B896",
"{. c #C2B49D",
"}. c #CCB798",
"|. c #CDBA9B",
" X c #D2BC9C",
".X c #C7BBA5",
"XX c #D3BFA0",
"oX c #FFA2A3",
"OX c #D4C09F",
"+X c #D5C2A3",
"@X c #DAC4A4",
"#X c #DCC7A9",
"$X c #DDCAAB",
"%X c #C4C4BF",
"&X c #E2CCAD",
"*X c #E5CFB1",
"=X c #E4D2B3",
"-X c #EAD5B6",
";X c #ECD7B8",
":X c #EDDCBD",
">X c #F1DEBE",
",X c #BBC4C4",
"<X c #D3C6C5",
"1X c #E5DCD9",
"2X c #FAE5C6",
"3X c #FFFBDA",
"4X c #E8E4E5",
"5X c #EDFFFF",
"6X c #FEFEFE",
/* pixels */
"&X XT.x.x.k._.&X*X@X].g._.&X`. X_.k._._._.x.x._._.}.`._.@X`.g.l.",
"@X XT.g.U._.x.x. X_.h.h.x.&XT.h.x.k.x.h.`.&Xh.h.|.].x.j.k. X7.] ",
"_.Y._._.}. X_. X].E.l.'._.].}.k.l._._.k.U._.x.T.*X|._.h.0.l.h.T.",
"k.g.x.U.l. X@X_.E.@X'.XX} , < , < , % < 2 s.&Xx.k.&X_.x.k.x. X`.",
"j._.x.g.T.].XX}. X&X$Xg                     [ |. Xk. X`.x.g._.].",
"`._.T._.XX_._.`.k.T.$     o * o &       *     l k.0._.x.]._._.-X",
"x.x.g.].*X&X_.}.x.y..     & U Y Y S * 5 U 7   s 0.l.h.`.*X X_.@X",
" X].g.&X`.e._.`.@XY.>   o 0 R C.C.N.V.F.Y M.6 3  Xl._.`.l.`.T.@X",
"-X;X&Xx._ w ) R.#XU..   S M.R c.T R M.Y c.m.6 f @X].`. X_.`. X@X",
"&Xl.j.! H m.H h L.U.+   H F.L 6.P v.v.L 6.E 6 3 _.&X XT.].].&X@X",
"U.x.V 6 F.C.F.4 V R., = K F.B.r.Q n.n.B.r.G.A 3 _.x.l.l.l.x.&X(.",
"x.XX!.( w C.H s w.}.+ J V.C.M.b.Z.A.A.A.S.m.4 3 0.h.U._.k.7.u.g.",
"U.U.].~ U D.5 ]  X$X  & J Z.A.C.S 7 7 q M.Y = 2 x.T.XX_.k.T.p.k.",
"g.( 9 M.F.q ` !.W.+Xt.X   5 D M.S 7 0 7 = 5 P e.T.g._.].`. X_.].",
"l.$ I Z.9 8.j.+X[.[.!.#.s./   & 0 0 q F q.t._.x.x.].k.]._._.T.].",
"&X$ U I $ k.y._.Q.z h C ^ l o # $ $ X . ^ ^ C d V x.k. XT.k._.@X",
"@X2 J Z.q l R.E..X..  $.-.-.;.y e < r 9 M -.c - L.k. X X X X_.@X",
"|.@X) D T   | 8.O.V t B N *.3.,.N e 1 j 1.3.m y @X].x.`.&X}.@X X",
"$X=X{ * Y K > ; - t l 1 o - N 2.1.N t >.3.b : > t XX`.].|.'.E.}.",
"R.2X}.Z * T = o @ d , . X.J.o e 1.*.f 2.1.@ 8 s   + < { p._.|.x.",
"z.I.#Xt.> G = *.5.;.. J.5XJ.  e :.1.<.<.l O O c <.4X6X#.. |.+XR.",
"$X!.+X$XY.2   ^.6X1X  +.<X..o t =.,.2.1.k - : n >.<X4X+.i Y.[.+X",
"=X].$XR.z.q.g @.,X~.w 6 o . l t &.2.2.&.s   d.{.t p k O.$XOX+X+X",
"i.9.z.$Xz.a.|.[ s s D G 4 % l r v %.m e s   I.]._.-X!.k.R.+X[.+X",
"W.[.Y.T.OX2XOX X>X&X8.. $ x i ; u ! k ; g > g L.Y.U.`. Xx.a.p.Y.",
"-X-Xj.7.W.;X'.T.-X|.d.e 8 r + ) .X+Xs.  e W O i a.8.x.Y.j.p.7._.",
"2XW.y.a.W._.a.a. X}.  b ;.c O T.-X|.w.o c $.@ , Y.7.T.|.x.l._.-X",
"OX+X:XOXOXOXx.i.[ ~ @.).4.c [ Y.'.z.o.+ oX).(.' Z ~ i.T.E.T.}.'.",
"h.=X3Xj.] g._ +.^./.6X6X .; 7.y.9.+Xf.^ H.5X6X6XP./.^ 8.x.h.9.h.",
"y.Y. XT.p.j.; ^ ~.J.[ X.a i 9.a.Y.$X:XQ.  x X.X.P.P.i C j.7.a.W.",
"|.'.'.=X|.@Xd.O.O.{ | O.{ { _.z.[.|.#X+Xd.O.[ | ) Z s.!.|.j.p.x.",
"&X&XT.|.k.E.'.=X$XE.'.}.j.k.OXW.R.+X:Xz.z.j.h.$X Xi.OX#X#X_.z.W."
};
