/* XPM */
static char *_1520_18dafddd5a31806917b353cb3d0a173b7e896613e7cdcef8bb52f1d629cf4eae[] = {
/* columns rows colors chars-per-pixel */
"64 64 244 2 ",
"   c #010101",
".  c #060907",
"X  c #01020C",
"o  c #0C0C0C",
"O  c #170604",
"+  c #171304",
"@  c #12110D",
"#  c #12100F",
"$  c #000314",
"%  c #030B11",
"&  c #02021B",
"*  c #010A1C",
"=  c #0B1416",
"-  c #131313",
";  c #171818",
":  c #1B1B1B",
">  c #260201",
",  c #36110D",
"<  c #251A18",
"1  c #02241E",
"2  c #1A251A",
"3  c #22241D",
"4  c #2D3014",
"5  c #010423",
"6  c #020827",
"7  c #030C2C",
"8  c #09152A",
"9  c #181C25",
"0  c #020C32",
"q  c #030938",
"w  c #041339",
"e  c #161C3C",
"r  c #241D24",
"t  c #331728",
"y  c #0D2E2D",
"u  c #1C2323",
"i  c #182628",
"p  c #1D2B2B",
"a  c #163229",
"s  c #182932",
"d  c #083234",
"f  c #242424",
"g  c #282727",
"h  c #2B2B2B",
"j  c #362B2A",
"k  c #29322C",
"l  c #34302D",
"z  c #292D34",
"x  c #293633",
"c  c #333332",
"v  c #3B3837",
"b  c #3D3D3D",
"n  c #450C09",
"m  c #5A0804",
"M  c #6B0A02",
"N  c #760A03",
"B  c #6D180E",
"V  c #771817",
"C  c #46281B",
"Z  c #6E2717",
"A  c #641C23",
"S  c #462825",
"D  c #482B2A",
"F  c #433E39",
"G  c #752221",
"H  c #384439",
"J  c #46413A",
"K  c #6C5637",
"L  c #040D47",
"P  c #031444",
"I  c #01134B",
"U  c #061949",
"Y  c #000759",
"T  c #021453",
"R  c #0A1354",
"E  c #031954",
"W  c #02145C",
"Q  c #031A5C",
"!  c #151B52",
"~  c #12254F",
"^  c #31364B",
"/  c #031B64",
"(  c #041668",
")  c #021B6B",
"_  c #021D72",
"`  c #051877",
"'  c #021E7B",
"]  c #012269",
"[  c #012174",
"{  c #01237D",
"}  c #032A7A",
"|  c #1B2E74",
" . c #2B376D",
".. c #463C52",
"X. c #3D4B49",
"o. c #314573",
"O. c #424242",
"+. c #4A4747",
"@. c #4B4B4B",
"#. c #515150",
"$. c #535353",
"%. c #585953",
"&. c #5C5C5C",
"*. c #635C5F",
"=. c #5A605A",
"-. c #7B6647",
";. c #737050",
":. c #505362",
">. c #5D6061",
",. c #646565",
"<. c #6A6A67",
"1. c #6D7071",
"2. c #767777",
"3. c #880A02",
"4. c #92170B",
"5. c #861C14",
"6. c #A80402",
"7. c #B70A03",
"8. c #A71908",
"9. c #B51809",
"0. c #B11A14",
"q. c #93240A",
"w. c #B82105",
"e. c #852221",
"r. c #A72826",
"t. c #C40804",
"y. c #D70802",
"u. c #C81705",
"i. c #D91704",
"p. c #D51B02",
"a. c #C71718",
"s. c #D21213",
"d. c #EA0200",
"f. c #FE0C03",
"g. c #E71503",
"h. c #FC1704",
"j. c #CA230E",
"k. c #F22119",
"l. c #D12D2A",
"z. c #F3342D",
"x. c #EE413D",
"c. c #816C4D",
"v. c #856F53",
"b. c #867252",
"n. c #8A7556",
"m. c #8C7758",
"M. c #8D7859",
"N. c #927D5D",
"B. c #847B6E",
"V. c #947F60",
"C. c #EB4541",
"Z. c #7E827E",
"A. c #988330",
"S. c #C29F0E",
"D. c #EBD205",
"F. c #FFFC00",
"G. c #968162",
"H. c #9A8465",
"J. c #9C8867",
"K. c #9C8768",
"L. c #9E896A",
"P. c #9F8E70",
"I. c #A28C6D",
"U. c #A4906E",
"Y. c #A58F70",
"T. c #A69172",
"R. c #AA9475",
"E. c #AD9778",
"W. c #AE997A",
"Q. c #B29C7D",
"!. c #B2A07F",
"~. c #000F86",
"^. c #041B87",
"/. c #000898",
"(. c #031C93",
"). c #012483",
"_. c #072686",
"`. c #02248B",
"'. c #012A8C",
"]. c #022593",
"[. c #052899",
"{. c #02329E",
"}. c #0010AC",
"|. c #0528A5",
" X c #0026B4",
".X c #888888",
"XX c #909090",
"oX c #A39787",
"OX c #B59F80",
"+X c #B6A182",
"@X c #BAA485",
"#X c #B9A688",
"$X c #BDA788",
"%X c #BEA98A",
"&X c #BFAE90",
"*X c #A9A9A9",
"=X c #B5AAAC",
"-X c #B4B4B4",
";X c #BCBCBB",
":X c #C0A788",
">X c #C2AC8D",
",X c #C0B08E",
"<X c #C5AF90",
"1X c #C6B292",
"2X c #CAB495",
"3X c #C7B798",
"4X c #CCB798",
"5X c #CEBA9A",
"6X c #D0B896",
"7X c #D2BC9D",
"8X c #CFBEA1",
"9X c #D5BFA0",
"0X c #D4C09F",
"qX c #D5C2A2",
"wX c #DAC4A5",
"eX c #D9C7A8",
"rX c #DDC7A8",
"tX c #DDC9AA",
"yX c #CFC7B8",
"uX c #E2CCAD",
"iX c #E9D1AF",
"pX c #E3CFB0",
"aX c #E5D2B2",
"sX c #EAD4B5",
"dX c #E7D7B8",
"fX c #ECD7B8",
"gX c #EDDABA",
"hX c #F2DCBD",
"jX c #B8C7C6",
"kX c #C4C3C3",
"lX c #CAC9CA",
"zX c #D4C9CB",
"xX c #D9D9DA",
"cX c #F2C4CA",
"vX c #F2DFC1",
"bX c #F8E3C4",
"nX c #FEECCC",
"mX c #FFEFD0",
"MX c #FFF7D7",
"NX c #DDE6E8",
"BX c #EDEBEC",
"VX c #EBF7F7",
"CX c #F6F8F5",
"ZX c #FFFFFF",
/* pixels */
"7X6X7XrXuX6X@X6X6XOXY.OX:X7XvX6X7XiXhXsXuXwXQ.n.Q.Q.>X<X>XI.6X7X>XQ.:X:XOX7XE.:X<Xv.E.2XOXOX6X<X>X:X6X7X9XR.<X<XsXfX2XY.@X:XV.9X",
"sX4XuX@XI.>XE.N.I.<X:XOX<X:X7XiXnXsX:X$X6X@XI.T.9X7XiXhXiX<X7X6X2XE.OXV.:X@X:X:X:X9X:XE.Y.:XY.7XQ.>X6X>X:XOX@XI.@X:X<X:XV.V.I.:X",
"uXuXfX:XY.OXR.V.OXE.R.I.Q.OX@XE.:XqX7XQ.Y.R.E.Q.I.6XhX7XQ.Q.:X:X:XQ.E.N.<XOX1X:X:XfXiXwXY.Q.V.E.Q.rXiX7XOX9X:XV.<X6XwXrXV.c.n.V.",
"7X7X>X9X9X>X>XY.>X9X<XQ.<X2XQ.@X<X1XrX6XR.E.OXI.I.R.7X7X:XY.v.N.:X$XQ.Q.:X@XI.I.E.E.uXfX:XY.Q.Q.:X9X9X:XY.6XOXI.V.:X2X<XV.K -.V.",
">XQ.:XuX:XE.7XOXOX9X9X5XOX6X<X:X6X$X:X!.I.+X6X@XR.R.4X7X9X7XE.Q.Q.E.+X>X:X1XN.R.OXY.OX:X2XN.E.rXrX9XwX<XY.I.I.R.V.N.V.R.:XOXN.:X",
"6XE.@XR.T.4X1XOX<X<X9XrXR.7XsX:X2XuX7XQ.R.Q.>X0X9XrXiX:X<X9X>XQ.OXR.1X>X@X2XE.6X1X:XQ.@X6XR.E.4XwXOX<XwXuX<XOX:XV.c.R.:XR.Q.R.6X",
"Q.OX<XH.Y.1XOX<XE.4X4X2X<X<X9X<X$X,X1XwXuX2X1XvXuXj - f f g f g g f f g f g f r : : ,.9X9X7X4XY.Q.<XfXvX6XV.R.:XOXV.:X9XOX2X6X2X",
"Q.I.R.Q.Q.OXQ.Y.R.R.2X9XiX6XuXE.U.>XuXtX6X1X5X5X6X#                                 #.9X9X7X3Xn.R.Q.OX<X@XR.:XOXOXOXOX<XOX2X6XE.",
"OXn.E.2X@XOXE.V.E.:X4XwX9X:XOX<XiX+XwXrX7X0X$.  . . .                             . o   h 5XeX5XrX9XOXOX<X7XuX<X2XE.R.R.OX<X9XOX",
"4XOX:X6X<XQ.N.:X8X4X>X:X:X6XuX9XuXuXuXrX0XbXv         .   X               X             ; 5X2X>XaX6XI.:X7X7X:XV.4X:XE.V.@X:X8XrX",
"4XOX<X:XOXOXOX<X4X<X<X<X>X9X9X<XE.:X2XrX:                                 X             .     %.uXOXc.I.:X6X:XQ.v.9X9XV.OX9XuXvX",
"<X@X<X:XQ.@X<X:X9X7X2X<XOXE.:X:XN.V.E.@Xo             & * * * * * * &         . * 6 $         #.OXY.M.R.OXQ.Q.Q.<XuX5XY.4X6X9XvX",
"Q.<XOX<X<XR.<X6X6XwX7X<XOXOX<X9X:XQ.@XR.-   .       . q ( ) Q / / ( L X       % E ) 7         %.V.m.V.OX@XV.6XcXiX7X9XwXiX6X:XrX",
"R.:XQ.OXV.N.wXiX<XuXiXuXrX9XrXrX2X:XQ.OX-       .     w / / _ [ [ [ ( P 8 8 0 P ) ( I 7 *     $.6XR.Q.OX@XN.OXrX9X7XuX:XE.:XwXiX",
"7X:X6X:Xc.N.uXwX9X7XwXwX:X:X9X<XOX:XQ.Q.-             q / ) ' `.} ).[.].(.[.|.(.( U Q ) I     $.2XQ.OX@X2X@X:X6X:XOX9X:X:X<X4X2X",
"iX2XsXuX:X<XrXhXE.M.%.@.V.V.<X@X7XbXhXJ.-     . $ 6 0 E _ [ ).)._.).' { ).)._.^.` _ ' )./ X   $.6X<X@XY.@XwX9X6XV.V.9X<X:X2X7XwX",
"2X2XnXwX>XOX@XuXOX@X    <.wX6XwX5XrXOX#X=       5 ( _ } `.`.).`.`.`.).).].'.`.`.`.).'.[.` &   #.vXvX:X<X:X2XwX6XR.V.7X2X9X<X6XrX",
"vXcX9XpX9X9XE.<.+.^ R L ^ F *.1X1X1XOXR.o       * ) _.] ) ] ) _ _ _ _ ).)._ ) ) ) _ ' ` Q X   $.rXrX9XiX:X<X7XwX9XhX:XOXsXuX6X6X",
"fXfXI.2XuXhX9XF   & [.|.0   j !.pX$X4XOX;       * ^.|./ U ( Y Y Y T / ).)./ T W Y Y W E U X   $.:XOXwXiX:X:X:X:X<X<XOX:X7X:XsXrX",
"6X7XI.I.U.J c ~ E Q _.`.( E ~ h F 2.>XR.-       & ' |.).` | A.S.#.` _ ).'.).` | A.S.#.(.( X   $.6X@X6X9XwX6X:XQ.:X:X:X:XcX<XuXwX",
"@X<X3XY.N.O   W |.[._.].].[.(     >.%X#X#       5 ] '.(./.o.D.F.;./.^.`.`.`./.:.D.F.;.}.~.    $.iX<XOX<XuXE.E.<XR.:X6X6XfXiX9XQ.",
"G.W.1X@XI..   L ^.^.{ '.{ _ W     ,.OX%X@   7 T W } '.`.^._.o.o.| ^.`.].^.).(._. .o.| _._ $   $.:X9X:XV.R.R.OXOX:XN.Y.6XOXwX:XI.",
"R.1XeX9X@X-   8 W ) _.`.( W U   . ,.5XtX@   w ( ) ).'.{ } `././.' { ).).).).{ ).(./.(._.) &   $.V.N.N.V.R.N.N.:X<XI.-.n.@X<Xv.R.",
"n.$X5X5X2XpXpX+.  * _.[.q   x eX%X<XqX%X+   P _ ) `.'.{ ).).} { ].].].'.'.].'.'.'._._.[ T X   $.V.V.@XOX6XhX6X<XY.V.V.-.R.V.V.Q.",
"2XW.tX<X3XsXgX..  * ].|.q   l #X3X+XvXsX@   0 E Q ' ).).`.} [ ).{ ) [ ' ' [ ' { { { [ Q P     $.Q.:X2XOX6X6X:X<XN.:XiXOXN.N.OXN.",
"Y.OXR.L.#X>   E ).).|.(.q   4 %X1X7XtXtXo       6 Q _ ^.[.'.'.].L             * W [ _ ) R $   @.<XOXY.:X7XOX:X:XQ.R.:X:X:XQ.:X6X",
"G.>XW.P.L.o   Q  X(.) / ~ ; +.fXeX&XpXpXv ; @   X q E E / [ '.^.q .   X X X   5 L I P I U 9 r ,.:X:Xv.:X:XE.7XwXQ.R.R.Q.:XQ.OX6X",
"b.I.v   5 ^.[.[.[.Q     T.T.mXhX!.T.3X3XgXqXO.            & W [ [ ] [ ) ) ) ' I         : 6X@X$XOXrXn.E.OXOX6X2X6XrXiXuX<X<X6XwX",
"T.W.v   * ).[.[ W ! z F 7X+XhX#X1X!.3X5X&X,X,.k c v v <     8 I I I L I I T T e v J l 4 @.9X<XOXV.:X:XQ.:X:XrX:X6X<X6XiXOXR.:XrX",
"Y.wXv   7 `.^.q   l Q.I.V.N.#X2XaXeX0XaX%X&XG.W.0XpX#X&.                      c !.!.wX<X9X9X:XE.V.wXiXV.iXV.:XsX:XY.V.<XR.Q.6X9X",
"#XfXv   5 `.[.7   h :XG.M.R.%X9XgXZ.#.=.=.=.*.&.=.>.>.z     + + @ @ - - @ .   ; $.<.%.&.*.*.*.&.$.,.iX:XV.V.6X9X<XE.R.OXOX<X6X9X",
"wXeXv   * `.|.7   l $X>X@XI.W.1XeXH                       . ; u r u f g f #                       t V.Y.V.:X<X2X6X:XOX:X6X6X6XiX",
"dXbXb   * ].|.E 7 e J #.rX1XR.uXgX2.,.@..   n 3.4.N N M 3.V r s r < < : r u = < m M M 4.M O   c >.1.:X:XsXhX:X:XsX>XfX4XI.<X2XsX",
"P.qXv   $ { {.[ _ W     &.wX!.1XuX9X3X2X=   4.h.h.h.h.h.f.0.4 y i 2 : : : g x C 9.y.i.h.u.>   >.qXqX<X!.:XuX:X6XuXuX4X9X7X%X<XpX",
"+XqXqXpXtXq 6 P ) R     ,.I.N.b.+X,.h c u ; C G Z C Z 0.g.u.8.q.A y i r < u y S 8.i.p.h.t.> X $.wX9X:X>X!.6XR.6XuX6XL.7XfX3X<XfX",
"qXdXdXvXqXO   P ^.L   . <.H.v.L.#XO.    f v p y d d a e.i.g.h.g.V a y r : 2 y S w.p.p.k.t.>   $.iX6X:XwX<XE.I.uX2X6X7X7X9XpX1XtX",
"eXdX5X%X#X.   P ` ` ! P 9 h g g f f f g h h 3 2 < o   , D Z u.f.u.0.4.h s A 5.4.i.g.3.> + ; - : < F 6XpX7XOX@XhXbX@X9X7XOX3X+X8X",
"#XyXdXtX3X-   8 R ) { ( 7         u c c h f 3 3 <   . 8 d j 0.p.j.f.u.k d V y.t.i.s.M   $ u g #   - uXuXuX9X6X<XfXY.Q.1X%XOX#X8X",
"&X8XeXvXuXOXm.F   5 W / 8         : x i f f o   1 XX=X..  O g k 5.f.9.g y Z i.g.g.h.N   % g k -     . .     f I.m.@XeX3XqX3X&X#X",
"&XqX3XdXqXR.OX+.  * / / 6     O O : S j 3 ; # . x =XzX+.    d s 5.h.u.j a Z p.g.i.a.B .   t ^ u O > - % #   h uXG.OX@XY.vX5XV.P.",
"&XP.G.tXdX0X#Xx   & ( ' 0 . , t.d.y.y.6.O   &.-X*X*X*X@.  X y k 5.g.p.j.s.g.g.8.j z ;   = f k V 6.r.=XNXxXZXkXc   #.eXU.tXqXtXK.",
"eX&XP.+X&XqX3X%.; 9 R T 6   , C.x.x.x.r.O   ,.kX=X*X*X@.    s h 5.u.u.g.g.9.g.a.D d -   . 1 a B 7.l.cXVXCXZXxXk   +.qX3XtXW.eXdX",
"&X3X&X3X8X8XdXgX&XG.o       :.VXZXNXBX=Xo   <.lXkXlX;X#.    s z V 9.7.p.p.i.g.8.l y ;         N f.z.cXZXZXZXzXc   O.W.0XdXW.3XvX",
"qXyXqX&X#XqXuXaXW.5XJ j @   @.VXZXVXVX-X=   #..X2.Z.2.v   - p z V t.9.w.p.i.g.w.C s 9   o x H Z 6.r.oXjX-XjX*X@.9 <.b.H.0X#X&XqX",
"MXdX3XeXyXgX5X+XG.3X1Xc.^   O.BXZXZXZXkXr             9 F j a k Z 7.9.u.p.p.h.a.D a =   2 oXqX#.        .   2 eX0XaXeX#XdXdXeX&X",
"bXqX1XqX0XtX#XL.J.3XG.-.<.F *..XXXXXXX1.U 5 7 0 5 X   : c h i 2 B 7.7.p.i.8.B B j g =   f I.3XZ.X.X.+.+.H H $.Q.eXdXMX#X&XtXqXeX",
";.m.W.;.;.3XvX1X!.E.M.U.!.7X.XX       X Q _.{ { Q $   ; z h 9 ; V u.u.h.f.V 1 1 j l -   : wX<XN.U.uXwXsXaX&X!.#X#X&XvX3X&XqX3X&X",
"oXm.+XL.W.+XuX3XQ.1XQ.wXwX6XXX&.#.*.<.@.0 5 7 0 7 - < 3 l t 9 1 , M m M M , u p h l #   f 6XhXsX,XwXtXgX,X!.eX!.G.G.3X#XP.&X3XqX",
"#X>X%X+XN.+XqX4X5XuX7XtX5XT.fXhXpXhXpXwX@       . h v h h h f f o         % : f h h -   f tXuXhX6XI.Q.aXG.%XqX<XQ.@X3X%X>X@X3XtX",
"7X%XuXgX%XE.#XT.R.tXnX7XsXhX$X3XbXwXaXuX<X2Xc   . f h f f : .   O.2.1.2.1.v   o f l f ; f c b 1.>XT.M.qX%X$X7XpX%X@XV.V.N.c.R.R.",
"4X7XfXwX+XE.E.G.>XtXuXuXaX<XV.wXgXaXaXqX3X2X$.    g c g : ;     ,.3X3X5X!.&.    g c z c f     @.W.T.c.W.#XT.#X1XK.Y.m.G.b.b.<XqX",
"bXgXtXtXQ.L.U.U.%X4X$XaX4X@X%X1XuXuX>XW.l ; u 9 u 9 u #   f +XI.bXsX5X1X%X$.    i g p x u     $.I.H.c.K.R.Y.>XOXM.#X9XR.-.W.2XqX",
"bXsX1X,XU.-.G.-.Q.E.3X0XV.T.Y.OX4XrXwX$X.   2 v k r : X   g N.%XaXmXuXeX9X$.    = 3 r l u     $.%XK.n.M.#XQ.%X>XM.V.OX#XW.3X4X7X",
"sXnX%XH.5XH.E.+XwXQ.>X0XH.n.-.OXqX5X4X>X%   N d.t.9.8.,   u %X3XE.gX%XW.3X#.  O 3.6.6.y.6.O   $.qX2XT.N.7X9X4XwXaXOXV.R.W.%XuXhX",
"aXuXW.%XnX1X!.bXtX1XW.tX0X+XW.W.1X5X>X4Xi   5.k.k.9.7.m   h gXtXeXeXP.G.4X$.  O r.l.j.z.a., % $.L.W.I.M.+XOX<X1X%X>X3X<X%XqXfX2X",
"uX%X5XMXbXbX!.5X5X%X>XhX1XR.%Xo       l -XNXNXZX-X2   &.4XL.N.T.0XU.&XtX7X+.  c xXZXCXBXBXNXzX,.        %.v.#X#XR.G.9X<X@X%X@XOX",
"6XR.1XnXnXnX1XK.L.U.U.3X!.-.>Xg - f o %.xXZXCXZXlX:   ,.J.K T.#X!.n.0X0XU.=.  O.jXVXVXZXZXCXCX.X- : : ; %.b.R.+XL.T.E.M.R.L.L.E.",
"G.!.qX3XwXhX,Xm.b.G.-.G.F   @.CXZXZXZXZXZXZXZXZXlXu   &.R.K W.E.-.m.0XdX0XT.&X.Xo   XXZXZXZXZXZXZXZXZXZX.X  o +X1X#X@Xc.b.n.OX<X",
"G.R.>X%XhXuXW.m.n.M.T.T.b   k -XxX;X;X;X-X-X;XkXXX-   >.R.K Q.,XG.#X%XeXvX0XeX.Xo   &.kXyX-X-X-X;XkXlXkX,.  # 1X#XI.Y.Y.Y.R.OX%X",
"m.T.W.L.>X4X2X%XqX>XQ.qXO.                            %.G.Q.E.H.&XaX3X0XnXfXdX.X;                           : m.V.T.M.-.-.9X&XY.",
"%X#X%X%X2X2XeXfX7X+X%XuX1.b O.O.O.b b O.O.b J ..X.F @.B.J.7XU.G.0XtX0X3XeXeXpXXX%.b X.b X.O.b b b O.X.F ..v $.sX@X2XOXL.H.OXR.%X",
"6XtXtX5X>X7XuX<X+XL.pXwX4X>X#XbXaXuX+X7X3X%XeXpXhXR.n.R.2X1XT.$X#X%X3X%X,X0XeX0X#X0X7XqXE.+X3XqX7XI.v.I.2XfXgXdX9XpX7XM.V.L.W.<X",
"wXtXgXtX1XY.wXbX7XOX1X5X4X1XwXsXbXuX%X%X>X>X%X$X#XE.Y.R.uX1X#XQ.!.!.3XqXdXtX3XU.+X3X#XT.I.>X<X<XaX7Xn.Q.>X9XfX9X9X4X8X>X<XOXW.&X",
",XwXsX$X@XK.4X7XL.c.>XuX>X#X0XqXwXW.3X%X<X7X3XOXL.K.V.L.pX#X>X,XqX0X6XeXdXqX&XG.+X!.#XM.!.Q.#XsXfX<XV.@X>XqX4X<X3X5X<X%XL.%X#X%X"
};
